<?xml version="1.0" standalone="no"?>
<!DOCTYPE svg PUBLIC "-//W3C//DTD SVG 1.1//EN" "http://www.w3.org/Graphics/SVG/1.1/DTD/svg11.dtd">
<svg xmlns="http://www.w3.org/2000/svg"><metadata>This SVG WebFont was generated by YouWorkForThem.
</metadata><defs><font horiz-adv-x="798" id="ywftsvg"><font-face ascent="800" bbox="-213.6 -257.161 1265.5 919" cap-height="699" descent="-200" font-family="" font-stretch="normal" font-weight="400" panose-1="0 0 0 0 0 0 0 0 0 0" underline-position="0" underline-thickness="0" unicode-range="U+000A-F01D" units-per-em="1000" x-height="499"/><missing-glyph d="M50 700h427v-700h-427v700zM78 680l185 -309l186 309h-371zM251 350l-180 300v-601zM264 329l-185 -308h370zM276 350l181 -303v605z" horiz-adv-x="527"/><glyph d="M50 700h427v-700h-427v700zM78 680l185 -309l186 309h-371zM251 350l-180 300v-601zM264 329l-185 -308h370zM276 350l181 -303v605z" glyph-name=".notdef" horiz-adv-x="527"/><glyph glyph-name="glyph1" horiz-adv-x="0"/><glyph glyph-name="glyph1" horiz-adv-x="0"/><glyph glyph-name="glyph2" horiz-adv-x="333"/><glyph glyph-name="uni000A" horiz-adv-x="0" unicode="&#x0a;"/><glyph glyph-name="space" horiz-adv-x="250" unicode=" "/><glyph d="M152 185q42 0 72 -29.5t30 -72t-30 -72.5t-72 -30l-1 1l-1 -1q-42 0 -72 30t-30 72t30 72t72 30h1h1zM279 694.5q3 -4.5 1 -9.5l-28 -70v-413q0 -5 -4 -8.5t-9 -1.5l-170 46q-8 2 -8 10v367l-28 70q-2 5 1 9.5t8 4.5h228q6 0 9 -4.5z" glyph-name="exclam" horiz-adv-x="313" unicode="!"/><glyph d="M409 759q3 -3 2 -8l-22 -202q-1 -9 -10 -9h-104q-9 0 -10 9l-22 202q-1 5 2 8t8 3h148q5 0 8 -3zM190 762q5 0 8 -3t3 -8l-23 -202q-1 -9 -10 -9h-103q-10 0 -11 9l-22 202q0 5 3 8t7 3h148z" glyph-name="quotedbl" horiz-adv-x="443" unicode="&quot;"/><glyph d="M889 537q3 -3 3 -8l-8 -90q0 -10 -10 -10h-107l-12 -159h104q4 0 7.5 -3.5t2.5 -7.5l-7 -91q-1 -9 -11 -9h-104l-6 -75l23 -70q1 -5 -2 -9.5t-8 -4.5h-228q-6 0 -9 5t0 10l33 70l6 74h-217l-6 -75l23 -70q2 -5 -1 -9.5t-9 -4.5h-228q-6 0 -9 5t0 10l33 70l6 74h-106 q-4 0 -7 3t-3 8l8 90q0 10 10 10h106l13 159h-104q-4 0 -7.5 3.5t-2.5 7.5l7 91q1 9 11 9h104l6 75l-23 70q-2 5 1.5 9.5t8.5 4.5h228q6 0 9 -5t0 -10l-33 -70l-6 -74h217l6 75l-23 70q-2 5 1 9.5t9 4.5h228q5 0 8.5 -5t0.5 -10l-33 -70l-6 -74h106q4 0 7 -3zM564 270 l12 159h-216l-12 -159h216z" glyph-name="numbersign" horiz-adv-x="924" unicode="#"/><glyph d="M668 212q5 -77 -60 -143q-69 -70 -200 -84v-92q0 -4 -3 -7t-7 -3h-95q-5 0 -8 3t-3 7v90q-127 11 -255 90q-4 2 -5 6.5t2 8.5l97 137q3 4 8 4.5t8 -3.5q41 -46 102 -85q67 -43 127 -58q64 -16 96 7q10 7 16 18q7 12 2 31q-6 23 -28 45q-25 27 -69.5 53t-88 47t-86 45 t-75 56t-45.5 71q-12 35 -7 72q10 74 77 124q51 38 124 53v97q0 5 3 8t8 3h95q4 0 7 -3t3 -8v-88q109 -6 227 -69q4 -3 5 -7.5t-1 -7.5l-100 -142q-3 -5 -9 -4.5t-8 5.5q-34 59 -89.5 101t-116.5 41q-36 0 -51 -25q-12 -20 -3 -47q11 -31 47 -55q26 -18 72 -42 q14 -8 41.5 -22t41.5 -21q35 -19 58 -33t55 -36.5t53.5 -49t30.5 -54.5q6 -17 7 -34z" glyph-name="dollar" horiz-adv-x="700" unicode="$"/><glyph d="M693 350q38 0 70.5 -12.5t53.5 -34t35.5 -49t17.5 -58t0 -61t-17.5 -58.5t-35.5 -49t-53.5 -34t-70.5 -13t-69.5 13t-52 34t-34.5 49t-17 58.5t0 61t17 58t34.5 49t52 34t69.5 12.5zM751 107q8 28 0 63q-10 41 -34 67q-23 25 -45 23q-5 0 -10 -3q-16 -7 -23 -33 q-8 -28 0 -62q10 -41 34 -68q23 -25 45 -23q5 1 10 3q16 8 23 33zM207 714q57 0 99 -27t61 -68t19 -89t-19 -89t-61 -68t-99 -27q-56 0 -97 27t-59 68t-18 89t18 89t59 68t97 27zM188 458q22 -24 44 -22q6 0 10 2q17 8 24 34q7 27 -1 62q-9 41 -34 68q-23 25 -45 22 q-5 0 -10 -2q-16 -8 -23 -33q-7 -28 1 -63q9 -41 34 -68zM716 694q3 -5 0 -11l-393 -681q-3 -5 -9 -5h-104q-6 0 -9 5t0 10l393 682q3 5 9 5h104q6 0 9 -5z" glyph-name="percent" horiz-adv-x="904" unicode="%"/><glyph d="M743 15q5 -5 2.5 -11.5t-9.5 -6.5h-213q-5 0 -8 3l-23 25q-87 -44 -177 -44q-39 0 -76.5 6t-76.5 19t-70 37.5t-47 58.5q-27 59 -1 125q27 70 136 130q-42 47 -65 97.5t-23 96.5t21 83t71 58.5t123 21.5q59 0 105 -16.5t72 -44t34.5 -65t-1.5 -76.5t-41 -80t-80 -75 l125 -123l-2 148q0 6 5.5 9t10.5 -1l145 -110q6 -4 4 -10q-16 -74 -68 -131zM263 591q-12 -26 12.5 -72t55.5 -84q30 30 41.5 59.5t6 51t-18.5 38t-30 24t-30 5.5q-29 -5 -37 -22zM236 147q16 -21 49 -31.5t65 -9.5t61 4q-45 45 -155 165q-26 -26 -33 -61.5t13 -66.5z" glyph-name="ampersand" horiz-adv-x="778" unicode="&amp;"/><glyph d="M198 759q3 -3 3 -8l-23 -202q-1 -9 -10 -9h-103q-10 0 -11 9l-22 202q0 5 3 8t7 3h148q5 0 8 -3z" glyph-name="quotesingle" horiz-adv-x="233" unicode="'"/><glyph d="M319 -190q3 -5 0 -10t-9 -5h-109q-6 0 -9 5q-77 117 -117 257t-43 287q-2 148 33 288q35 144 107 264q3 5 8 5h112q5 0 8.5 -5t0.5 -10q-81 -159 -107.5 -349.5t5.5 -380.5t120 -346z" glyph-name="parenleft" horiz-adv-x="352" unicode="("/><glyph d="M288 632q35 -140 32 -288q-2 -147 -42.5 -287t-117.5 -257q-3 -5 -8 -5h-110q-6 0 -9 5t0 10q88 156 120.5 346t6 380.5t-108.5 349.5q-2 5 1 10t9 5h111q6 0 9 -5q71 -120 107 -264z" glyph-name="parenright" horiz-adv-x="352" unicode=")"/><glyph d="M241 629q3 -8 -5 -10l-11 -4q-11 -4 -22 -7q-2 0 -2.5 -2t0.5 -3q6 -7 14 -17l8 -10q3 -3 2.5 -6t-3.5 -5l-50 -36q-6 -4 -11 2l-7 9q-7 10 -14 21q-1 1 -3 1t-3 -1q-7 -11 -14 -20l-7 -10q-5 -6 -11 -2l-49 36q-3 2 -3.5 5t1.5 6l8 10q8 10 15 18q1 1 0.5 3t-2.5 2 q-11 3 -22 5l-12 4q-3 1 -5 4t-1 6l20 59q1 3 3.5 4.5t6.5 0.5l12 -4q12 -4 21 -8q2 -1 3.5 0.5t1.5 2.5q-1 15 -1 23l-1 12q0 4 2.5 6t5.5 2h61q4 0 6 -2t2 -6v-12q0 -11 -1 -23q-1 -1 0.5 -2.5t3.5 -0.5q11 4 23 8l12 4q3 1 6 -0.5t4 -4.5z" glyph-name="asterisk" horiz-adv-x="274" unicode="*"/><glyph d="M416 252q4 0 7 -3t3 -7v-82q0 -4 -3 -7t-7 -3h-136v-136q0 -4 -3 -7t-7 -3h-82q-4 0 -7 3t-3 7v136h-136q-4 0 -7 3t-3 7v82q0 4 3 7t7 3h136v136q0 4 3 7t7 3h82q4 0 7 -3t3 -7v-136h136z" glyph-name="plus" horiz-adv-x="458" unicode="+"/><glyph d="M214 150q24 -28 24 -65v-3q-1 -59 -43 -100.5t-101 -43.5q-6 0 -9 5.5t1 10.5q11 16 16 34q-31 10 -50.5 37t-19.5 60q0 37 24 65q30 37 78 37h1h1q47 0 78 -37z" glyph-name="comma" horiz-adv-x="270" unicode=","/><glyph d="M373 315q5 0 8 -3t3 -8v-81q0 -4 -3 -7t-8 -3h-331q-4 0 -7 3t-3 7v81q0 5 3 8t7 3h331z" glyph-name="hyphen" horiz-adv-x="416" unicode="-"/><glyph d="M136 185q42 0 72 -30t30 -72t-30 -72t-72 -30h-1h-1q-42 0 -72 30t-30 72t30 72t72 30h1h1z" glyph-name="period" horiz-adv-x="270" unicode="."/><glyph d="M384 697.5q3 -4.5 2 -9.5l-233 -681q-3 -7 -10 -7h-101q-5 0 -8 4.5t-1 9.5l233 681q2 7 10 7h100q5 0 8 -4.5z" glyph-name="slash" horiz-adv-x="418" unicode="/"/><glyph d="M379 721q77 0 141.5 -25t106 -67.5t70.5 -97.5t35 -115.5t0 -121.5t-35 -116t-70.5 -97.5t-106 -67.5t-141.5 -25q-75 0 -137 25t-102.5 67.5t-69 97.5t-34.5 116t0 121.5t34.5 115.5t68.5 97.5t102.5 67.5t137.5 25zM316 158q64 -70 130 -64q16 2 31 9q49 23 69 96 q20 76 -2 170q-25 110 -91 182q-65 71 -130 64q-17 -2 -31 -8q-49 -24 -69 -97q-21 -76 1 -170q25 -110 92 -182z" glyph-name="zero" horiz-adv-x="769" unicode="0"/><glyph d="M294 84l27 -70q2 -5 -1 -9.5t-8 -4.5h-222q-6 0 -9 4.5t-1 9.5l27 70v461h-65q-6 0 -9 6t2 11l130 133q3 3 7 3l111 4q5 0 8 -3t3 -8v-607z" glyph-name="one" horiz-adv-x="354" unicode="1"/><glyph d="M195 184q-27 -29 -35 -68l471 78q4 1 8 -2t4 -8l-6 -174q0 -10 -10 -10h-585q-4 0 -7 3t-3 7l3 76q2 79 24 139.5t75 101.5q34 26 102 55q84 37 114 54q77 44 109 87q27 35 16 56q-7 15 -32 19q-29 6 -73 -5q-107 -27 -238 -130q-4 -3 -8.5 -2t-6.5 5l-77 140q-4 9 4 14 q157 94 297 94q156 0 229 -58q31 -25 50 -62.5t22 -77.5q8 -97 -69 -156q-53 -41 -164 -80q-24 -8 -71 -23q-33 -11 -52.5 -18t-47 -22.5t-43.5 -32.5z" glyph-name="two" horiz-adv-x="675" unicode="2"/><glyph d="M656 583l-136 -129q78 -29 124 -83q48 -56 52 -126q3 -56 -23 -108q-28 -53 -82 -92q-73 -53 -215 -57h-48q-140 6 -291 92q-4 2 -5 6.5t2 8.5l91 149q3 4 7.5 4.5t8.5 -2.5q136 -126 242 -153q85 -21 118 27q17 23 13 57q-4 36 -29 73q-63 89 -206 127q-6 2 -7.5 8 t3.5 10l194 179l-386 -36q-4 0 -7.5 3t-3.5 7v140q0 4 3 7t7 3h567q5 0 8 -3t3 -7v-97q0 -5 -4 -8z" glyph-name="three" horiz-adv-x="729" unicode="3"/><glyph d="M440 126h-398q-4 0 -7 3t-3 7v95q0 4 2 7l343 459q3 5 8 5h231q4 0 7.5 -3t3.5 -8v-449h39q5 0 8 -3t3 -8v-95q0 -4 -3 -7t-8 -3h-39v-42l27 -70q2 -5 -1 -9.5t-9 -4.5h-222q-5 0 -8 4.5t-1 9.5l27 70v42zM440 242v278l-250 -278h250z" glyph-name="four" horiz-adv-x="709" unicode="4"/><glyph d="M259 587l-5 -109q46 7 97 7q181 0 288 -77q45 -32 71.5 -76t26.5 -96q0 -81 -64 -144q-69 -68 -191 -92q-61 -12 -131 -12q-68 0 -127 12q-122 25 -189 96q-3 3 -3 7.5t4 7.5l139 119q4 4 9.5 2.5t7.5 -6.5q35 -88 127 -122q84 -31 157 -3q70 27 78 78q8 44 -30 95 q-36 49 -97 81q-38 19 -75.5 25.5t-76.5 -3t-68 -38.5q-4 -5 -10 -3l-111 29l-4 2h-1q-5 0 -8 4t-2 9l73 314q2 8 10 8h533q5 0 8 -3t3 -8v-139q0 -5 -3.5 -8t-8.5 -3z" glyph-name="five" horiz-adv-x="769" unicode="5"/><glyph d="M216 453q83 39 192 39q42 0 80 -6q54 -8 99 -27q74 -30 117 -86t43 -133q0 -115 -101 -184q-78 -55 -189.5 -66t-200.5 24q-106 40 -166 134q-25 39 -40 85q-18 56 -18 117t18 119q35 108 122 173q97 72 235 72q49 0 103 -9q120 -18 180 -61q4 -3 4.5 -7.5t-2.5 -7.5 l-103 -107q-3 -4 -8 -3.5t-7 4.5q-28 37 -69.5 58.5t-88.5 26.5q-44 4 -86.5 -8t-71.5 -41q-42 -41 -42 -106zM250 290q-1 -36 17 -74q54 -100 137 -126q30 -11 64 -6.5t58 25.5q21 19 28.5 47t3.5 54.5t-16 53.5q-30 62 -92 99q-62 36 -119 25q-37 -8 -58.5 -34t-22.5 -64z " glyph-name="six" horiz-adv-x="779" unicode="6"/><glyph d="M66 15l334 570l-357 -40q-4 0 -7.5 3t-3.5 8v135q0 5 3 8t7 3h587q6 0 9 -5t0 -10l-324 -682q-3 -5 -9 -5h-230q-6 0 -9 5t0 10z" glyph-name="seven" horiz-adv-x="671" unicode="7"/><glyph d="M190 391q-43 23 -70.5 59t-27.5 80q0 76 78 128q83 56 224 56q145 0 231 -56q80 -52 80 -128q0 -45 -32 -85q-26 -32 -70 -55q72 -27 114 -72q48 -51 48 -112q0 -47 -26.5 -85.5t-68.5 -66.5q-103 -66 -277 -66q-169 0 -269 66q-41 28 -66.5 67t-25.5 85q0 61 46 112 q42 46 112 73zM441 441q41 2 61.5 28t3.5 64q-21 48 -80 73q-36 16 -70 14q-41 -2 -61.5 -28t-3.5 -64q21 -48 80 -73q35 -16 70 -14zM252 278q-17 -34 1 -76q19 -45 59.5 -74t89.5 -38q47 -9 86 1.5t56 35.5q21 33 0 83q-14 32 -43.5 58t-64.5 41q-48 20 -94 18 q-67 -4 -90 -49z" glyph-name="eight" horiz-adv-x="797" unicode="8"/><glyph d="M562 248q-82 -38 -192 -38q-41 0 -80 5q-53 8 -98 27q-74 30 -117 86t-43 133q0 68 34 121l1 1q108 130 303 131h1q9 0 15 -1q96 -2 174.5 -42.5t128.5 -117.5q25 -39 39 -84q18 -57 19 -117q0 -62 -19 -120q-34 -108 -122 -173q-96 -71 -235 -71q-49 0 -102 8 q-120 19 -181 61q-3 3 -3.5 7.5t2.5 8.5l102 106q3 4 8 3.5t8 -3.5q65 -80 157 -95q86 -14 145 35q57 46 55 129zM241 575q-22 -33 -21.5 -67.5t17.5 -69.5q30 -63 92 -99t119 -25q37 7 58.5 33t22.5 64q0 37 -18 75q-17 36 -48 65.5t-68 45.5q-50 21 -95 13q-38 -8 -59 -35 z" glyph-name="nine" horiz-adv-x="779" unicode="9"/><glyph d="M134 255q-42 0 -72 30t-30 72q0 37 24 65q30 37 78 37h1h1q47 0 78 -37q24 -28 24 -65q0 -42 -30 -72t-72 -30h-1h-1zM136 185q47 0 78 -36q24 -29 24 -66q0 -42 -30 -72t-72 -30h-1h-1q-42 0 -72 30t-30 72q0 37 24 66q30 36 78 36h1h1z" glyph-name="colon" horiz-adv-x="270" unicode=":"/><glyph d="M134 255q-42 0 -72 30t-30 72q0 37 24 65q30 37 78 37h1h1q47 0 78 -37q24 -28 24 -65q0 -42 -30 -72t-72 -30h-1h-1zM136 185q47 0 78 -36q24 -29 24 -66v-2q-1 -59 -43 -101t-101 -44q-6 0 -9 5.5t1 11.5q11 15 16 33q-31 11 -50.5 37.5t-19.5 59.5q0 37 24 66 q30 36 78 36h1h1z" glyph-name="semicolon" horiz-adv-x="270" unicode=";"/><glyph d="M376 406q0 -6 -5 -9l-230 -139l230 -139q5 -3 5 -9v-96q0 -6 -5.5 -9t-10.5 0l-323 196q-5 3 -5 9v96q0 6 5 9l323 196q5 3 10.5 0t5.5 -9v-96z" glyph-name="less" horiz-adv-x="408" unicode="&lt;"/><glyph d="M373 213q5 0 8 -3t3 -7v-82q0 -4 -3 -7t-8 -3h-331q-4 0 -7 3t-3 7v82q0 4 3 7t7 3h331zM373 405q5 0 8 -3t3 -7v-82q0 -4 -3 -7t-8 -3h-331q-4 0 -7 3t-3 7v82q0 4 3 7t7 3h331z" glyph-name="equal" horiz-adv-x="416" unicode="="/><glyph d="M371 315q5 -3 5 -9v-96q0 -6 -5 -9l-323 -196q-5 -3 -10.5 0t-5.5 9v96q0 6 5 9l230 139l-230 139q-5 3 -5 9v96q0 6 5.5 9t10.5 0z" glyph-name="greater" horiz-adv-x="408" unicode=">"/><glyph d="M326 185q42 0 72 -29.5t30 -72t-30 -72.5t-72 -30l-1 1l-1 -1q-42 0 -72 30t-30 72t30 72t72 30h1h1zM585 636q49 -56 45 -129q-5 -80 -75 -133q-51 -40 -129 -74v-98q0 -5 -4 -8.5t-9 -1.5l-170 46q-8 2 -8 10v131q0 7 6 9q67 29 98 47q56 31 98 72q33 33 24 59 q-7 18 -36 27q-32 10 -77 2q-114 -20 -222 -130q-4 -4 -9 -3.5t-7 5.5l-77 140q-4 9 4 14q157 93 297 93q156 0 229 -58q12 -9 22 -20z" glyph-name="question" horiz-adv-x="662" unicode="?"/><glyph d="M759 873q126 -42 218.5 -135.5t133.5 -218.5t20 -257q-11 -67 -46 -121t-92 -84q-49 -26 -104.5 -28t-105.5 21q-69 32 -100 103q-51 -47 -171 -53q-35 -2 -70 6q-81 20 -134 85q-56 69 -56 166q0 87 55 161t138 98q32 8 65 8q38 -1 80.5 -17.5t73.5 -41.5l140 38l26 8 q1 1 3 1h4q4 0 7 -3t3 -8v-305q0 -57 21 -91q17 -28 46 -35q47 -10 88 33q47 49 47 130t-18 143q-32 110 -111.5 193t-188.5 119q-74 23 -146.5 24t-142 -22.5t-127 -64t-102.5 -100.5t-68 -131q-23 -75 -24 -147t22.5 -141.5t64 -127t100.5 -102.5t131 -68 q95 -32 193.5 -21.5t184.5 59.5q9 5 14 -4l34 -59q2 -3 1 -7.5t-5 -6.5q-102 -59 -219.5 -71t-230.5 25q-85 29 -156.5 82t-119.5 122t-76 151.5t-27 168.5t28 175q28 85 81.5 156.5t122.5 119.5t151.5 76t168.5 27t175 -28zM619 233q20 17 28.5 47t8 58.5t-7.5 55.5 q-10 45 -34.5 84.5t-60.5 49.5q-18 5 -37 1q-8 -2 -15 -6q-32 -16 -45 -62q-14 -49 0 -111t48 -100q31 -35 67 -35q9 0 17 2q18 4 31 16z" glyph-name="at" horiz-adv-x="1170" unicode="@"/><glyph d="M492 189h-254l65 -175q2 -5 -1 -9.5t-9 -4.5h-251q-5 0 -8 4.5t-1 9.5l234 600l-20 72q-1 5 2 9t8 4h234q7 0 9 -7l265 -678q2 -5 -1 -9.5t-8 -4.5h-183q-7 0 -10 7zM353 543l-94 -241h189z" glyph-name="A" unicode="A"/><glyph d="M61 615l-28 70q-2 5 1 9.5t8 4.5h440q78 0 133.5 -55.5t55.5 -133.5q0 -46 -21 -87t-58 -67q44 -25 70.5 -69.5t26.5 -96.5q0 -78 -56 -134t-134 -56h-457q-5 0 -8 4.5t-1 9.5l28 70v531zM252 406h139q36 0 62.5 26.5t26.5 63.5t-26.5 63t-62.5 26h-139v-179zM252 293 v-179h156q37 0 63.5 26t26.5 63t-26.5 63.5t-63.5 26.5h-156z" glyph-name="B" horiz-adv-x="721" unicode="B"/><glyph d="M755.5 129q5.5 -7 -0.5 -13q-58 -67 -143 -100t-180 -33q-77 0 -143.5 20.5t-113 56t-79.5 82t-48.5 99.5t-15.5 108.5t15.5 108.5t48.5 100t79.5 82t113 55.5t143.5 20.5q86 0 164.5 -27t136.5 -82q3 -3 3 -8t-4 -8l-148 -125q-4 -3 -9 -2t-7 6q-43 80 -108 114 q-60 30 -118 12t-89 -78q-35 -68 -22 -167q12 -96 81 -164q81 -80 206 -95.5t224 40.5q8 4 13.5 -3z" glyph-name="C" horiz-adv-x="789" unicode="C"/><glyph d="M61 615l-28 70q-2 5 1 9.5t8 4.5h356q75 0 135 -30t97 -79t57 -112t20 -128.5t-20 -128.5t-57 -112t-97 -79t-135 -30h-356q-5 0 -8 4.5t-1 9.5l28 70v531zM252 583v-467h100q43 0 77.5 26t52 67t26 91t0 99.5t-26 90.5t-52 67t-77.5 26h-100z" glyph-name="D" horiz-adv-x="739" unicode="D"/><glyph d="M587 543l-335 41v-135h263q4 0 7 -3t3 -7v-134q0 -4 -3.5 -7.5t-7.5 -2.5l-262 37v-217l356 46q5 0 8.5 -3t3.5 -7v-141q0 -4 -3 -7t-8 -3h-567q-5 0 -8 4.5t-1 9.5l28 70v531l-28 70q-2 5 1 9.5t8 4.5h546q5 0 8 -3t3 -7v-136q0 -5 -3.5 -8t-8.5 -2z" glyph-name="E" horiz-adv-x="652" unicode="E"/><glyph d="M580 543l-328 41v-135h256q4 0 7 -3t3 -7v-141q0 -5 -3.5 -8t-8.5 -2l-254 43v-247l28 -70q2 -5 -1 -9.5t-9 -4.5h-228q-5 0 -8 4.5t-1 9.5l28 70v531l-28 70q-2 5 1 9.5t8 4.5h539q4 0 7 -3t3 -7v-136q0 -5 -3.5 -8t-7.5 -2z" glyph-name="F" horiz-adv-x="623" unicode="F"/><glyph d="M786 388l-28 -74v-327q0 -6 -5 -9t-10 -1l-46 23l-50 25q-28 -15 -59 -25h-1q-72 -24 -155 -24q-96 0 -174 31.5t-126 83t-74 117.5t-26.5 134.5t25.5 134.5t74 117.5t126.5 83t174.5 31.5q86 0 164.5 -27t136.5 -82q3 -3 3 -7.5t-4 -7.5l-148 -125q-4 -4 -9 -3t-7 6 q-43 80 -108 114q-60 30 -118 13q-58 -18 -89 -79q-35 -68 -22 -167q12 -96 81 -164q48 -47 115.5 -72.5t139.5 -25.5v232l-29 74q-2 5 1.5 9.5t8.5 4.5h228q6 0 9 -4.5t1 -9.5z" glyph-name="G" horiz-adv-x="818" unicode="G"/><glyph d="M728 685l-28 -70v-531l28 -70q2 -5 -1 -9.5t-9 -4.5h-228q-5 0 -8 4.5t-1 9.5l28 70v209h-257v-209l28 -70q2 -5 -1 -9.5t-9 -4.5h-228q-5 0 -8 4.5t-1 9.5l28 70v531l-28 70q-2 5 1 9.5t8 4.5h228q6 0 9 -4.5t1 -9.5l-28 -70v-209h257v209l-28 70q-2 5 1 9.5t8 4.5h228 q6 0 9 -4.5t1 -9.5z" glyph-name="H" horiz-adv-x="761" unicode="H"/><glyph d="M280 685l-28 -70v-531l28 -70q2 -5 -1 -9.5t-9 -4.5h-228q-5 0 -8 4.5t-1 9.5l28 70v531l-28 70q-2 5 1 9.5t8 4.5h228q6 0 9 -4.5t1 -9.5z" glyph-name="I" horiz-adv-x="313" unicode="I"/><glyph d="M92 10v605l-28 70q-2 5 1 9.5t8 4.5h228q6 0 9 -4.5t1 -9.5l-28 -70v-601q0 -29 -10 -55q-24 -62 -89 -101t-140 -51q-8 -1 -11 6t3 12q23 21 39.5 83t16.5 102z" glyph-name="J" horiz-adv-x="344" unicode="J"/><glyph d="M61 84v531l-28 70q-2 5 1 9.5t8 4.5h228q6 0 9 -4.5t1 -9.5l-28 -70v-197l179 276q3 5 8 5h194q7 0 9.5 -6t-1.5 -11l-255 -283l275 -383q4 -5 1 -10.5t-9 -5.5h-213q-6 0 -9 4l-179 250v-170l28 -70q2 -5 -1 -9.5t-9 -4.5h-228q-5 0 -8 4.5t-1 9.5z" glyph-name="K" horiz-adv-x="695" unicode="K"/><glyph d="M252 615v-499l310 67q5 1 9 -2t4 -8v-163q0 -4 -3.5 -7t-7.5 -3h-522q-5 0 -8 4.5t-1 9.5l28 70v531l-28 70q-2 5 1 9.5t8 4.5h228q6 0 9 -4.5t1 -9.5z" glyph-name="L" horiz-adv-x="607" unicode="L"/><glyph d="M298 693l150 -355l170 355q3 6 9 6h234q5 0 8 -4.5t1 -9.5l-28 -70v-531l28 -70q2 -5 -1 -9.5t-8 -4.5h-228q-6 0 -9 4.5t-1 9.5l28 70v417l-239 -507q-3 -7 -9.5 -6.5t-9.5 6.5l-207 484v-365l39 -99q2 -5 -1 -9.5t-8 -4.5h-174q-5 0 -8 4.5t-1 9.5l39 99v502l-28 70 q-2 5 1 9.5t9 4.5h234q7 0 10 -6z" glyph-name="M" horiz-adv-x="903" unicode="M"/><glyph d="M297 694l289 -486v379l-39 98q-2 5 1 9.5t8 4.5h174q5 0 8 -4.5t1 -9.5l-39 -98v-577q0 -4 -3 -7t-8 -3h-206q-5 0 -8 5l-289 486v-378l39 -99q2 -5 -1 -9.5t-8 -4.5h-174q-5 0 -8 4.5t-1 9.5l39 99v502l-28 70q-2 5 1 9.5t9 4.5h234q6 0 9 -5z" glyph-name="N" horiz-adv-x="772" unicode="N"/><glyph d="M417 -17q-75 0 -138.5 20.5t-108 56t-76.5 82t-47 99.5t-15 108.5t15 108.5t47 100t76.5 82t108 55.5t138.5 20.5q77 0 142.5 -20.5t111.5 -55.5t78.5 -82t48 -100t15.5 -108.5t-15.5 -108.5t-48 -99.5t-78.5 -82t-111.5 -56t-142.5 -20.5zM333 141q74 -76 153 -69 q26 2 48 14q55 29 78 105q24 79 2 174q-26 117 -102 194q-74 75 -153 68q-25 -2 -47 -14q-56 -29 -79 -105q-24 -79 -2 -174q26 -117 102 -193z" glyph-name="O" horiz-adv-x="834" unicode="O"/><glyph d="M252 187v-103l28 -70q2 -5 -1 -9.5t-9 -4.5h-228q-5 0 -8 4.5t-1 9.5l28 70v531l-28 70q-2 5 1 9.5t8 4.5h341q85 0 151.5 -28.5t100.5 -73.5t50 -99.5t0 -109t-50 -100t-100.5 -73.5t-151.5 -28h-131zM252 583v-280h85q50 0 87.5 20.5t54 52t16.5 67.5t-16.5 67t-54 52 t-87.5 21h-85z" glyph-name="P" horiz-adv-x="723" unicode="P"/><glyph d="M543 -1q-59 -16 -126 -16q-93 0 -168 31.5t-121 83t-71 117.5t-25 134.5t25 134.5t71 117.5t121 83t168 31.5q186 0 296 -113q48 -50 74 -115t26 -135q1 -79 -30 -151t-89 -124q48 -52 87 -114q5 -8 -2 -14l-177 -142q-5 -3 -10.5 -1t-6.5 8q-16 122 -42 184zM502 74 q-9 14 -19 24q-33 37 -81 40q-13 1 -28 -3t-19 -14q65 -55 131 -49zM231 334q14 -63 45 -117q158 66 325 -55q40 86 13 203q-26 117 -102 194q-74 75 -153 68q-25 -2 -48 -14q-55 -29 -78 -105q-24 -79 -2 -174z" glyph-name="Q" horiz-adv-x="845" unicode="Q"/><glyph d="M61 615l-28 70q-2 5 1 9.5t8 4.5h29h312q143 0 228 -76q78 -70 80 -172q3 -77 -41 -141q-43 -64 -121 -96l74 -117l58 -81q4 -5 1 -10.5t-9 -5.5h-213q-6 0 -9 5l-120 182h-59v-103l28 -70q2 -5 -1 -9.5t-9 -4.5h-228q-5 0 -8 4.5t-1 9.5l28 70v531zM252 583v-280h85 q50 0 87.5 20.5t54 52t16.5 67.5t-16.5 67t-54 52t-87.5 21h-85z" glyph-name="R" horiz-adv-x="724" unicode="R"/><glyph d="M640 639.5q1 -4.5 -1 -7.5l-100 -142q-3 -5 -9 -4.5t-8 5.5q-34 59 -89.5 101t-116.5 41q-36 0 -51 -25q-12 -20 -3 -47q11 -32 47 -56q26 -17 72 -41q14 -8 41.5 -22t41.5 -21q35 -19 58 -33t55 -36.5t53.5 -49t30.5 -54.5q6 -17 7 -34q5 -77 -60 -143q-86 -88 -278 -88 q-145 0 -293 92q-4 2 -5 6.5t2 8.5l97 137q3 4 8 4t8 -3q41 -46 102 -85q67 -43 127 -58q64 -16 96 7q10 7 16 18q7 12 2 31q-6 23 -28 45q-25 27 -69.5 53t-88 47t-86 44.5t-75 56t-45.5 71.5q-12 35 -7 72q10 74 77 124q83 62 214 62q69 0 128 -17t125 -52q4 -3 5 -7.5z " glyph-name="S" horiz-adv-x="700" unicode="S"/><glyph d="M439 84l29 -70q2 -5 -1 -9.5t-9 -4.5h-228q-6 0 -9 4.5t-1 9.5l28 70v498l-203 -66q-5 -2 -9 1.5t-4 8.5v163q0 4 3 7t7 3h604q4 0 7 -3t3 -7v-163q0 -5 -4.5 -8.5t-9.5 -1.5l-203 66v-498z" glyph-name="T" horiz-adv-x="688" unicode="T"/><glyph d="M280 685l-28 -70v-442q0 -32 24 -54.5t58.5 -27.5t69 0t58.5 27.5t24 54.5v442l-28 70q-2 5 1 9.5t8 4.5h228q6 0 9 -4.5t1 -9.5l-28 -70v-438q0 -47 -26.5 -85t-70 -61t-98.5 -35.5t-113 -12.5t-113.5 12.5t-98.5 35.5t-69.5 61t-26.5 85v438l-28 70q-2 5 1 9.5t8 4.5 h228q6 0 9 -4.5t1 -9.5z" glyph-name="U" horiz-adv-x="738" unicode="U"/><glyph d="M261 625l181 -462l113 528q2 8 10 8h191q5 0 8 -4.5t1 -9.5l-265 -678q-2 -7 -9 -7h-183q-7 0 -10 7l-265 678q-2 5 1 9.5t8 4.5h183h51q5 0 8 -4.5t1 -9.5z" glyph-name="V" unicode="V"/><glyph d="M260 621l160 -457l80 267l-91 254q-2 5 1 9.5t9 4.5h233q6 0 9 -4.5t1 -9.5l-20 -50l-6 -14l159 -454l98 524q2 8 10 8h191q6 0 9 -4.5t1 -9.5l-250 -678q-3 -7 -10 -7h-183q-7 0 -9 7l-86 239l-71 -238q-2 -8 -10 -8h-200q-7 0 -10 7l-242 678q-2 5 1 9.5t8 4.5h234 q5 0 8 -4.5t1 -9.5l-19 -50z" glyph-name="W" horiz-adv-x="1137" unicode="W"/><glyph d="M35 16l240 334l-241 333q-4 5 -1 10.5t9 5.5h211h1h58q6 0 9 -4.5t1 -9.5l-19 -48l135 -188l92 243q2 7 10 7h198q6 0 9 -5.5t-1 -10.5l-237 -333l238 -334q4 -5 1 -10.5t-9 -5.5h-269q-5 0 -8 4.5t-1 9.5l18 47l-133 190l-95 -244q-2 -7 -9 -7h-198q-7 0 -10 5.5t1 10.5 z" glyph-name="X" horiz-adv-x="781" unicode="X"/><glyph d="M295 300l-261 383q-4 5 -1 10.5t9 5.5h211h1h62q6 0 9 -4.5t1 -9.5l-19 -48l-3 -7l134 -203l92 265q2 7 10 7h198q6 0 9 -5.5t-1 -10.5l-260 -388v-211l28 -70q2 -5 -1 -9.5t-8 -4.5h-228q-6 0 -9 4.5t-1 9.5l28 70v216z" glyph-name="Y" horiz-adv-x="780" unicode="Y"/><glyph d="M587 560l-331 -443l321 39q5 1 8.5 -2t3.5 -8v-136q0 -4 -3 -7t-8 -3h-536q-4 0 -7 3t-3 7v123q0 3 2 6l330 443l-320 -39q-5 -1 -8.5 2t-3.5 8v136q0 4 3 7t7 3h536q5 0 8 -3t3 -7v-122q0 -4 -2 -7z" glyph-name="Z" horiz-adv-x="621" unicode="Z"/><glyph d="M240 795h-48v-895h48q4 0 7 -3t3 -7v-85q0 -4 -3 -7t-7 -3h-198q-4 0 -7 3t-3 7v1085q0 5 3 8t7 3h198q4 0 7 -3t3 -8v-84q0 -5 -3 -8t-7 -3z" glyph-name="bracketleft" horiz-adv-x="282" unicode="["/><glyph d="M386 14q1 -5 -2 -9.5t-8 -4.5h-101q-7 0 -9 7l-233 681q-2 5 1 9.5t8 4.5h101q7 0 10 -7z" glyph-name="backslash" horiz-adv-x="418" unicode="\"/><glyph d="M240 901q4 0 7 -3t3 -8v-1085q0 -4 -3 -7t-7 -3h-198q-4 0 -7 3t-3 7v85q0 4 3 7t7 3h48v895h-48q-4 0 -7 3t-3 8v84q0 5 3 8t7 3h198z" glyph-name="bracketright" horiz-adv-x="282" unicode="]"/><glyph d="M374 707q3 -6 0 -11t-9 -5h-95q-6 0 -9 5l-57 94l-57 -94q-3 -5 -9 -5h-96q-6 0 -9 5t1 11l113 187q3 5 9 5h96q5 0 8 -5z" glyph-name="asciicircum" horiz-adv-x="408" unicode="^"/><glyph d="M501 102q6 0 10 -3t4 -7v-82q0 -4 -4 -7t-10 -3h-455q-6 0 -10 3t-4 7v82q0 4 4 7t10 3h455z" glyph-name="underscore" horiz-adv-x="547" unicode="_"/><glyph d="M200 573q2 -4 0 -7.5t-6 -3.5h-77q-5 0 -9 7l-75 133q-2 4 0 8t6 4h110q7 0 9 -8z" glyph-name="grave" horiz-adv-x="233" unicode="`"/><glyph d="M570 84l28 -70q2 -5 -1 -9.5t-8 -4.5h-200q-4 0 -7 3t-3 7v31q-70 -53 -168 -53q-57 0 -102 23t-65 70q-19 53 -5.5 102t51.5 90q51 53 126.5 77.5t159.5 24.5h3q-2 36 -22 48q-19 12 -44 13.5t-48.5 -4.5t-49.5 -18t-45.5 -23.5t-38.5 -25.5q-4 -3 -8.5 -1.5t-6.5 5.5 l-44 91q-2 4 -0.5 8t5.5 6q38 16 88 26.5t105 14t108.5 -5.5t96 -29.5t69 -60.5t26.5 -95v-240zM379 205v83q-63 -7 -104 -54q-39 -46 -37 -95q2 -25 18 -36q18 -10 37.5 -7t37.5 14q48 32 48 95z" glyph-name="a" horiz-adv-x="631" unicode="a"/><glyph d="M67 84v485l-34 57q-2 4 -0.5 8.5t6.5 5.5l35 12h1l170 46q5 1 9 -2t4 -8v-233q57 52 145 57q35 2 69 -7q82 -19 134 -84q57 -70 57 -166q0 -88 -55 -162t-139 -97q-32 -9 -64 -8q-36 1 -76 15.5t-71 37.5v-31q0 -4 -3 -7t-7 -3h-199q-6 0 -9 4.5t-1 9.5zM459 150 q14 49 0 112q-15 62 -48 99q-32 36 -68 36q-8 0 -16 -2q-18 -4 -32 -16q-20 -17 -28.5 -47.5t-7.5 -58.5t7 -56q10 -44 34.5 -84t61.5 -50q18 -5 37 0q8 2 15 5q32 16 45 62z" glyph-name="b" horiz-adv-x="695" unicode="b"/><glyph d="M539.5 429.5q-0.5 -4.5 -3.5 -7.5l-118 -101q-4 -3 -9 -2t-7 6q-12 29 -27 52q-19 29 -45 50t-54 14q-33 -7 -50 -60q-18 -54 -8 -121q12 -76 57 -128t118 -63q17 -2 34 -2q62 0 112 28q8 4 13.5 -2.5t-0.5 -12.5q-77 -92 -231 -92q-125 0 -207 70t-82 192t82.5 192 t206.5 70q139 0 215 -75q4 -3 3.5 -7.5z" glyph-name="c" horiz-adv-x="587" unicode="c"/><glyph d="M433 459v110l-34 57q-3 4 -1 8.5t6 5.5l36 12l171 46q4 1 8 -2t4 -8v-604l28 -70q2 -5 -1 -9.5t-8 -4.5h-199q-4 0 -7 3t-3 7v40q-44 -42 -94 -55q-56 -15 -113 1q-84 23 -139 97t-55 162q0 96 56 166q53 65 134 84q35 9 70 7q85 -5 141 -53zM424 175q15 52 0 117 q-17 74 -62 111q-40 33 -79 21q-36 -10 -51 -52q-19 -50 -1 -127q15 -63 50 -103q34 -38 71 -37q6 0 13 2q5 1 11 4q34 15 48 64z" glyph-name="d" horiz-adv-x="684" unicode="d"/><glyph d="M239 184v-0.5v-1.5q16 -46 59 -75.5t95 -37.5q17 -2 34 -2q62 0 112 28q8 4 13.5 -2.5t-0.5 -12.5q-77 -92 -231 -92q-125 0 -207 70t-82 192t81.5 192t206.5 70q226 0 240 -218q1 -8 -7 -10l-35 -11l-111 -35zM219 257l162 51q2 24 -5 49q-10 40 -36.5 66.5t-63.5 17.5 q-3 0 -6 -2q-33 -13 -47 -66q-14 -51 -4 -116z" glyph-name="e" horiz-adv-x="592" unicode="e"/><glyph d="M186 572q16 -31 59 -72h135q4 0 7 -3t3 -7v-125q0 -6 -4.5 -9t-9.5 0l-124 53v-325l28 -70q2 -5 -1 -9.5t-9 -4.5h-228q-5 0 -8 4.5t-1 9.5l28 70v469q0 78 55 116.5t136 35.5q85 -3 134 -41q4 -3 4 -8v-122q0 -7 -6 -9.5t-10 1.5q-69 60 -129 80q-51 18 -63 1 q-8 -11 4 -35z" glyph-name="f" horiz-adv-x="422" unicode="f"/><glyph d="M551 -206q-4 0 -6 3q-1 1 -1.5 2t-0.5 2q0 3 1 5v1q19 26 0.5 43.5t-56.5 6.5q-60 -18 -140.5 -36.5t-122.5 -18.5q-135 -2 -180 92q-29 61 3.5 131t88.5 94q-42 29 -65.5 70.5t-27 84.5t14 86t51.5 76.5t92 54.5t131 21q80 0 144 -26q34 79 96 115q10 6 14 -4l57 -123 q3 -5 0.5 -9.5t-8.5 -4.5q-47 -5 -81 -23q57 -53 66 -126.5t-36 -136.5q-55 -78 -171 -102q-31 -7 -92.5 -8t-95.5 -9q-18 -4 -28.5 -15t-11.5 -24t4.5 -24.5t20.5 -17t35 -1.5q26 5 111.5 26.5t123.5 29.5q44 8 80 -2t57.5 -33.5t32.5 -55t7 -68t-21 -68.5q-4 -8 -18 -8h-4 h-64zM425 305q-16 60 -56 98q-38 36 -75 30q-42 -6 -55 -61q-11 -42 3 -93q16 -60 55 -98t78 -30t53 60q10 43 -3 94z" glyph-name="g" horiz-adv-x="691" unicode="g"/><glyph d="M356 14l28 70v263q0 30 -14 38q-19 10 -65 -16q-25 -14 -47 -32v-253l28 -70q2 -5 -1 -9.5t-8 -4.5h-228q-6 0 -9 4.5t-1 9.5l26 65v497l-32 53q-2 4 0 8.5t6 6.5l206 57q5 2 9 -1t4 -8v-255q45 36 73 51q44 24 104 24q65 -1 102.5 -39.5t37.5 -103.5v-285l28 -70 q2 -5 -1 -9.5t-8 -4.5h-228q-6 0 -9 4.5t-1 9.5z" glyph-name="h" horiz-adv-x="636" unicode="h"/><glyph d="M258 84l28 -70q2 -5 -1 -9.5t-8 -4.5h-228q-6 0 -9 4.5t-1 9.5l28 70v287l-34 56q-2 4 -0.5 8.5t6.5 6.5l35 11h1l170 46q5 2 9 -1t4 -8v-406zM57 633q0 42 29.5 72t72.5 30h1q43 0 72.5 -30t29.5 -72t-30 -72t-72 -30h-1h-1q-42 0 -71.5 30t-29.5 72z" glyph-name="i" horiz-adv-x="319" unicode="i"/><glyph d="M77 371l-34 56q-3 4 -1 8.5t6 6.5l36 11l170 46q5 2 9 -1t4 -8v-540q0 -65 -46.5 -104.5t-113.5 -44.5q-35 -2 -67 4q-6 2 -7.5 8t3.5 10q40 34 41 89v1v55v1v402zM276 633q0 -42 -30 -72t-72 -30h-1h-1q-42 0 -72 30t-30 72t30 72t72 30h1h1q42 0 72 -30t30 -72z" glyph-name="j" horiz-adv-x="308" unicode="j"/><glyph d="M258 688v-380l121 187q3 5 9 5h158q7 0 9.5 -6.5t-2.5 -10.5l-183 -183l204 -284q3 -5 0.5 -10.5t-8.5 -5.5h-178q-5 0 -8 4l-122 169v-89l28 -70q2 -5 -1 -9.5t-8 -4.5h-228q-6 0 -9 4.5t-1 9.5l28 70v485l-34 57q-2 4 -0.5 8.5t6.5 5.5l35 12h1l170 46q5 1 9 -2t4 -8z " glyph-name="k" horiz-adv-x="608" unicode="k"/><glyph d="M258 688v-604l28 -70q2 -5 -1 -9.5t-8 -4.5h-228q-6 0 -9 4.5t-1 9.5l28 70v485l-34 57q-2 4 -0.5 8.5t6.5 5.5l35 12h1l170 46q5 1 9 -2t4 -8z" glyph-name="l" horiz-adv-x="319" unicode="l"/><glyph d="M344 14l28 70v263q0 34 -14 40q-17 8 -57 -18q-20 -12 -43 -32q0 -41 -0.5 -125.5t-0.5 -127.5l28 -70q2 -5 -1 -9.5t-8 -4.5h-225q-6 0 -9 4.5t-1 9.5l28 70v296l-35 46q-3 4 -1.5 9t6.5 7l35 11h1l170 46q5 2 9 -1t4 -8v-53q40 33 54 43q47 33 113 32q46 -1 79.5 -22.5 t48.5 -61.5q52 43 65 52q48 33 114 32q47 -1 81 -24q56 -38 56 -119v-295l24 -60q2 -5 -1 -9.5t-8 -4.5h-224q-6 0 -9 4.5t-1 9.5l29 70v263q0 34 -15 40q-17 8 -57 -18q-20 -13 -44 -33v-262l24 -60q2 -5 -1 -9.5t-9 -4.5h-224q-5 0 -8 4.5t-1 9.5z" glyph-name="m" horiz-adv-x="926" unicode="m"/><glyph d="M356 14l28 70v263q0 30 -14 38q-19 10 -65 -16q-25 -14 -47 -32v-253l28 -70q2 -5 -1 -9.5t-8 -4.5h-228q-6 0 -9 4.5t-1 9.5l26 65v295l-32 53q-2 4 0 9t6 6l206 57q5 2 9 -1t4 -8v-53q46 36 73 51q44 24 104 24q65 -1 102.5 -39.5t37.5 -103.5v-285l28 -70 q2 -5 -1 -9.5t-8 -4.5h-228q-6 0 -9 4.5t-1 9.5z" glyph-name="n" horiz-adv-x="636" unicode="n"/><glyph d="M321 -12q-125 0 -207 70t-82 192t82.5 192t206.5 70q125 0 207.5 -69.5t82.5 -192.5q0 -122 -82.5 -192t-207.5 -70zM356 403q-41 47 -79.5 38t-54.5 -69q-16 -64 3 -145t62 -131q41 -47 79.5 -38t54.5 70q16 64 -3 145t-62 130z" glyph-name="o" horiz-adv-x="643" unicode="o"/><glyph d="M258 41v-111l34 -56q2 -4 0.5 -8.5t-6.5 -6.5l-35 -11l-171 -46q-5 -2 -9 1t-4 8v560l-34 56q-2 4 -0.5 8.5t6.5 6.5l35 11h1l158 43l7 3q2 1 4 1h4q4 0 7 -3t3 -7v-40q43 42 93 55q57 15 114 -1q84 -24 139 -98t55 -161q0 -96 -57 -166q-52 -65 -134 -85q-34 -8 -69 -6 q-85 5 -141 53zM267 325q-15 -52 -1 -117q18 -75 63 -111q39 -33 79 -21q36 10 51 52q18 50 1 126q-15 64 -51 104q-33 38 -70 37q-7 0 -13 -2q-6 -1 -11 -4q-34 -15 -48 -64z" glyph-name="p" horiz-adv-x="691" unicode="p"/><glyph d="M627 -70l34 -56q3 -4 1 -8.5t-6 -6.5l-36 -11l-170 -46q-5 -2 -9 1t-4 8v234q-57 -52 -145 -57q-35 -2 -70 6q-81 20 -134 85q-56 70 -56 166q0 87 55 161t139 98q32 9 64 8q38 -1 81 -17.5t73 -41.5l140 38l26 8q2 1 3 1h4q4 0 7 -3t3 -7v-560zM236 350q-14 -49 0 -112 q14 -62 48 -100q32 -35 68 -35q8 0 16 2q18 4 32 16q19 17 28 47.5t8 58.5t-7 56q-10 44 -35 84t-61 50q-18 5 -37 0q-8 -2 -15 -5q-32 -17 -45 -62z" glyph-name="q" horiz-adv-x="695" unicode="q"/><glyph d="M39 14l28 70v287l-34 56q-2 4 -0.5 8.5t6.5 6.5l35 11h1l170 46q5 2 9 -1t4 -8v-36q35 32 80 48q51 18 93 5q7 -2 7 -10v-151q0 -7 -6 -9.5t-11 2.5q-39 41 -98 30q-22 -4 -41 -16t-23 -30q-1 -4 -1 -8v-231l28 -70q2 -5 -1 -9.5t-8 -4.5h-228q-6 0 -9 4.5t-1 9.5z" glyph-name="r" horiz-adv-x="470" unicode="r"/><glyph d="M476 459.5q1 -4.5 -2 -7.5l-71 -103q-3 -3 -8 -3.5t-8 2.5l-5 5q-25 24 -41 38.5t-43.5 31.5t-48.5 17q-34 -1 -34 -22.5t26 -39.5q17 -11 55 -28q58 -27 69 -32q58 -29 92 -65.5t34 -90.5q0 -48 -21.5 -83.5t-58 -54.5t-77.5 -27.5t-86 -8.5q-111 0 -211 62q-4 2 -5 6 t2 8l79 111q2 4 7 4.5t8 -3.5q28 -27 39.5 -38t36 -31t45.5 -31q17 -9 38 -12q13 -1 27 -1t25.5 7.5t11.5 21.5q0 20 -44 46q-17 9 -49 25q-48 23 -56 27q-30 15 -51 29q-44 27 -64 55q-15 21 -20 46q-10 53 22 105q17 28 42 47q54 40 156 40q100 0 184 -46q4 -2 5 -6.5z " glyph-name="s" horiz-adv-x="523" unicode="s"/><glyph d="M67 131v438l-34 57q-2 4 -0.5 8.5t6.5 5.5l35 12h1l170 46q5 1 9 -2t4 -8v-188h129q4 0 7 -3t3 -7v-125q0 -6 -4.5 -9t-9.5 0l-125 53v-243q0 -40 19.5 -57t47 -10.5t55.5 30.5q5 4 11 1.5t6 -9.5v-74q0 -5 -4 -8q-38 -30 -79.5 -42t-97.5 -12q-72 0 -110.5 37t-38.5 109 z" glyph-name="t" horiz-adv-x="429" unicode="t"/><glyph d="M258 178v-25q0 -30 14 -38q20 -10 66 16q31 17 48 32v208l-34 56q-2 4 -0.5 8.5t6.5 6.5l35 11h1l170 46q5 2 9 -1t4 -8v-406l28 -70q2 -5 -1 -9.5t-8 -4.5h-202q-4 0 -7 3t-3 7v53q-45 -36 -73 -51q-42 -24 -101 -24q-66 0 -104.5 38.5t-38.5 104.5v240l-34 56 q-2 4 -0.5 8.5t6.5 6.5l35 11h1l170 46q5 2 9 -1t4 -8v-157v-155z" glyph-name="u" horiz-adv-x="638" unicode="u"/><glyph d="M263 452q99 -230 115 -265l45 304q1 9 10 9h166q5 0 8 -4.5t1 -9.5l-210 -480q-2 -6 -9 -6h-125q-6 0 -9 6l-222 479q-2 5 1 10t8 5h209q7 0 10 -6q3 -7 1 -21t1 -21z" glyph-name="v" horiz-adv-x="641" unicode="v"/><glyph d="M263 452q107 -246 120 -275l72 183l-58 125q-2 5 1 10t8 5h193q7 0 9 -6q11 -25 59.5 -136.5t74.5 -170.5l45 304q1 9 10 9h166q5 0 8 -4.5t1 -9.5l-210 -480q-2 -6 -9 -6h-125q-6 0 -9 6l-113 245l-108 -245q-2 -6 -9 -6h-125q-6 0 -9 6l-222 479q-2 5 1 10t8 5h209 q7 0 10 -6q2 -6 0.5 -21.5t1.5 -20.5z" glyph-name="w" horiz-adv-x="1005" unicode="w"/><glyph d="M35 17l207 233l-207 233q-5 5 -2 11t9 6h244q4 0 7 -4l19 -44l112 -128l60 169q3 7 10 7h192q6 0 9 -6t-2 -11l-204 -233l204 -233q4 -5 1.5 -11t-8.5 -6h-223q-5 0 -8 4l-9 10l-139 162l-64 -169q-2 -7 -9 -7h-192q-6 0 -9 6t2 11z" glyph-name="x" horiz-adv-x="728" unicode="x"/><glyph d="M246 452l124 -287l53 326q1 9 10 9h166q5 0 8 -4.5t1 -9.5l-257 -588q-24 -56 -63.5 -78.5t-105.5 -20.5q-22 1 -64 11.5t-56 20.5q-6 4 -4 11l40 121l6 20q2 5 7 6.5t9 -1.5q1 -2 4 -4q100 -101 135 -72q7 5 10.5 11t4.5 13.5t1 13t-3.5 15t-5 13.5t-6 14t-5.5 13 q-16 38 -43 96.5t-54.5 116.5t-29.5 62l-95 205q-2 5 1 10t8 5h197q10 0 9 -6z" glyph-name="y" horiz-adv-x="641" unicode="y"/><glyph d="M34 16q153 216 270 392l-226 -62q-5 -1 -9 2t-4 8v134q0 4 3 7t8 3h496q6 0 9 -5.5t-1 -10.5l-269 -393l258 63q5 1 9 -2t4 -8v-134q0 -4 -3 -7t-7 -3h-530q-6 0 -9 5.5t1 10.5z" glyph-name="z" horiz-adv-x="614" unicode="z"/><glyph d="M236 799v-377q0 -39 -22 -71q22 -32 22 -71v-376h47q5 0 8 -3t3 -8v-84q0 -5 -3 -8t-8 -3h-88q-50 0 -84.5 37t-34.5 87v357q0 8 -5.5 13.5t-13.5 5.5h-15q-4 0 -7 3t-3 8v84q0 5 3 8t7 3h15q8 0 13.5 6t5.5 14v356q0 51 34.5 87.5t84.5 36.5h88q5 0 8 -3t3 -7v-85 q0 -4 -3 -7t-8 -3h-47z" glyph-name="braceleft" horiz-adv-x="326" unicode="{"/><glyph d="M124 904q4 0 7 -3t3 -7v-1077q0 -5 -3 -8t-7 -3h-82q-4 0 -7 3t-3 8v1077q0 4 3 7t7 3h82z" glyph-name="bar" horiz-adv-x="166" unicode="|"/><glyph d="M283 404q5 0 8 -3t3 -8v-84q0 -5 -3 -8t-7 -3h-15q-8 0 -13.5 -5.5t-5.5 -13.5v-357q0 -50 -34.5 -87t-84.5 -37h-89q-4 0 -7 3t-3 8v84q0 5 3 8t7 3h48v376q0 39 22 71q-22 32 -22 71v377h-48q-4 0 -7 3t-3 7v85q0 4 3 7t7 3h89q50 0 84.5 -36.5t34.5 -87.5v-356 q0 -8 5.5 -14t13.5 -6h14z" glyph-name="braceright" horiz-adv-x="326" unicode="}"/><glyph d="M413 326.5q6 -2.5 6 -9.5v-102q0 -5 -5 -8q-10 -8 -19 -12q-30 -16 -68 -18q-27 -1 -52 4q-13 3 -32 11q-19 7 -45 18q-48 22 -80 21q-25 -2 -47 -15q-9 -5 -22 -16q-5 -5 -11 -2t-6 9v102q0 6 4 9q39 26 88 29q28 1 58 -6q14 -3 35 -11q20 -7 47 -19q29 -12 43 -15 q13 -3 27 -2q25 1 53 20q8 5 15 11q5 4 11 1.5z" glyph-name="asciitilde" horiz-adv-x="451" unicode="~"/><glyph glyph-name="uni00A0" horiz-adv-x="382" unicode=" "/><glyph d="M161 514q-42 -1 -72 29t-30 72.5t30 72t72 29.5h1h1q42 0 72 -29.5t30 -72t-30 -72t-72 -29.5h-1h-1zM280 14q2 -5 -1 -9.5t-9 -4.5h-228q-5 0 -8 4.5t-1 9.5l28 70v413q0 5 4 8.5t9 1.5l170 -46q8 -2 8 -10v-367z" glyph-name="exclamdown" horiz-adv-x="313" unicode="¡"/><glyph d="M552.5 89.5q5.5 -6.5 0.5 -13.5q-78 -91 -232 -91q-45 0 -87 10l-31 -92q-3 -7 -10 -7h-66q-6 0 -9 4t-1 9l39 116q-61 34 -92.5 92t-31.5 130q0 122 82.5 192t206.5 70h1l28 82q2 7 10 7h66q5 0 8 -4.5t2 -9.5l-29 -84q79 -17 130 -66q3 -3 3 -7.5t-4 -7.5l-118 -101 q-4 -3 -9 -2t-7 6q-12 29 -27 52q-3 6 -7 11l-89 -260q45 -49 114 -59q17 -2 35 -2q61 0 112 28q7 4 12.5 -2.5zM225 225l73 213q-11 2 -21 0q-23 -5 -37.5 -30.5t-19.5 -54.5q-13 -62 5 -128z" glyph-name="cent" horiz-adv-x="587" unicode="¢"/><glyph d="M701 146l62 -113q2 -5 0 -9.5t-6 -5.5q-60 -19 -93 -25q-81 -14 -181 10q-87 20 -111 23q-62 8 -128 -2.5t-122 -37.5q-9 -5 -14 4l-44 81q-2 4 -0.5 8t5.5 6q105 42 134 121h-161q-4 0 -7 3.5t-3 7.5v81q0 5 3 8t7 3h161l-31 81q-1 1 -2 4t-1 4h-127q-4 0 -7 3t-3 7v82 q0 4 3 7t7 3h100q-10 110 103 172q67 37 155 44t161 -14q132 -35 202 -134q5 -8 -2 -14l-149 -125q-4 -3 -8.5 -2t-7.5 6q-46 98 -126 145q-17 11 -35.5 17.5t-41 8.5t-37.5 -9q-37 -24 -28 -95h194q4 0 7 -3t3 -7v-82q0 -4 -3 -7t-7 -3h-165v-1l28 -85q1 -1 1 -3h136 q4 0 7 -3t3 -8v-81q0 -4 -3 -7.5t-7 -3.5h-139q-18 -42 -60 -82q21 3 41 3q26 0 66 -4q72 -7 108 -5q68 4 150 33q9 3 13 -5z" glyph-name="sterling" horiz-adv-x="797" unicode="£"/><glyph d="M576 131l76 -76q7 -7 0 -14l-53 -53q-7 -7 -15 0l-82 83q-69 -37 -159 -37q-89 0 -158 37l-83 -83q-7 -7 -14 0l-53 53q-7 7 0 14l75 76q-56 67 -56 166q0 98 56 165l-75 76q-7 7 0 14l53 53q7 7 14 0l83 -83q69 37 158 37t159 -37l82 83q8 7 15 0l53 -53q7 -7 0 -14 l-75 -76q56 -67 56 -165q0 -99 -57 -166zM442 174q17 64 -2 145t-63 131q-41 47 -79 38q-3 -1 -7 -2q-23 -10 -38 -42q-15 -34 -16 -82v-2q-1 -42 10 -86q19 -81 62 -131q41 -47 79 -38t54 69z" glyph-name="currency" horiz-adv-x="687" unicode="¤"/><glyph d="M747 693.5q3 -5.5 -1 -10.5l-191 -285h75q4 0 7 -3t3 -8v-81q0 -5 -3 -8t-7 -3h-144v-89h144q4 0 7 -3t3 -7v-82q0 -4 -3 -7t-7 -3h-144v-20l28 -70q2 -5 -1 -9.5t-8 -4.5h-228q-6 0 -9 4.5t-1 9.5l28 70v20h-145q-4 0 -7 3t-3 7v82q0 4 3 7t7 3h145v89h-145q-4 0 -7 3 t-3 8v81q0 5 3 8t7 3h78l-194 285q-4 5 -1 10.5t9 5.5h211q6 0 9 -5l176 -267l92 265q2 7 10 7h198q6 0 9 -5.5z" glyph-name="yen" horiz-adv-x="780" unicode="¥"/><glyph d="M124 231q4 0 7 -3t3 -8v-403q0 -5 -3 -8t-7 -3h-82q-4 0 -7 3t-3 8v403q0 5 3 8t7 3h82zM124 904q4 0 7 -3t3 -7v-404q0 -4 -3 -7t-7 -3h-82q-4 0 -7 3t-3 7v404q0 4 3 7t7 3h82z" glyph-name="brokenbar" horiz-adv-x="166" unicode="¦"/><glyph d="M524 201q138 -82 144 -173q5 -78 -60 -144q-86 -87 -278 -87q-145 0 -293 91q-4 3 -5 7.5t2 7.5l97 137q3 4 7.5 4.5t7.5 -2.5q113 -96 227 -113q46 -7 77 1q27 8 33 24q7 19 -20 46q-25 24 -78 53q-20 11 -57.5 30.5t-44.5 22.5q-110 57 -152 108q-23 28 -33 57 q-14 44 -4 89q16 64 74 107q30 23 68 38q-114 65 -138 139q-12 36 -7 73q10 74 77 123q83 62 214 62q69 0 128 -17t125 -52q4 -2 5 -6.5t-1 -8.5l-100 -142q-3 -5 -9 -4.5t-8 5.5q-26 46 -66.5 77t-90.5 39q-39 6 -69 -4q-28 -10 -34 -28q-10 -31 47 -69q26 -18 72 -42 q14 -7 41.5 -21.5t41.5 -21.5q35 -18 58 -32t55 -37t53.5 -49t30.5 -55q6 -16 7 -33q5 -78 -60 -144q-35 -35 -84 -56zM483 327q9 25 -23 49t-72.5 35.5t-62.5 10.5q-20 -2 -39 -10t-24 -24q-8 -25 11 -44.5t50.5 -28.5t61 -13t45.5 -2q45 4 53 27z" glyph-name="section" horiz-adv-x="700" unicode="§"/><glyph d="M113 702q36 0 60 -29q19 -21 19 -50q0 -33 -23.5 -56t-56.5 -23h-1q-33 0 -56 23t-23 56q0 29 18 50q24 29 61 29h1h1zM371 673q18 -21 18 -50q0 -33 -23 -56t-56 -23h-1q-33 0 -56 23t-23 56q0 28 18 50q24 29 61 29h1q37 0 61 -29z" glyph-name="dieresis" horiz-adv-x="421" unicode="¨"/><glyph d="M474 516q8 4 13.5 -3t-0.5 -13q-52 -61 -148 -61q-58 0 -101 25t-62.5 62.5t-19.5 81t19.5 81t62.5 62.5t101 25q85 0 138 -50q3 -3 3 -8t-4 -8l-66 -55q-3 -3 -8 -2t-7 5q-19 34 -46 48q-25 13 -48 5q-24 -7 -36 -32q-15 -28 -9 -70q4 -36 28 -62.5t55.5 -38.5t68 -10.5 t66.5 18.5zM344 919q129 0 220 -91.5t91 -220.5t-91 -220t-220 -91t-220.5 91t-91.5 220t91.5 220.5t220.5 91.5zM508.5 442.5q68.5 68.5 68.5 165t-68.5 165t-165 68.5t-165 -68.5t-68.5 -165t68.5 -165t165 -68.5t165 68.5z" glyph-name="copyright" horiz-adv-x="687" unicode="©"/><glyph d="M472 325q2 -5 -1 -9.5t-9 -4.5h-136q-4 0 -7 3t-3 8v20q-60 -40 -149 -40q-42 0 -75.5 16t-49.5 50q-16 44 -4.5 83.5t43.5 72.5q81 85 234 85q-2 22 -15 31q-30 21 -109 -13q-43 -19 -78 -44q-4 -3 -9 -2t-7 6l-41 85q-2 4 -0.5 8.5t5.5 5.5q69 30 181 30 q208 0 208 -149v-187zM316 474v62q-50 -6 -88 -42q-39 -37 -37 -72q1 -14 9 -22q15 -10 33 -9t35 9q48 23 48 74z" glyph-name="ordfeminine" horiz-adv-x="504" unicode="ª"/><glyph d="M161 351l166 -336q3 -5 -0.5 -10t-8.5 -5h-174q-8 0 -10 7l-102 341v6l102 340q2 8 10 8h174q5 0 8.5 -5t0.5 -10zM411 351l166 -336q2 -5 -1 -10t-9 -5h-173q-8 0 -10 7l-102 341q-1 3 0 6l102 340q2 8 10 8h173q6 0 9 -5t1 -10z" glyph-name="guillemotleft" horiz-adv-x="610" unicode="«"/><glyph d="M504 483q4 0 7 -3t3 -7v-249q0 -4 -3 -7t-7 -3h-82q-4 0 -7 3t-3 7v157h-370q-4 0 -7 3t-3 7v82q0 4 3 7t7 3h462z" glyph-name="logicalnot" horiz-adv-x="546" unicode="¬"/><glyph glyph-name="uni00AD" horiz-adv-x="0" unicode="­"/><glyph d="M504 653q1 -36 -18 -64.5t-51 -43.5l29 -46l26 -36q3 -5 0.5 -11t-9.5 -6h-95q-5 0 -8 5l-52 78h-17v-38l12 -30q2 -5 -1 -10t-9 -5h-101q-5 0 -8.5 5t-1.5 10l13 30v233l-13 30q-2 5 1.5 9.5t8.5 4.5h151q66 0 105 -35q37 -33 38 -80zM341 592q30 0 47.5 18t17.5 39 t-17.5 38.5t-47.5 17.5h-32v-113h32zM344 919q129 0 220 -91.5t91 -220.5t-91 -220t-220 -91t-220.5 91t-91.5 220t91.5 220.5t220.5 91.5zM508.5 442.5q68.5 68.5 68.5 165t-68.5 165t-165 68.5t-165 -68.5t-68.5 -165t68.5 -165t165 -68.5t165 68.5z" glyph-name="registered" horiz-adv-x="687" unicode="®"/><glyph d="M504 702q4 0 7 -3t3 -7v-82q0 -4 -3 -7t-7 -3h-462q-4 0 -7 3t-3 7v82q0 4 3 7t7 3h462z" glyph-name="macron" horiz-adv-x="546" unicode="¯"/><glyph d="M359 636q27 -45 28 -99.5t-25.5 -102t-75.5 -69.5q-35 -16 -79 -16q-43 0 -77 16q-38 18 -62 52q-36 50 -36 116t36 116q49 68 139 68q103 0 152 -81zM266 474q7 28 -1 63q-9 41 -34 68q-23 24 -45 22q-5 0 -10 -2q-16 -8 -23 -34q-7 -27 1 -62q9 -41 34 -68 q23 -25 45 -22q5 0 9 2q17 8 24 33z" glyph-name="degree" horiz-adv-x="419" unicode="°"/><glyph d="M395 102q4 0 7 -3t3 -7v-82q0 -4 -3 -7t-7 -3h-331q-5 0 -8 3t-3 7v82q0 4 3 7t8 3h331zM416 373q4 0 7 -3t3 -7v-81q0 -5 -3 -8t-7 -3h-136v-135q0 -5 -3 -8t-7 -3h-82q-4 0 -7 3t-3 8v135h-136q-4 0 -7 3t-3 8v81q0 4 3 7t7 3h136v136q0 4 3 7t7 3h82q4 0 7 -3t3 -7 v-136h136z" glyph-name="plusminus" horiz-adv-x="458" unicode="±"/><glyph d="M374 424q5 1 8.5 -2.5t3.5 -8.5l-3 -98q-1 -10 -11 -10h-330q-4 0 -7 3t-3 8l1 42q4 98 59 140q19 15 58 32q47 20 64 30q42 24 60 48q14 17 9 27q-3 6 -15 8q-16 3 -39 -3q-60 -14 -133 -72q-4 -3 -8.5 -2t-7.5 5l-43 79q-5 9 4 14q90 53 170 53q90 0 132 -33 q39 -31 43 -83q4 -57 -41 -92q-35 -26 -134 -58q-20 -7 -31.5 -11.5t-26.5 -12.5t-24.5 -19.5t-13.5 -26.5z" glyph-name="uni00B2" horiz-adv-x="418" unicode="²"/><glyph d="M416 448q2 -32 -14 -63t-47 -54q-42 -30 -124 -33h-27h-1q-80 4 -166 53q-4 2 -5 6.5t2 7.5l51 85q3 4 7.5 4.5t8.5 -2.5q76 -71 135 -85q45 -11 62 13q19 27 -9 68q-35 50 -114 70q-6 2 -7.5 8t3.5 10l99 92l-204 -19q-5 0 -8 3t-3 7v79q0 5 3 8t7 3h320q5 0 8 -3t3 -8 v-55q0 -4 -4 -7l-72 -68q41 -17 67.5 -47.5t28.5 -72.5z" glyph-name="uni00B3" horiz-adv-x="448" unicode="³"/><glyph d="M200 710q2 -4 0 -8l-75 -134q-4 -6 -9 -6h-78q-3 0 -5 3.5t0 7.5l42 133q2 8 9 8h110q4 0 6 -4z" glyph-name="acute" horiz-adv-x="233" unicode="´"/><glyph d="M839 -118l29 -70q2 -5 -1.5 -9.5t-8.5 -4.5h-228q-6 0 -9 4.5t-1 9.5l28 70v799h-87v-799l29 -70q2 -5 -1.5 -9.5t-8.5 -4.5h-228q-6 0 -9 4.5t-1 9.5l28 70v509h-30q-98 0 -170 38t-104.5 95t-32.5 123.5t32.5 123.5t104.5 95t170 38h518q5 0 8.5 -4.5t1.5 -9.5l-29 -71 v-937z" glyph-name="paragraph" horiz-adv-x="900" unicode="¶"/><glyph d="M254 363q29 -35 29 -80q0 -52 -36.5 -88.5t-87.5 -36.5h-1h-2q-51 0 -87.5 36.5t-36.5 88.5q0 45 29 80q37 44 95 44h2h1q58 0 95 -44z" glyph-name="periodcentered" horiz-adv-x="315" unicode="·"/><glyph d="M372 -41q5 -16 5 -32t-5 -31q-13 -47 -61 -76q-47 -29 -106.5 -29t-106.5 29q-48 30 -62 76q-4 15 -4 31v11q0 4 3 7t7 3h98q8 0 10 -8l2 -8q5 -24 23 -41q0 -1 1 -1q11 -12 23 -18q20 -9 36 -4q18 5 23 27q3 13 -2 31v1q-5 17 -18 32t-29 23q-6 3 -10 4l-8 3q-7 2 -7 10 v54q0 4 3 7t7 3h10q60 0 107 -28q48 -30 61 -76z" glyph-name="cedilla" horiz-adv-x="409" unicode="¸"/><glyph d="M204 319q2 -5 -1 -9.5t-9 -4.5h-125q-5 0 -8.5 4.5t-1.5 9.5l16 39v255h-33q-6 0 -9 6t2 11l73 76q3 3 7 3l63 1q5 1 8 -2t3 -8v-342z" glyph-name="uni00B9" horiz-adv-x="237" unicode="¹"/><glyph d="M412 623q32 -54 32 -121q0 -66 -32 -120q-31 -51 -84 -75q-42 -19 -93 -19q-50 0 -90 19q-58 27 -88 87t-25 126.5t42 117.5q56 79 161 79q120 0 177 -94zM325 425q11 39 -1 87q-12 55 -46 92q-35 37 -71 34q-9 -1 -17 -5q-28 -13 -39 -53q-10 -39 1 -87q13 -55 46 -92 q35 -37 71 -34q9 1 18 5q27 13 38 53z" glyph-name="ordmasculine" horiz-adv-x="476" unicode="º"/><glyph d="M328 354q1 -3 0 -6l-102 -341q-2 -7 -10 -7h-174q-5 0 -8 5t-1 10l166 336l-166 336q-2 5 1 10t8 5h174q8 0 10 -8zM577 354q1 -3 0 -6l-102 -341q-2 -7 -9 -7h-174q-6 0 -9 5t0 10l166 336l-166 336q-3 5 0 10t9 5h174q7 0 9 -8z" glyph-name="guillemotright" horiz-adv-x="610" unicode="»"/><glyph d="M563 697q3 -5 0 -11l-393 -681q-3 -5 -9 -5h-104q-6 0 -9 5t0 10l393 682q3 5 9 5h104q6 0 9 -5zM663 131q5 0 8 -3t3 -8v-47q0 -4 -3 -7t-8 -3h-14v-15l13 -34q2 -5 -1 -9.5t-9 -4.5h-110q-6 0 -9 4.5t-1 9.5l13 34v15h-192q-4 0 -7.5 3t-3.5 7v47q0 4 2 7l171 228 q3 5 8 5h115q5 0 8 -3.5t3 -7.5v-218h14zM545 131v119l-107 -119h107zM69 390v223h-27q-7 0 -9.5 6.5t2.5 11.5l65 66q3 3 7 3l55 2q4 0 7.5 -3t3.5 -7v-302l13 -34q2 -5 -1 -9.5t-9 -4.5h-110q-6 0 -9 4.5t-1 9.5z" glyph-name="onequarter" horiz-adv-x="706" unicode="¼"/><glyph d="M563 697q3 -5 0 -11l-393 -681q-3 -5 -9 -5h-104q-6 0 -9 5t0 10l393 682q3 5 9 5h104q6 0 9 -5zM703 107q5 1 8.5 -2.5t3.5 -8.5l-3 -86q0 -10 -10 -10h-291q-4 0 -7 3t-3 7l1 38q3 86 52 124q17 13 52 28q41 18 56 27q37 21 53 41q11 15 7 23q-2 5 -12 7q-14 2 -34 -3 q-52 -13 -117 -64q-3 -3 -8 -2t-7 6l-38 69q-5 9 4 14q79 47 150 47q79 0 117 -29q35 -28 38 -74q4 -51 -36 -82q-31 -24 -119 -52q-23 -7 -35.5 -12.5t-27.5 -17.5t-20 -29zM69 390v223h-27q-6 0 -9 6.5t2 11.5l65 66q3 3 7 3l55 2q4 0 7.5 -3t3.5 -7v-302l13 -34 q2 -5 -1 -9.5t-9 -4.5h-110q-6 0 -9 4.5t-1 9.5z" glyph-name="onehalf" horiz-adv-x="747" unicode="½"/><glyph d="M777 131q4 0 7 -3t3 -8v-47q0 -4 -3 -7t-7 -3h-15v-15l14 -34q2 -5 -1 -9.5t-9 -4.5h-110q-6 0 -9 4.5t-1 9.5l13 34v15h-192q-5 0 -8 3t-3 7v47q0 4 2 7l171 228q3 5 8 5h115q4 0 7 -3.5t3 -7.5v-218h15zM659 131v119l-107 -119h107zM709 697q3 -5 0 -11l-394 -681 q-3 -5 -9 -5h-104q-6 0 -9 5t0 10l393 682q3 5 9 5h105q6 0 9 -5zM209 336h-1h-23h-1q-71 3 -147 47q-4 2 -5 6.5t2 7.5l45 75q3 4 7.5 4.5t8.5 -2.5q67 -62 118 -75q39 -10 53 11q17 23 -8 59q-30 43 -99 61q-6 2 -7.5 8t3.5 10l85 78l-177 -16q-4 0 -7.5 3t-3.5 7v70 q0 4 3 7t7 3h282q5 0 8 -3t3 -7v-49q0 -4 -3 -7l-63 -59q36 -15 59 -42t25 -63q2 -31 -13 -58.5t-42 -46.5q-37 -27 -109 -29z" glyph-name="threequarters" horiz-adv-x="820" unicode="¾"/><glyph d="M336 514q-42 0 -72 30t-30 72t30 72t72 30h1h1q42 0 72 -30t30 -72t-30 -72t-72 -30h-1h-1zM629 92q5 -8 -4 -13q-157 -94 -297 -94q-156 0 -229 58q-12 9 -22 21q-49 55 -45 128q5 80 75 134q51 39 129 73v99q0 5 4 8t9 2l171 -47q7 -2 7 -10v-131q0 -6 -6 -9 q-67 -29 -98 -46q-56 -31 -98 -73q-33 -33 -23 -58q6 -19 35 -28q32 -10 77 -2q114 20 222 131q4 4 9 3t7 -5z" glyph-name="questiondown" horiz-adv-x="662" unicode="¿"/><glyph d="M492 188h-254l65 -175q2 -5 -1 -9t-9 -4h-251q-5 0 -8 4.5t-1 9.5l234 599l-20 72q-1 5 2 9t8 4h234q7 0 9 -6l265 -678q2 -5 -1 -9.5t-8 -4.5h-183q-7 0 -10 6zM321 903h111q6 0 9 -7l42 -133q1 -5 -0.5 -8t-5.5 -3h-78q-5 0 -8 6l-75 134q-2 4 0 8q1 3 5 3zM353 543 l-94 -241h189z" glyph-name="Agrave" unicode="À"/><glyph d="M492 188h-254l65 -175q2 -5 -1 -9t-9 -4h-251q-5 0 -8 4.5t-1 9.5l234 599l-20 72q-1 5 2 9t8 4h234q7 0 9 -6l265 -678q2 -5 -1 -9.5t-8 -4.5h-183q-7 0 -10 6zM366 903h111q4 0 6 -3q2 -4 -1 -8l-75 -134q-3 -6 -8 -6h-78q-4 0 -5.5 3t-0.5 8l42 133q3 7 9 7zM353 543 l-94 -241h189z" glyph-name="Aacute" unicode="Á"/><glyph d="M492 188h-254l65 -175q2 -5 -1 -9t-9 -4h-251q-5 0 -8 4.5t-1 9.5l234 599l-20 72q-1 5 2 9t8 4h234q7 0 9 -6l265 -678q2 -5 -1 -9.5t-8 -4.5h-183q-7 0 -10 6zM399 824l-56 -68q-3 -4 -8 -4h-93q-6 0 -9 4t0 7l111 137q3 3 9 3h93q5 0 8 -3l111 -137q3 -3 0 -7t-8 -4 h-94q-5 0 -8 4zM353 543l-94 -241h189z" glyph-name="Acircumflex" unicode="Â"/><glyph d="M492 188h-254l65 -175q2 -5 -1 -9t-9 -4h-251q-5 0 -8 4.5t-1 9.5l234 599l-20 72q-1 5 2 9t8 4h234q7 0 9 -6l265 -678q2 -5 -1 -9.5t-8 -4.5h-183q-7 0 -10 6zM332 894q18 1 38 -4q10 -3 24 -9q13 -5 31 -14q19 -9 28 -11h1q8 -3 17 -2q17 1 36 15q5 4 9 9q4 3 8 1 t4 -7v-77q0 -4 -3 -7q-7 -5 -13 -8q-20 -12 -45 -14q-18 -1 -35 4q-8 2 -21 7q-13 6 -30 14q-32 17 -53 15q-17 -1 -32 -11q-6 -4 -14 -12q-3 -3 -7.5 -1t-4.5 7v76q0 4 3 7q26 20 59 22zM353 543l-94 -241h189z" glyph-name="Atilde" unicode="Ã"/><glyph d="M492 188h-254l65 -175q2 -5 -1 -9t-9 -4h-251q-5 0 -8 4.5t-1 9.5l234 599l-20 72q-1 5 2 9t8 4h234q7 0 9 -6l265 -678q2 -5 -1 -9.5t-8 -4.5h-183q-7 0 -10 6zM474 771h-1q-25 0 -42.5 17.5t-17.5 41.5q0 22 14 38q18 21 46 21h1q28 0 45 -21q14 -16 14 -38 q0 -25 -17.5 -42t-41.5 -17zM325 771h-1q-24 0 -41.5 17.5t-17.5 41.5q0 22 14 38q18 21 45 21h1q28 0 46 -21q14 -16 14 -38q0 -25 -17.5 -42t-42.5 -17zM353 543l-94 -241h189z" glyph-name="Adieresis" unicode="Ä"/><glyph d="M492 188h-254l65 -175q2 -5 -1 -9t-9 -4h-251q-5 0 -8 4.5t-1 9.5l234 599l-20 72q-1 5 2 9t8 4h56q-37 30 -42 78.5t25 84.5q36 42 101 42q75 0 110 -50q21 -29 21 -65t-21 -65q-10 -14 -23 -25h7q7 0 9 -6l265 -678q2 -5 -1 -9.5t-8 -4.5h-183q-7 0 -10 6zM382 854 q-6 0 -11 -2q-15 -7 -21 -26t0 -43q7 -27 27 -45q19 -18 40 -17q5 1 10 3q15 6 21 25.5t0 42.5q-7 28 -26 46q-20 18 -40 16zM353 543l-94 -241h189z" glyph-name="Aring" unicode="Å"/><glyph d="M353 188h-115l65 -175q2 -5 -1 -9t-9 -4h-251q-5 0 -8 4.5t-1 9.5l234 599l-20 72q-1 5 2 9t8 4h134h319h336q5 0 8 -3t3 -7v-136q0 -4 -3.5 -7t-8.5 -3l-335 41v-134h263q4 0 7 -3t3 -8v-133q0 -5 -3.5 -8t-7.5 -3l-262 37v-216l356 45q5 1 8.5 -2t3.5 -8v-140 q0 -4 -3 -7t-8 -3h-567q-5 0 -8 4.5t-1 9.5l28 70v104h-166zM519 302v281h-149l-17 -40l-94 -241h260z" glyph-name="AE" horiz-adv-x="1110" unicode="Æ"/><glyph d="M755.5 128.5q5.5 -6.5 -0.5 -13.5q-90 -105 -248 -127q31 -22 41 -53q4 -12 4 -25.5t-4 -25.5q-13 -39 -56 -63q-43 -23 -97.5 -23t-96.5 23q-44 25 -56 63q-4 12 -4 25v9q0 8 9 8h89q7 0 9 -6l2 -7q5 -19 21 -33v-1l1 -1q10 -9 21 -14q18 -8 33 -4q16 5 20 23 q3 11 -1 26h-1q-9 31 -42 46q-5 2 -9 3h-1l-6 2q-7 2 -7 8v18q-86 9 -155 45.5t-110 89t-61.5 117.5t-17.5 131t31 128.5t76 111t124 77.5t169 29q86 0 164.5 -27t136.5 -82q3 -3 3 -7.5t-4 -7.5l-148 -125q-4 -3 -9 -2t-7 5q-43 80 -108 114q-60 31 -118 13t-89 -79 q-35 -67 -22 -167q12 -96 81 -164q81 -79 206 -94.5t224 39.5q8 4 13.5 -2.5z" glyph-name="Ccedilla" horiz-adv-x="789" unicode="Ç"/><glyph d="M252 583v-134h263q4 0 7 -3t3 -8v-133q0 -5 -3.5 -8t-7.5 -3l-262 37v-216l356 45q5 1 8.5 -2t3.5 -8v-140q0 -4 -3 -7t-8 -3h-567q-5 0 -8 4.5t-1 9.5l28 70v530l-28 70q-2 5 1 9.5t8 4.5h546q5 0 8 -3t3 -7v-136q0 -4 -3.5 -7t-8.5 -3zM242 900q2 3 6 3h111q6 0 9 -7 l42 -133q1 -5 -0.5 -8t-5.5 -3h-78q-5 0 -8 6l-75 134q-3 4 -1 8z" glyph-name="Egrave" horiz-adv-x="652" unicode="È"/><glyph d="M252 583v-134h263q4 0 7 -3t3 -8v-133q0 -5 -3.5 -8t-7.5 -3l-262 37v-216l356 45q5 1 8.5 -2t3.5 -8v-140q0 -4 -3 -7t-8 -3h-567q-5 0 -8 4.5t-1 9.5l28 70v530l-28 70q-2 5 1 9.5t8 4.5h546q5 0 8 -3t3 -7v-136q0 -4 -3.5 -7t-8.5 -3zM404 903q4 0 5 -3q2 -4 0 -8 l-75 -134q-3 -6 -8 -6h-78q-4 0 -5.5 3t-0.5 8l42 133q3 7 9 7h111z" glyph-name="Eacute" horiz-adv-x="652" unicode="É"/><glyph d="M252 583v-134h263q4 0 7 -3t3 -8v-133q0 -5 -3.5 -8t-7.5 -3l-262 37v-216l356 45q5 1 8.5 -2t3.5 -8v-140q0 -4 -3 -7t-8 -3h-567q-5 0 -8 4.5t-1 9.5l28 70v530l-28 70q-2 5 1 9.5t8 4.5h546q5 0 8 -3t3 -7v-136q0 -4 -3.5 -7t-8.5 -3zM382 756l-56 68l-56 -68 q-3 -4 -9 -4h-93q-5 0 -8 4t0 7l111 137q3 3 8 3h93q6 0 9 -3l111 -137q3 -3 0 -7t-9 -4h-93q-5 0 -8 4z" glyph-name="Ecircumflex" horiz-adv-x="652" unicode="Ê"/><glyph d="M252 583v-134h263q4 0 7 -3t3 -8v-133q0 -5 -3.5 -8t-7.5 -3l-262 37v-216l356 45q5 1 8.5 -2t3.5 -8v-140q0 -4 -3 -7t-8 -3h-567q-5 0 -8 4.5t-1 9.5l28 70v530l-28 70q-2 5 1 9.5t8 4.5h546q5 0 8 -3t3 -7v-136q0 -4 -3.5 -7t-8.5 -3zM401 771h-1q-25 0 -42.5 17.5 t-17.5 41.5q0 22 14 38q18 21 46 21h1q27 0 45 -21q14 -16 14 -38q0 -25 -17.5 -42t-41.5 -17zM312 830q0 -25 -17.5 -42t-42.5 -17h-1q-24 0 -41.5 17.5t-17.5 41.5q0 22 14 38q17 21 45 21h1q28 0 46 -21q14 -16 14 -38z" glyph-name="Edieresis" horiz-adv-x="652" unicode="Ë"/><glyph d="M252 614v-530l28 -70q2 -5 -1 -9.5t-9 -4.5h-228q-5 0 -8 4.5t-1 9.5l28 70v530l-28 70q-2 5 1 9.5t8 4.5h228q6 0 9 -4.5t1 -9.5zM73 900q2 3 6 3h110q7 0 9 -7l42 -133q2 -5 0 -8t-6 -3h-77q-5 0 -9 6l-75 134q-2 4 0 8z" glyph-name="Igrave" horiz-adv-x="313" unicode="Ì"/><glyph d="M252 614v-530l28 -70q2 -5 -1 -9.5t-9 -4.5h-228q-5 0 -8 4.5t-1 9.5l28 70v530l-28 70q-2 5 1 9.5t8 4.5h228q6 0 9 -4.5t1 -9.5zM234 903q4 0 6 -3q2 -4 0 -8l-75 -134q-4 -6 -9 -6h-78q-3 0 -5 3t-1 8l43 133q2 7 8 7h111z" glyph-name="Iacute" horiz-adv-x="313" unicode="Í"/><glyph d="M295 614v-530l28 -70q2 -5 -1 -9.5t-8 -4.5h-228q-6 0 -9 4.5t-1 9.5l28 70v530l-28 70q-2 5 1 9.5t9 4.5h228q5 0 8 -4.5t1 -9.5zM255 756l-55 68l-56 -68q-3 -4 -9 -4h-93q-6 0 -9 4t0 7l111 137q3 3 9 3h93q6 0 9 -3l111 -137q3 -3 0 -7t-9 -4h-93q-6 0 -9 4z" glyph-name="Icircumflex" horiz-adv-x="399" unicode="Î"/><glyph d="M262 614v-530l28 -70q2 -5 -1 -9.5t-9 -4.5h-228q-5 0 -8.5 4.5t-1.5 9.5l29 70v530l-29 70q-2 5 1.5 9.5t8.5 4.5h228q6 0 9 -4.5t1 -9.5zM241 771h-1q-25 0 -42.5 17.5t-17.5 41.5q0 22 14 38q18 21 46 21h1q28 0 45 -21q14 -16 14 -38q0 -25 -17.5 -42t-41.5 -17z M152 830q0 -25 -17.5 -42t-42.5 -17h-1q-24 0 -41.5 17.5t-17.5 41.5q0 22 14 38q18 21 45 21h1q28 0 46 -21q14 -16 14 -38z" glyph-name="Idieresis" horiz-adv-x="332" unicode="Ï"/><glyph d="M77 614l-28 70q-2 5 1 9.5t9 4.5h356q74 0 134.5 -30t97 -79t57 -112t20.5 -128.5t-20.5 -128t-57 -111.5t-97 -79t-134.5 -30h-356q-6 0 -9 4.5t-1 9.5l28 70v227h-39q-6 0 -6 7v62q0 7 6 7h39v227zM268 582v-195h74q6 0 6 -7v-62q0 -7 -6 -7h-74v-195h100q44 0 78 25.5 t52 66.5t26 91t0 99.5t-26 91t-52 67t-78 25.5h-100z" glyph-name="Eth" horiz-adv-x="755" unicode="Ð"/><glyph d="M586 207v379l-39 98q-2 5 1 9.5t8 4.5h174q5 0 8 -4.5t1 -9.5l-39 -98v-576q0 -4 -3 -7t-8 -3h-206q-5 0 -8 5l-289 486v-379l39 -98q2 -5 -1 -9.5t-8 -4.5h-174q-5 0 -8 4.5t-1 9.5l39 98v502l-28 70q-2 5 1 9.5t9 4.5h234q6 0 9 -5zM260 872q26 20 59 22q18 1 38 -4 q9 -3 23 -9q14 -5 32 -14q19 -9 28 -11q9 -3 18 -2q17 1 35 15q6 4 10 9q4 3 8 1t4 -7v-77q0 -4 -3 -7q-7 -5 -13 -8q-20 -12 -45 -14q-18 -1 -35 4q-8 2 -21 7q-13 6 -30 14q-33 17 -54 15q-16 -1 -31 -11q-6 -4 -14 -12q-4 -3 -8 -1t-4 7v76q0 4 3 7z" glyph-name="Ntilde" horiz-adv-x="772" unicode="Ñ"/><glyph d="M417 -17q-83 0 -152 25t-114 67.5t-76.5 97t-38 115.5t0 121.5t38 115.5t76.5 97.5t114 67.5t152 25q85 0 156.5 -25t117.5 -67.5t78 -97.5t39 -115.5t0 -121.5t-39 -115.5t-78 -97t-117.5 -67.5t-156.5 -25zM345 903h110q7 0 9 -7l42 -133q2 -5 0 -8t-5 -3h-78 q-5 0 -9 6l-75 134q-2 4 0 8q2 3 6 3zM333 140q74 -76 153 -69q26 3 48 14q55 30 78 105q24 79 2 175q-26 116 -102 193q-74 76 -153 69q-25 -3 -48 -14q-55 -30 -78 -105q-24 -79 -2 -175q26 -116 102 -193z" glyph-name="Ograve" horiz-adv-x="845" unicode="Ò"/><glyph d="M417 -17q-93 0 -168 31.5t-121 83t-71 117t-25 134.5t25 134.5t71 117t121 83t168 31.5q95 0 172.5 -31.5t125 -83t73.5 -117t26 -134.5t-26 -134.5t-73.5 -117t-125 -83t-172.5 -31.5zM390 903h110q4 0 6 -3q2 -4 0 -8l-75 -134q-4 -6 -9 -6h-77q-4 0 -6 3t0 8l42 133 q2 7 9 7zM333 140q74 -76 153 -69q26 3 48 14q55 30 78 105q24 79 2 175q-26 116 -102 193q-74 76 -153 69q-25 -3 -48 -14q-55 -30 -78 -105q-24 -79 -2 -175q26 -116 102 -193z" glyph-name="Oacute" horiz-adv-x="845" unicode="Ó"/><glyph d="M417 -17q-93 0 -168 31.5t-121 83t-71 117t-25 134.5t25 134.5t71 117t121 83t168 31.5q95 0 172.5 -31.5t125 -83t73.5 -117t26 -134.5t-26 -134.5t-73.5 -117t-125 -83t-172.5 -31.5zM423 824l-56 -68q-3 -4 -9 -4h-93q-6 0 -9 4t0 7l111 137q3 3 9 3h93q6 0 9 -3 l111 -137q3 -3 0 -7t-9 -4h-93q-6 0 -9 4zM333 140q74 -76 153 -69q26 3 48 14q55 30 78 105q24 79 2 175q-26 116 -102 193q-74 76 -153 69q-25 -3 -47 -14q-56 -30 -79 -105q-24 -79 -2 -175q26 -116 102 -193z" glyph-name="Ocircumflex" horiz-adv-x="845" unicode="Ô"/><glyph d="M417 -17q-93 0 -168 31.5t-121 83t-71 117t-25 134.5t25 134.5t71 117t121 83t168 31.5q95 0 172.5 -31.5t125 -83t73.5 -117t26 -134.5t-26 -134.5t-73.5 -117t-125 -83t-172.5 -31.5zM355 894q19 1 38 -4q10 -3 24 -9q13 -5 31 -14q20 -9 29 -11q9 -3 18 -2q17 1 35 15 q5 4 10 9q3 3 7 1t4 -7v-77q0 -4 -3 -7q-7 -5 -13 -8q-20 -12 -45 -14q-18 -1 -34 4q-9 2 -22 7q-12 6 -29 14q-33 17 -54 15q-17 -1 -31 -11q-6 -4 -15 -12q-3 -3 -7 -1t-4 7v76q0 4 3 7q25 20 58 22zM333 140q74 -76 153 -69q26 3 48 14q55 30 78 105q24 79 2 175 q-26 116 -102 193q-74 76 -153 69q-25 -3 -48 -14q-55 -30 -78 -105q-24 -79 -2 -175q26 -116 102 -193z" glyph-name="Otilde" horiz-adv-x="845" unicode="Õ"/><glyph d="M417 -17q-83 0 -152 25t-114 67.5t-76.5 97t-38 115.5t0 121.5t38 115.5t76.5 97.5t114 67.5t152 25q85 0 156.5 -25t117.5 -67.5t78 -97.5t39 -115.5t0 -121.5t-39 -115.5t-78 -97t-117.5 -67.5t-156.5 -25zM497 771h-1q-24 0 -41.5 17.5t-17.5 41.5q0 22 14 38 q18 21 45 21h1q28 0 46 -21q14 -16 14 -38q0 -25 -17.5 -42t-42.5 -17zM349 771h-1q-25 0 -42 17.5t-17 41.5q0 22 13 38q18 21 46 21h1q28 0 45 -21q14 -16 14 -38q0 -25 -17.5 -42t-41.5 -17zM333 140q74 -76 153 -69q26 3 48 14q55 30 78 105q24 79 2 175 q-26 116 -102 193q-74 76 -153 69q-25 -3 -47 -14q-56 -30 -79 -105q-24 -79 -2 -175q26 -116 102 -193z" glyph-name="Odieresis" horiz-adv-x="845" unicode="Ö"/><glyph d="M276 264l96 -96q7 -8 0 -15l-58 -58q-7 -7 -15 0l-96 96l-96 -96q-7 -7 -14 0l-58 58q-7 7 0 15l96 96l-96 96q-7 7 0 14l58 58q7 7 14 0l96 -96l96 96q8 7 15 0l58 -58q7 -7 0 -14z" glyph-name="multiply" horiz-adv-x="407" unicode="×"/><glyph d="M724 590q46 -51 68.5 -117t21 -133t-28.5 -131.5t-74 -114.5t-123.5 -80.5t-170.5 -30.5q-127 0 -220 58l-77 -80q-7 -7 -14 0l-59 56q-8 7 0 15l72 76q-44 51 -66 117t-21 133t27 132t72 115t120 80.5t166 30.5q132 0 229 -60l79 82q7 8 14 1l59 -57q8 -7 1 -14z M231 334q9 -42 27 -82l274 285q-10 12 -20 22q-74 75 -153 68q-25 -2 -47 -14q-56 -29 -79 -105q-24 -78 -2 -174zM612 191q24 79 2 175q-9 42 -27 81l-274 -285q10 -11 20 -21q74 -76 153 -69q26 2 48 14q55 29 78 105z" glyph-name="Oslash" horiz-adv-x="845" unicode="Ø"/><glyph d="M704 694.5q3 -4.5 1 -9.5l-28 -70v-438q0 -42 -21 -76.5t-57 -57t-82 -38.5t-97 -19.5t-102 0t-97.5 19.5t-82 38.5t-56.5 57t-21 76.5v438l-28 70q-2 5 1 9.5t8 4.5h228q6 0 9 -4.5t1 -9.5l-28 -70v-442q0 -32 24 -54.5t58.5 -27.5t69 0t58.5 27.5t24 54.5v442l-28 70 q-2 5 1 9.5t8 4.5h228q6 0 9 -4.5zM361 759l-75 134q-3 3 -1 8q2 3 6 3h111q6 0 9 -7l42 -134q1 -4 -0.5 -7t-5.5 -3h-78q-5 0 -8 6z" glyph-name="Ugrave" horiz-adv-x="738" unicode="Ù"/><glyph d="M291 753q-4 0 -5.5 3t-0.5 7l42 134q3 7 9 7h111q4 0 5 -3q2 -5 0 -8l-75 -134q-3 -6 -8 -6h-78zM704 694.5q3 -4.5 1 -9.5l-28 -70v-438q0 -42 -21 -76.5t-57 -57t-82 -38.5t-97 -19.5t-102 0t-97.5 19.5t-82 38.5t-56.5 57t-21 76.5v438l-28 70q-2 5 1 9.5t8 4.5h228 q6 0 9 -4.5t1 -9.5l-28 -70v-442q0 -32 24 -54.5t58.5 -27.5t69 0t58.5 27.5t24 54.5v442l-28 70q-2 5 1 9.5t8 4.5h228q6 0 9 -4.5z" glyph-name="Uacute" horiz-adv-x="738" unicode="Ú"/><glyph d="M211 753q-5 0 -8 3.5t0 7.5l111 137q3 3 8 3h93q6 0 9 -3l111 -137q3 -4 0 -7.5t-9 -3.5h-93q-5 0 -8 3l-56 69l-56 -69q-3 -3 -9 -3h-93zM704 694.5q3 -4.5 1 -9.5l-28 -70v-438q0 -42 -21 -76.5t-57 -57t-82 -38.5t-97 -19.5t-102 0t-97.5 19.5t-82 38.5t-56.5 57 t-21 76.5v438l-28 70q-2 5 1 9.5t8 4.5h228q6 0 9 -4.5t1 -9.5l-28 -70v-442q0 -32 24 -54.5t58.5 -27.5t69 0t58.5 27.5t24 54.5v442l-28 70q-2 5 1 9.5t8 4.5h228q6 0 9 -4.5z" glyph-name="Ucircumflex" horiz-adv-x="738" unicode="Û"/><glyph d="M443 772q-25 0 -42.5 17t-17.5 42q0 21 14 38q18 21 46 21h1q27 0 45 -21q14 -17 14 -38q0 -25 -17.5 -42.5t-41.5 -16.5h-1zM704 694.5q3 -4.5 1 -9.5l-28 -70v-438q0 -42 -21 -76.5t-57 -57t-82 -38.5t-97 -19.5t-102 0t-97.5 19.5t-82 38.5t-56.5 57t-21 76.5v438 l-28 70q-2 5 1 9.5t8 4.5h228q6 0 9 -4.5t1 -9.5l-28 -70v-442q0 -32 24 -54.5t58.5 -27.5t69 0t58.5 27.5t24 54.5v442l-28 70q-2 5 1 9.5t8 4.5h228q6 0 9 -4.5zM294 772q-24 0 -41.5 17t-17.5 42q0 21 14 38q17 21 45 21h1q28 0 46 -21q14 -17 14 -38q0 -25 -17.5 -42.5 t-42.5 -16.5h-1z" glyph-name="Udieresis" horiz-adv-x="738" unicode="Ü"/><glyph d="M312 753q-4 0 -5.5 3t-0.5 7l42 134q3 7 9 7h111q4 0 5 -3q2 -5 0 -8l-75 -134q-3 -6 -8 -6h-78zM746 683l-260 -388v-210l28 -71q2 -5 -1 -9.5t-8 -4.5h-228q-6 0 -9 4.5t-1 9.5l28 71v215l-261 383q-4 5 -1 10.5t9 5.5h211q6 0 9 -4l176 -267l92 264q2 7 10 7h198 q6 0 9 -5.5t-1 -10.5z" glyph-name="Yacute" horiz-adv-x="780" unicode="Ý"/><glyph d="M398 699q75 0 135 -30t97 -79t57 -112t20 -128.5t-20 -128t-57 -112t-97 -79.5t-135 -30h-146v-117l28 -70q2 -5 -1 -10t-9 -5h-228q-5 0 -8 5t-1 10l28 70v937l-28 70q-2 5 1 9.5t8 4.5h228q6 0 9 -4.5t1 -9.5l-28 -70v-121h146zM352 117q43 0 77.5 25.5t52 66.5t26 91 t0 99.5t-26 90.5t-52 67t-77.5 26h-100v-466h100z" glyph-name="Thorn" horiz-adv-x="739" unicode="Þ"/><glyph d="M697 362q43 -73 37 -155q-6 -80 -54 -139q-68 -83 -179 -83q-69 0 -119 21q-6 3 -6 10v172q0 7 7 9.5t12 -3.5q35 -53 92 -76q53 -21 77 -1q23 19 7 72q-10 32 -33 73q-27 45 -69 99q-65 83 -129 159q-6 7 1 14q101 98 113 181q5 29 -3.5 54t-32.5 37q-22 12 -49 6 q-29 -7 -54 -32q-63 -66 -63 -212v-484l28 -70q2 -5 -1 -9.5t-9 -4.5h-228q-5 0 -8 4.5t-1 9.5l28 70v248v2v240q0 158 73.5 244t227.5 86q130 0 204 -58q67 -53 73 -135q4 -49 -16 -96.5t-57 -80.5q11 -17 51 -65q46 -54 68 -88q7 -10 12 -19z" glyph-name="germandbls" horiz-adv-x="767" unicode="ß"/><glyph d="M307 557l-75 134q-2 3 0 8q2 3 6 3h110q7 0 9 -7l42 -134q2 -4 0 -7t-6 -3h-77q-5 0 -9 6zM598 14q2 -5 -1 -9.5t-8 -4.5h-200q-4 0 -7 3t-3 7v31q-70 -53 -168 -53q-57 0 -102 23t-65 71q-19 52 -5.5 101t51.5 90q51 53 126.5 77.5t159.5 24.5h1.5h1.5q-2 36 -22 49 q-19 11 -44 12.5t-48.5 -4.5t-49.5 -18t-45.5 -23.5t-38.5 -25.5q-4 -2 -8.5 -1t-6.5 5l-44 92q-2 3 -0.5 7.5t5.5 5.5q38 16 88 26.5t105 14t108.5 -5.5t96 -29.5t69 -60.5t26.5 -95v-240zM379 205v83q-63 -6 -104 -54q-39 -46 -37 -95q2 -25 18 -36q18 -10 37.5 -7 t37.5 14q48 32 48 95z" glyph-name="agrave" horiz-adv-x="631" unicode="à"/><glyph d="M237 551q-3 0 -5 3t-1 7l43 134q2 7 8 7h111q4 0 6 -3q2 -5 0 -8l-75 -134q-4 -6 -9 -6h-78zM598 14q2 -5 -1 -9.5t-8 -4.5h-200q-4 0 -7 3t-3 7v31q-70 -53 -168 -53q-57 0 -102 23t-65 71q-19 52 -5.5 101t51.5 90q51 53 126.5 77.5t159.5 24.5h2h1q-2 36 -22 49 q-19 11 -44 12.5t-48.5 -4.5t-49.5 -18t-45.5 -23.5t-38.5 -25.5q-4 -2 -8.5 -1t-6.5 5l-44 92q-2 3 -0.5 7.5t5.5 5.5q38 16 88 26.5t105 14t108.5 -5.5t96 -29.5t69 -60.5t26.5 -95v-240zM379 205v83q-63 -6 -104 -54q-39 -46 -37 -95q2 -25 18 -36q18 -10 37.5 -7 t37.5 14q48 32 48 95z" glyph-name="aacute" horiz-adv-x="631" unicode="á"/><glyph d="M598 14q2 -5 -1 -9.5t-8 -4.5h-200q-4 0 -7 3t-3 7v31q-70 -53 -168 -53q-57 0 -102 23t-65 71q-19 52 -5.5 101t51.5 90q51 53 126.5 77.5t159.5 24.5h2h1q-2 36 -22 49q-19 11 -44 12.5t-48.5 -4.5t-49.5 -18t-45.5 -23.5t-38.5 -25.5q-4 -2 -8.5 -1t-6.5 5l-44 92 q-2 3 -0.5 7.5t5.5 5.5q38 16 88 26.5t105 14t108.5 -5.5t96 -29.5t69 -60.5t26.5 -95v-240zM379 205v83q-63 -6 -104 -54q-39 -46 -37 -95q2 -25 18 -36q18 -10 37.5 -7t37.5 14q48 32 48 95zM158 551q-6 0 -9 3.5t0 7.5l111 137q3 3 9 3h93q6 0 9 -3l111 -137q3 -4 0 -7.5 t-9 -3.5h-93q-6 0 -9 3l-56 69l-55 -69q-3 -3 -9 -3h-93z" glyph-name="acircumflex" horiz-adv-x="631" unicode="â"/><glyph d="M191 581q-4 2 -4 7v76q0 4 3 7q25 20 58 22q19 1 38 -5q10 -2 24 -8q13 -6 31 -14q19 -9 29 -12q9 -2 18 -1q16 1 35 15l10 8q3 3 7 1t4 -7v-76q0 -4 -3 -7q-7 -5 -13 -9q-20 -11 -45 -13q-18 -1 -35 3q-8 2 -21 8q-12 5 -30 14q-32 17 -53 15q-17 -1 -32 -11 q-6 -4 -14 -12q-3 -3 -7 -1zM598 14q2 -5 -1 -9.5t-8 -4.5h-200q-4 0 -7 3t-3 7v31q-70 -53 -168 -53q-57 0 -102 23t-65 71q-19 52 -5.5 101t51.5 90q51 53 126.5 77.5t159.5 24.5h2h1q-2 36 -22 49q-19 11 -44 12.5t-48.5 -4.5t-49.5 -18t-45.5 -23.5t-38.5 -25.5 q-4 -3 -8.5 -1.5t-6.5 5.5l-44 92q-2 3 -0.5 7.5t5.5 5.5q38 16 88 26.5t105 14t108.5 -5.5t96 -29.5t69 -60.5t26.5 -95v-240zM379 205v83q-63 -6 -104 -54q-39 -46 -37 -95q2 -25 18 -36q18 -10 37.5 -7t37.5 14q48 32 48 95z" glyph-name="atilde" horiz-adv-x="631" unicode="ã"/><glyph d="M389 570q-25 0 -42 17t-17 42q0 21 14 38q17 21 45 21h1q28 0 46 -21q13 -17 13 -38q0 -25 -17 -42.5t-42 -16.5h-1zM598 14q2 -5 -1 -9.5t-8 -4.5h-200q-4 0 -7 3t-3 7v31q-70 -53 -168 -53q-57 0 -102 23t-65 71q-19 52 -5.5 101t51.5 90q51 53 126.5 77.5t159.5 24.5 h1.5h1.5q-2 36 -22 49q-19 11 -44 12.5t-48.5 -4.5t-49.5 -18t-45.5 -23.5t-38.5 -25.5q-4 -2 -8.5 -1t-6.5 5l-44 92q-2 3 -0.5 7.5t5.5 5.5q38 16 88 26.5t105 14t108.5 -5.5t96 -29.5t69 -60.5t26.5 -95v-240zM379 205v83q-63 -6 -104 -54q-39 -46 -37 -95q2 -25 18 -36 q18 -10 37.5 -7t37.5 14q48 32 48 95zM241 570q-25 0 -42.5 17t-17.5 42q0 21 14 38q18 21 46 21h1q27 0 45 -21q14 -17 14 -38q0 -25 -17.5 -42.5t-41.5 -16.5h-1z" glyph-name="adieresis" horiz-adv-x="631" unicode="ä"/><glyph d="M598 14q2 -5 -1 -9.5t-8 -4.5h-200q-4 0 -7 3t-3 7v31q-70 -53 -168 -53q-57 0 -102 23t-65 71q-19 52 -5.5 101t51.5 90q51 53 126.5 77.5t159.5 24.5h1.5h1.5q-2 36 -22 49q-19 11 -44 12.5t-48.5 -4.5t-49.5 -18t-45.5 -23.5t-38.5 -25.5q-4 -2 -8.5 -1t-6.5 5l-44 92 q-2 3 -0.5 7.5t5.5 5.5q58 25 139 36q-28 31 -29 74t26 76q35 42 100 42q75 0 111 -51q20 -29 20 -64.5t-20 -64.5q-7 -10 -16 -18q74 -18 118 -62t44 -118v-240zM365 548.5q6 19.5 -1 42.5q-7 27 -26 45q-20 19 -40 17q-5 0 -10 -2q-16 -7 -22 -26t0 -43q8 -27 27 -45 q19 -19 40 -17q5 1 10 3q16 6 22 25.5zM379 205v83q-63 -6 -104 -54q-39 -46 -37 -95q2 -25 18 -36q18 -10 37.5 -7t37.5 14q48 32 48 95z" glyph-name="aring" horiz-adv-x="631" unicode="å"/><glyph d="M873 275l-111 -35l-168 -54v-2q16 -46 59 -76t95 -37q17 -2 34 -2q62 0 112 28q8 4 13.5 -2.5t-0.5 -13.5q-77 -91 -231 -91q-71 0 -131 24t-99 69q-6 -3 -12 -8q-45 -33 -69.5 -47.5t-65 -27t-88.5 -12.5q-57 0 -102 23t-65 71q-19 52 -5.5 101t51.5 90 q51 53 126.5 77.5t159.5 24.5h2h1q-2 36 -22 49q-19 11 -44 12.5t-48.5 -4.5t-49.5 -18t-45.5 -23.5t-38.5 -25.5q-4 -2 -8.5 -1t-6.5 5l-44 92q-2 3 -0.5 7.5t5.5 5.5q55 24 130 35.5t157 1.5t134 -45q74 48 177 48q226 0 240 -218q1 -8 -7 -10zM379 205v83 q-63 -6 -104 -54q-39 -46 -37 -95q2 -25 18 -36q18 -10 37.5 -7t37.5 14q48 32 48 95zM736 310q1 24 -5 49q-10 40 -36.5 66.5t-63.5 17.5q-3 -1 -7 -2q-32 -13 -46 -66q-7 -27 -8 -58v-13q0 -22 4 -45z" glyph-name="ae" horiz-adv-x="947" unicode="æ"/><glyph d="M552.5 94.5q5.5 -6.5 -0.5 -13.5q-56 -67 -158 -85q40 -24 52 -60q4 -13 4 -26t-4 -25q-12 -39 -56 -63q-42 -24 -96.5 -24t-96.5 24q-44 24 -57 63q-4 12 -4 25v8q0 9 10 9h89q7 0 9 -7l1 -6q5 -20 21 -34q1 0 1 -1q10 -9 22 -14q18 -8 33 -4q16 5 20 22q3 12 -2 26v1 q-9 31 -42 45q-6 3 -10 4l-7 1q-6 2 -6 9v24q-108 12 -175.5 80.5t-67.5 178.5q0 122 82.5 192t206.5 70q139 0 215 -75q4 -3 3.5 -7.5t-3.5 -7.5l-118 -101q-4 -3 -9 -2t-7 6q-12 29 -27 52q-19 29 -45 50t-54 14q-33 -8 -50 -60q-18 -55 -8 -122q12 -75 57 -127.5 t118 -62.5q17 -2 34 -2q62 0 112 28q8 4 13.5 -2.5z" glyph-name="ccedilla" horiz-adv-x="587" unicode="ç"/><glyph d="M288 557l-75 134q-2 3 0 8q1 3 5 3h111q6 0 9 -7l42 -134q1 -4 -0.5 -7t-5.5 -3h-78q-5 0 -8 6zM518 275l-111 -35l-168 -54v-2q16 -46 59 -76t95 -37q17 -2 34 -2q62 0 112 28q8 4 13.5 -2.5t-0.5 -13.5q-77 -91 -231 -91q-125 0 -207 70t-82 192t81.5 192t206.5 70 q226 0 240 -218q1 -8 -7 -10zM381 310q2 24 -5 49q-10 40 -36.5 66.5t-63.5 17.5l-6 -2q-33 -13 -47 -66q-14 -51 -4 -116z" glyph-name="egrave" horiz-adv-x="592" unicode="è"/><glyph d="M218 551q-4 0 -5.5 3t-0.5 7l42 134q3 7 9 7h111q4 0 6 -3q2 -5 -1 -8l-75 -134q-3 -6 -8 -6h-78zM518 275l-111 -35l-168 -54v-2q16 -46 59 -76t95 -37q17 -2 34 -2q62 0 112 28q8 4 13.5 -2.5t-0.5 -13.5q-77 -91 -231 -91q-125 0 -207 70t-82 192t81.5 192t206.5 70 q226 0 240 -218q1 -8 -7 -10zM381 310q2 24 -5 49q-10 40 -36.5 66.5t-63.5 17.5l-6 -2q-33 -13 -47 -66q-14 -51 -4 -116z" glyph-name="eacute" horiz-adv-x="592" unicode="é"/><glyph d="M139 551q-6 0 -9 3.5t0 7.5l111 137q3 3 9 3h93q5 0 8 -3l111 -137q3 -4 0 -7.5t-8 -3.5h-94q-5 0 -8 3l-56 69l-56 -69q-3 -3 -8 -3h-93zM518 275l-111 -35l-168 -54v-2q16 -46 59 -76t95 -37q17 -2 34 -2q62 0 112 28q8 4 13.5 -2.5t-0.5 -13.5q-77 -91 -231 -91 q-125 0 -207 70t-82 192t81.5 192t206.5 70q226 0 240 -218q1 -8 -7 -10zM381 310q2 24 -5 49q-10 40 -36.5 66.5t-63.5 17.5l-6 -2q-33 -13 -47 -66q-14 -51 -4 -116z" glyph-name="ecircumflex" horiz-adv-x="592" unicode="ê"/><glyph d="M370 570q-25 0 -42.5 17t-17.5 42q0 21 14 38q18 21 46 21h1q28 0 45 -21q14 -17 14 -38q0 -25 -17.5 -42.5t-41.5 -16.5h-1zM518 275l-111 -35l-168 -54v-2q16 -46 59 -76t95 -37q17 -2 34 -2q62 0 112 28q8 4 13.5 -2.5t-0.5 -13.5q-77 -91 -231 -91q-125 0 -207 70 t-82 192t81.5 192t206.5 70q226 0 240 -218q1 -8 -7 -10zM381 310q2 24 -5 49q-10 40 -36.5 66.5t-63.5 17.5l-6 -2q-33 -13 -47 -66q-14 -51 -4 -116zM221 570q-24 0 -41.5 17t-17.5 42q0 21 14 38q18 21 45 21h1q28 0 46 -21q14 -17 14 -38q0 -25 -17.5 -42.5t-42.5 -16.5 h-1z" glyph-name="edieresis" horiz-adv-x="592" unicode="ë"/><glyph d="M151 557l-75 134q-2 3 0 8q2 3 6 3h110q7 0 9 -7l42 -134q2 -4 0 -7t-6 -3h-77q-5 0 -9 6zM286 14q2 -5 -1 -9.5t-8 -4.5h-228q-6 0 -9 4.5t-1 9.5l28 70v287l-34 56q-2 4 -0.5 8.5t6.5 6.5l35 11h1l170 47q5 1 9 -2t4 -8v-406z" glyph-name="igrave" horiz-adv-x="319" unicode="ì"/><glyph d="M286 14q2 -5 -1 -9.5t-8 -4.5h-228q-6 0 -9 4.5t-1 9.5l28 70v287l-34 56q-2 4 -0.5 8.5t6.5 6.5l35 11h1l170 47q5 1 9 -2t4 -8v-406zM81 551q-3 0 -5 3t0 7l42 134q2 7 9 7h110q4 0 6 -3q2 -5 0 -8l-75 -134q-4 -6 -9 -6h-78z" glyph-name="iacute" horiz-adv-x="319" unicode="í"/><glyph d="M298 84l28 -70q2 -5 -1 -9.5t-8 -4.5h-228q-6 0 -9 4.5t-1 9.5l29 70v287l-34 56q-3 4 -1 8.5t6 6.5l36 11l170 47q5 1 9 -2t4 -8v-406zM366 562q3 -4 0 -7.5t-9 -3.5h-93q-6 0 -9 3l-55 69l-56 -69q-3 -3 -9 -3h-93q-6 0 -9 3.5t0 7.5l111 137q3 3 9 3h93q6 0 9 -3z" glyph-name="icircumflex" horiz-adv-x="399" unicode="î"/><glyph d="M91 570q-24 0 -41.5 17t-17.5 42q0 21 14 38q18 21 45 21h1q28 0 46 -21q14 -17 14 -38q0 -25 -17.5 -42.5t-42.5 -16.5h-1zM240 570q-25 0 -42.5 17t-17.5 42q0 21 14 38q18 21 46 21h1q28 0 45 -21q14 -17 14 -38q0 -25 -17.5 -42.5t-41.5 -16.5h-1zM265 84l28 -70 q2 -5 -1 -9.5t-9 -4.5h-228q-5 0 -8 4.5t-1 9.5l28 70v287l-34 56q-2 4 -0.5 8.5t6.5 6.5l35 11l171 47q5 1 9 -2t4 -8v-406z" glyph-name="idieresis" horiz-adv-x="332" unicode="ï"/><glyph d="M728 471q19 -58 19 -119q-1 -61 -19 -117q-14 -46 -39 -85q-61 -94 -167 -134q-89 -35 -200 -23.5t-190 65.5q-100 70 -100 184q0 77 43 133t117 86q45 19 98 27q39 6 80 6q110 0 192 -39q1 56 -31 95l-77 -47q-5 -4 -9 3l-32 52q-4 7 1 10l49 30q-47 17 -100 12 q-3 0 -5 -1l13 107q116 0 203 -51l71 44q6 3 10 -3l31 -53q4 -6 -1 -9l-45 -28q61 -60 88 -145zM511 218q18 38 18 74q-1 38 -22.5 64t-58.5 34q-57 11 -119 -25q-62 -37 -92 -99q-12 -27 -16 -53.5t3 -54.5t28 -47q24 -21 58.5 -25.5t63.5 6.5q84 26 137 126z" glyph-name="eth" horiz-adv-x="779" unicode="ð"/><glyph d="M193 581q-4 2 -4 7v76q0 4 3 7q26 20 58 22q19 1 39 -5q9 -2 23 -8t32 -14q19 -9 28 -12q9 -2 18 -1q17 1 35 15q6 4 10 8q4 3 8 1t4 -7v-76q0 -4 -3 -7q-7 -5 -13 -9q-20 -11 -45 -13q-18 -1 -35 3q-8 2 -21 8q-13 5 -30 14q-33 17 -54 15q-16 -1 -31 -11q-6 -4 -14 -12 q-4 -3 -8 -1zM603 14q2 -5 -1 -9.5t-8 -4.5h-228q-6 0 -9 4.5t-1 9.5l28 70v263q0 30 -14 38q-19 10 -65 -16q-25 -14 -47 -32v-253l28 -70q2 -5 -1 -9.5t-8 -4.5h-228q-6 0 -9 4.5t-1 9.5l26 65v295l-32 53q-2 4 0 9t6 6l206 58q5 1 9 -2t4 -8v-53q46 36 73 51 q44 24 104 24q65 -1 102.5 -39.5t37.5 -103.5v-285z" glyph-name="ntilde" horiz-adv-x="636" unicode="ñ"/><glyph d="M313 557l-75 134q-2 3 0 8q2 3 6 3h110q7 0 9 -7l42 -134q2 -4 0 -7t-6 -3h-77q-5 0 -9 6zM321 514q125 0 207.5 -69.5t82.5 -192.5t-82.5 -192.5t-207.5 -69.5t-207 70t-82 192t82.5 192t206.5 70zM421 130q16 63 -3 144t-62 131q-41 47 -79.5 38t-54.5 -69 q-16 -64 3 -145t62 -131q41 -47 79.5 -38t54.5 70z" glyph-name="ograve" horiz-adv-x="643" unicode="ò"/><glyph d="M244 551q-4 0 -6 3t0 7l42 134q2 7 9 7h110q4 0 6 -3q2 -5 0 -8l-75 -134q-4 -6 -9 -6h-77zM321 514q125 0 207.5 -69.5t82.5 -192.5t-82.5 -192.5t-207.5 -69.5t-207 70t-82 192t82.5 192t206.5 70zM421 130q16 63 -3 144t-62 131q-41 47 -79.5 38t-54.5 -69 q-16 -64 3 -145t62 -131q41 -47 79.5 -38t54.5 70z" glyph-name="oacute" horiz-adv-x="643" unicode="ó"/><glyph d="M164 551q-6 0 -9 3.5t0 7.5l111 137q3 3 9 3h93q6 0 9 -3l111 -137q3 -4 0 -7.5t-9 -3.5h-93q-6 0 -9 3l-55 69l-56 -69q-3 -3 -9 -3h-93zM321 514q125 0 207.5 -69.5t82.5 -192.5t-82.5 -192.5t-207.5 -69.5t-207 70t-82 192t82.5 192t206.5 70zM421 130q16 63 -3 144 t-62 131q-41 47 -79.5 38t-54.5 -69q-16 -64 3 -145t62 -131q41 -47 79.5 -38t54.5 70z" glyph-name="ocircumflex" horiz-adv-x="643" unicode="ô"/><glyph d="M197 581q-4 2 -4 7v76q0 4 3 7q25 20 58 22q19 1 38 -5q10 -2 24 -8q13 -6 31 -14q19 -9 29 -12q9 -2 18 -1q17 1 35 15l10 8q3 3 7 1t4 -7v-76q0 -4 -3 -7q-7 -5 -13 -9q-20 -11 -45 -13q-18 -1 -35 3q-8 2 -21 8q-12 5 -29 14q-33 17 -54 15q-17 -1 -31 -11 q-6 -4 -15 -12q-3 -3 -7 -1zM321 514q125 0 207.5 -69.5t82.5 -192.5t-82.5 -192.5t-207.5 -69.5t-207 70t-82 192t82.5 192t206.5 70zM421 130q16 63 -3 144t-62 131q-41 47 -79.5 38t-54.5 -69q-16 -64 3 -145t62 -131q41 -47 79.5 -38t54.5 70z" glyph-name="otilde" horiz-adv-x="643" unicode="õ"/><glyph d="M321 514q125 0 207.5 -69.5t82.5 -192.5t-82.5 -192.5t-207.5 -69.5t-207 70t-82 192t82.5 192t206.5 70zM421 130q16 63 -3 144t-62 131q-41 47 -79.5 38t-54.5 -69q-16 -64 3 -145t62 -131q41 -47 79.5 -38t54.5 70zM395 570q-24 0 -41.5 17t-17.5 42q0 21 14 38 q17 21 45 21h1q28 0 46 -21q14 -17 14 -38q0 -25 -17.5 -42.5t-42.5 -16.5h-1zM247 570q-25 0 -42.5 17t-17.5 42q0 21 14 38q18 21 46 21h1q28 0 45 -21q14 -17 14 -38q0 -25 -17.5 -42.5t-41.5 -16.5h-1z" glyph-name="odieresis" horiz-adv-x="643" unicode="ö"/><glyph d="M209 204q47 0 78 -37q24 -28 24 -65q0 -42 -30 -72t-72 -30h-1h-1q-42 0 -72 30t-30 72q0 37 24 65q30 37 78 37h1h1zM207 403q-42 0 -72 30t-30 72q0 37 24 65q30 37 78 37h1h1q47 0 78 -37q24 -28 24 -65q0 -43 -30 -72.5t-72 -29.5h-1h-1zM373 354q5 0 8 -3t3 -7v-82 q0 -4 -3 -7t-8 -3h-331q-4 0 -7 3t-3 7v82q0 4 3 7t7 3h331z" glyph-name="divide" horiz-adv-x="416" unicode="÷"/><glyph d="M612 479l-57 -60q58 -67 58 -167q0 -123 -82.5 -192.5t-207.5 -69.5q-83 0 -149 32l-65 -68q-8 -8 -15 0l-59 56q-7 7 0 15l57 59q-58 68 -58 168q0 122 82.5 192t206.5 70q84 0 150 -33l66 69q7 7 14 0l59 -57q8 -7 0 -14zM227 229l1 -3l118 122l30 33q-9 13 -18 24 q-41 47 -79.5 38t-53.5 -69q-17 -64 2 -145zM420 274v2v2l-149 -155q9 -14 18 -25q41 -47 79.5 -38t54.5 70q16 63 -3 144z" glyph-name="oslash" horiz-adv-x="647" unicode="ø"/><glyph d="M314 557l-75 134q-2 3 0 8q1 3 5 3h111q6 0 9 -7l42 -134q1 -4 -0.5 -7t-5.5 -3h-78q-5 0 -8 6zM605 14q2 -5 -1 -9.5t-8 -4.5h-202q-4 0 -7 3t-3 7v53q-45 -36 -73 -51q-42 -24 -101 -24q-66 0 -104.5 38.5t-38.5 104.5v240l-34 56q-2 4 -0.5 8.5t6.5 6.5l35 11h1 l170 47q5 1 9 -2t4 -8v-337q0 -30 14 -38q20 -10 66 16q31 17 48 32v208l-34 56q-2 4 -0.5 8.5t6.5 6.5l35 11h1l170 47q5 1 9 -2t4 -8v-406z" glyph-name="ugrave" horiz-adv-x="638" unicode="ù"/><glyph d="M241 551q-4 0 -5.5 3t-0.5 7l42 134q3 7 9 7h111q4 0 5 -3q2 -5 0 -8l-75 -134q-3 -6 -8 -6h-78zM605 14q2 -5 -1 -9.5t-8 -4.5h-202q-4 0 -7 3t-3 7v53q-45 -36 -73 -51q-42 -24 -101 -24q-66 0 -104.5 38.5t-38.5 104.5v240l-34 56q-2 4 -0.5 8.5t6.5 6.5l35 11h1 l170 47q5 1 9 -2t4 -8v-337q0 -30 14 -38q20 -10 66 16q31 17 48 32v208l-34 56q-2 4 -0.5 8.5t6.5 6.5l35 11h1l170 47q5 1 9 -2t4 -8v-406z" glyph-name="uacute" horiz-adv-x="638" unicode="ú"/><glyph d="M161 551q-5 0 -8 3.5t0 7.5l111 137q3 3 8 3h93q6 0 9 -3l111 -137q3 -4 0 -7.5t-9 -3.5h-93q-5 0 -8 3l-56 69l-56 -69q-3 -3 -9 -3h-93zM605 14q2 -5 -1 -9.5t-8 -4.5h-202q-4 0 -7 3t-3 7v53q-45 -36 -73 -51q-42 -24 -101 -24q-66 0 -104.5 38.5t-38.5 104.5v240 l-34 56q-2 4 -0.5 8.5t6.5 6.5l35 11h1l170 47q5 1 9 -2t4 -8v-337q0 -30 14 -38q20 -10 66 16q31 17 48 32v208l-34 56q-2 4 -0.5 8.5t6.5 6.5l35 11h1l170 47q5 1 9 -2t4 -8v-406z" glyph-name="ucircumflex" horiz-adv-x="638" unicode="û"/><glyph d="M396 570q-25 0 -42.5 17t-17.5 42q0 21 14 38q18 21 46 21h1q28 0 45 -21q14 -17 14 -38q0 -25 -17.5 -42.5t-41.5 -16.5h-1zM605 14q2 -5 -1 -9.5t-8 -4.5h-202q-4 0 -7 3t-3 7v53q-45 -36 -73 -51q-42 -24 -101 -24q-66 0 -104.5 38.5t-38.5 104.5v240l-34 56 q-2 4 -0.5 8.5t6.5 6.5l35 11h1l170 47q5 1 9 -2t4 -8v-337q0 -30 14 -38q20 -10 66 16q31 17 48 32v208l-34 56q-2 4 -0.5 8.5t6.5 6.5l35 11h1l170 47q5 1 9 -2t4 -8v-406zM247 570q-24 0 -41.5 17t-17.5 42q0 21 14 38q18 21 45 21h1h1q27 0 45 -21q14 -17 14 -38 q0 -25 -17.5 -42.5t-42.5 -16.5h-1z" glyph-name="udieresis" horiz-adv-x="638" unicode="ü"/><glyph d="M243 551q-4 0 -6 3t0 7l42 134q2 7 9 7h110q4 0 6 -3q2 -5 0 -8l-75 -134q-4 -6 -9 -6h-77zM607 495.5q3 -4.5 1 -9.5l-257 -588q-27 -62 -74.5 -103t-108.5 -39q-22 1 -64 11.5t-56 20.5q-6 5 -4 11l47 144q2 5 7 6.5t9 -1.5l10 -8q40 -28 81 -36t61 8q15 12 17 36 q-1 4 -6 19t-16 40q-17 41 -48 109q-20 43 -48 101.5t-30 62.5l-95 206q-2 5 1 9.5t8 4.5h176q7 0 10 -6l142 -329l53 326q1 9 10 9h166q5 0 8 -4.5z" glyph-name="yacute" horiz-adv-x="641" unicode="ý"/><glyph d="M348 497q60 0 111 -14t87 -37.5t61.5 -55.5t37 -68t11.5 -73.5t-11.5 -73.5t-37 -67.5t-61.5 -55.5t-87 -38t-111 -14h-96v-117l28 -71q2 -5 -1 -9.5t-9 -4.5h-228q-5 0 -8 4.5t-1 9.5l28 71v735l-28 70q-2 5 1 9.5t8 4.5h228q6 0 9 -4.5t1 -9.5l-28 -70v-121h96z M302 116q50 0 87.5 20t54 49t16.5 63.5t-16.5 64t-54 49t-87.5 19.5h-50v-265h50z" glyph-name="thorn" horiz-adv-x="689" unicode="þ"/><glyph d="M394 570q-24 0 -41.5 17t-17.5 42q0 21 14 38q17 21 45 21h1q28 0 46 -21q14 -17 14 -38q0 -25 -17.5 -42.5t-42.5 -16.5h-1zM607 495.5q3 -4.5 1 -9.5l-257 -588q-27 -62 -74.5 -103t-108.5 -39q-22 1 -64 11.5t-56 20.5q-6 5 -4 11l47 144q2 5 7 6.5t9 -1.5l10 -8 q40 -28 81 -36t61 8q15 12 17 36q-1 4 -6 19t-16 40q-17 41 -49 109q-19 42 -47 101q-28 60 -30 63l-95 206q-2 5 1 9.5t8 4.5h176q7 0 10 -6l142 -329l53 326q1 9 10 9h166q5 0 8 -4.5zM246 570q-25 0 -42 17t-17 42q0 21 13 38q18 21 46 21h1q28 0 45 -21q14 -17 14 -38 q0 -25 -17.5 -42.5t-41.5 -16.5h-1z" glyph-name="ydieresis" horiz-adv-x="641" unicode="ÿ"/><glyph d="M492 188h-254l65 -175q2 -5 -1 -9t-9 -4h-251q-5 0 -8 4.5t-1 9.5l234 599l-20 72q-1 5 2 9t8 4h234q7 0 9 -6l265 -678q2 -5 -1 -9.5t-8 -4.5h-183q-7 0 -10 6zM257 799v62q0 7 7 7h271q6 0 6 -7v-62q0 -7 -6 -7h-271q-7 0 -7 7zM353 543l-94 -241h189z" glyph-name="Amacron" unicode="Ā"/><glyph d="M180 590q-6 0 -6 8v61q0 8 6 8h271q6 0 6 -8v-61q0 -8 -6 -8h-271zM598 14q2 -5 -1 -9.5t-8 -4.5h-200q-4 0 -7 3t-3 7v31q-70 -53 -168 -53q-57 0 -102 23t-65 71q-19 52 -5.5 101t51.5 90q51 53 126.5 77.5t159.5 24.5h2h1q-2 36 -22 49q-19 11 -44 12.5t-48.5 -4.5 t-49.5 -18t-45.5 -23.5t-38.5 -25.5q-4 -2 -8.5 -1t-6.5 5l-44 92q-2 3 -0.5 7.5t5.5 5.5q38 16 88 26.5t105 14t108.5 -5.5t96 -29.5t69 -60.5t26.5 -95v-240zM379 205v83q-63 -6 -104 -54q-39 -46 -37 -95q2 -25 18 -36q18 -10 37.5 -7t37.5 14q48 32 48 95z" glyph-name="amacron" horiz-adv-x="631" unicode="ā"/><glyph d="M492 188h-254l65 -175q2 -5 -1 -9t-9 -4h-251q-5 0 -8 4.5t-1 9.5l234 599l-20 72q-1 5 2 9t8 4h234q7 0 9 -6l265 -678q2 -5 -1 -9.5t-8 -4.5h-183q-7 0 -10 6zM368 849q11 -14 24 -22q20 -13 37 -6q21 8 26 38q1 9 1 18q0 3 1.5 5t3.5 2h81q3 0 4.5 -2.5t1.5 -5.5 q-1 -6 -3 -11q-11 -53 -53 -86q-41 -33 -93 -33t-93 33t-53 86q-2 5 -2 11q-1 3 0.5 5.5t4.5 2.5h90q3 0 5 -4q6 -16 16 -30h1v-1zM353 543l-94 -241h189z" glyph-name="Abreve" unicode="Ă"/><glyph d="M153 683q-1 6 -2 11q-1 3 1 5.5t5 2.5h99q4 0 6 -4q7 -16 18 -29q0 -1 1 -1v-1q12 -14 26 -22q23 -13 42 -6q23 8 28 38q1 9 1 18q0 3 1.5 5t4.5 2h90q3 0 4.5 -2.5t1.5 -5.5q-1 -5 -2 -11q-13 -53 -59 -86t-103.5 -33t-103.5 33t-59 86zM598 14q2 -5 -1 -9.5t-8 -4.5 h-200q-4 0 -7 3t-3 7v31q-70 -53 -168 -53q-57 0 -102 23t-65 71q-19 52 -5.5 101t51.5 90q51 53 126.5 77.5t159.5 24.5h2h1q-2 36 -22 49q-19 11 -44 12.5t-48.5 -4.5t-49.5 -18t-45.5 -23.5t-38.5 -25.5q-4 -2 -8.5 -1t-6.5 5l-44 92q-2 3 -0.5 7.5t5.5 5.5 q38 16 88 26.5t105 14t108.5 -5.5t96 -29.5t69 -60.5t26.5 -95v-240zM379 205v83q-63 -6 -104 -54q-39 -46 -37 -95q2 -25 18 -36q18 -10 37.5 -7t37.5 14q48 32 48 95z" glyph-name="abreve" horiz-adv-x="631" unicode="ă"/><glyph d="M492 188h-254l65 -175q2 -5 -1 -9t-9 -4h-251q-5 0 -8 4.5t-1 9.5l234 599l-20 72q-1 5 2 9t8 4h234q7 0 9 -6l265 -678q2 -5 -1 -9.5t-8 -4.5h-128v-32q0 -6 -7 -8l-6 -2h-1q-4 -1 -9 -3q-15 -7 -27 -19.5t-16 -26.5v-1q-4 -14 -2 -25q5 -18 21 -23q15 -4 33 4 q12 6 22 15v1q16 14 21 33l2 7q2 6 9 6h89q9 0 9 -8v-9q0 -13 -4 -25q-12 -39 -56 -63q-42 -23 -96.5 -23t-97.5 23q-43 25 -56 63q-4 12 -4 25.5t4 25.5q13 38 56 63q22 12 48 18zM353 543l-94 -241h189z" glyph-name="Aogonek" unicode="Ą"/><glyph d="M589 -73q10 0 10 -8v-9q0 -13 -4 -25q-13 -39 -56 -63t-97 -24t-97 24q-44 24 -56 63q-4 12 -4 25t4 26q12 38 56 62q16 9 34 15v28q-70 -53 -168 -53q-57 0 -102 23t-65 71q-19 52 -5.5 101t51.5 90q51 53 126.5 77.5t159.5 24.5h1.5h1.5q-2 36 -22 49q-19 11 -44 12.5 t-48.5 -4.5t-49.5 -18t-45.5 -23.5t-38.5 -25.5q-4 -2 -8.5 -1t-6.5 5l-44 92q-2 3 -0.5 7.5t5.5 5.5q38 16 88 26.5t105 14t108.5 -5.5t96 -29.5t69 -60.5t26.5 -95v-240l28 -70q2 -5 -1 -9.5t-8 -4.5h-128v-31q0 -7 -7 -9l-7 -1q-4 -1 -10 -4q-15 -6 -26.5 -18.5 t-15.5 -27.5v-1q-4 -14 -2 -25q4 -17 21 -22q14 -4 32 4q12 5 23 15q16 14 21 34l2 7q1 6 9 6h88zM379 205v83q-63 -6 -104 -54q-39 -46 -37 -95q2 -25 18 -36q18 -10 37.5 -7t37.5 14q48 32 48 95z" glyph-name="aogonek" horiz-adv-x="631" unicode="ą"/><glyph d="M755 115q-58 -67 -143 -99.5t-180 -32.5q-77 0 -143.5 20.5t-113 55.5t-79.5 82t-48.5 99.5t-15.5 108.5t15.5 108.5t48.5 99.5t79.5 82t113 55.5t143.5 20.5q86 0 164.5 -27t136.5 -82q3 -3 3 -7.5t-4 -7.5l-148 -125q-4 -3 -9 -2t-7 5q-43 80 -108 114q-60 31 -118 13 t-89 -79q-35 -67 -22 -167q12 -96 81 -164q81 -79 206 -94.5t224 39.5q8 4 13.5 -2.5t-0.5 -13.5zM473 903q3 0 5 -3q2 -4 0 -8l-75 -134q-4 -6 -8 -6h-78q-4 0 -5.5 3t-0.5 8l42 133q2 7 9 7h111z" glyph-name="Cacute" horiz-adv-x="789" unicode="Ć"/><glyph d="M215 551q-3 0 -5 3t-1 7l43 134q2 7 8 7h111q4 0 6 -3q2 -5 0 -8l-75 -134q-4 -6 -9 -6h-78zM552.5 94.5q5.5 -6.5 -0.5 -13.5q-77 -91 -231 -91q-125 0 -207 70t-82 192t82.5 192t206.5 70q139 0 215 -75q4 -3 3.5 -7.5t-3.5 -7.5l-118 -101q-4 -3 -9 -2t-7 6 q-12 29 -27 52q-19 29 -45 50t-54 14q-33 -8 -50 -60q-18 -55 -8 -122q12 -75 57 -127.5t118 -62.5q17 -2 34 -2q62 0 112 28q8 4 13.5 -2.5z" glyph-name="cacute" horiz-adv-x="587" unicode="ć"/><glyph d="M755 115q-58 -67 -143 -99.5t-180 -32.5q-96 0 -174 31.5t-126 83t-74 117t-26.5 134.5t25.5 134.5t74 117t126.5 83t174.5 31.5q86 0 164.5 -27t136.5 -82q3 -3 3 -7.5t-4 -7.5l-148 -125q-4 -3 -9 -2t-7 5q-43 80 -108 114q-60 31 -118 13t-89 -79q-35 -67 -22 -167 q12 -96 81 -164q81 -79 206 -94.5t224 39.5q8 4 13.5 -2.5t-0.5 -13.5zM395 831l56 69q2 3 8 3h93q6 0 9 -3.5t0 -7.5l-111 -136q-3 -4 -9 -4h-93q-5 0 -8 4l-111 136q-3 4 -0.5 7.5t8.5 3.5h93q6 0 9 -3z" glyph-name="Ccaron" horiz-adv-x="789" unicode="Č"/><glyph d="M238 554l-111 137q-3 4 0 7.5t9 3.5h93q6 0 9 -3l55 -69l56 69q3 3 9 3h93q6 0 8.5 -3.5t-0.5 -7.5l-111 -137q-2 -3 -8 -3h-93q-6 0 -9 3zM552.5 94.5q5.5 -6.5 -0.5 -13.5q-77 -91 -231 -91q-125 0 -207 70t-82 192t82.5 192t206.5 70q139 0 215 -75q4 -3 3.5 -7.5 t-3.5 -7.5l-118 -101q-4 -3 -9 -2t-7 6q-12 29 -27 52q-19 29 -45 50t-54 14q-33 -8 -50 -60q-18 -55 -8 -122q12 -75 57 -127.5t118 -62.5q17 -2 34 -2q62 0 112 28q8 4 13.5 -2.5z" glyph-name="ccaron" horiz-adv-x="587" unicode="č"/><glyph d="M61 614l-28 70q-2 5 1 9.5t8 4.5h356q75 0 135 -30t97 -79t57 -112t20 -128.5t-20 -128t-57 -111.5t-97 -79t-135 -30h-356q-5 0 -8 4.5t-1 9.5l28 70v530zM313 900l56 -69l56 69q3 3 9 3h93q6 0 8.5 -3.5t-0.5 -7.5l-111 -136q-3 -4 -8 -4h-93q-6 0 -9 4l-111 136 q-3 4 0 7.5t9 3.5h93q6 0 8 -3zM252 582v-466h100q43 0 77.5 25.5t52 66.5t26 91t0 99.5t-26 91t-52 67t-77.5 25.5h-100z" glyph-name="Dcaron" horiz-adv-x="739" unicode="Ď"/><glyph d="M832 699q2 -5 0 -8l-75 -134q-4 -6 -8 -6h-78q-4 0 -5.5 3t-0.5 7l42 134q2 7 9 7h111q4 0 5 -3zM623 84l28 -70q2 -5 -1 -9.5t-8 -4.5h-199q-4 0 -7 3t-3 7v40q-44 -42 -94 -55q-56 -15 -113 1q-84 24 -139 98t-55 161q0 96 56 166q53 65 134 85q35 8 70 6 q85 -5 141 -53v111l-34 56q-3 4 -1 8.5t6 6.5l36 11l171 46q4 2 8 -1.5t4 -8.5v-604zM424 175q15 52 0 117q-17 74 -62 111q-40 33 -79 21q-36 -10 -51 -52q-19 -50 -1 -126q15 -64 50 -104q34 -38 71 -37q6 0 13 2q5 1 11 4q34 15 48 64z" glyph-name="dcaron" horiz-adv-x="865" unicode="ď"/><glyph d="M682 667q6 0 6 -8v-61q0 -8 -6 -8h-59v-506l28 -70q2 -5 -1 -9.5t-8 -4.5h-199q-4 0 -7 3t-3 7v40q-44 -42 -94 -55q-56 -15 -113 1q-84 24 -139 98t-55 161q0 96 56 166q53 65 134 85q35 8 70 6q85 -5 141 -53v111l-13 20h-59q-6 0 -6 8v61q0 8 6 8h136l114 31 q4 2 8 -1.5t4 -8.5v-21h59zM424 175q15 52 0 117q-17 74 -62 111q-40 33 -79 21q-36 -10 -51 -52q-19 -50 -1 -126q15 -64 50 -104q34 -38 71 -37q6 0 13 2q5 1 11 4q34 15 48 64z" glyph-name="dcroat" horiz-adv-x="720" unicode="đ"/><glyph d="M252 583v-134h263q4 0 7 -3t3 -8v-133q0 -5 -3.5 -8t-7.5 -3l-262 37v-216l356 45q5 1 8.5 -2t3.5 -8v-140q0 -4 -3 -7t-8 -3h-567q-5 0 -8 4.5t-1 9.5l28 70v530l-28 70q-2 5 1 9.5t8 4.5h546q5 0 8 -3t3 -7v-136q0 -4 -3.5 -7t-8.5 -3zM190 792q-6 0 -6 7v62q0 7 6 7 h271q7 0 7 -7v-62q0 -7 -7 -7h-271z" glyph-name="Emacron" horiz-adv-x="652" unicode="Ē"/><glyph d="M161 590q-7 0 -7 8v61q0 8 7 8h271q6 0 6 -8v-61q0 -8 -6 -8h-271zM518 275l-111 -35l-168 -54v-2q16 -46 59 -76t95 -37q17 -2 34 -2q62 0 112 28q8 4 13.5 -2.5t-0.5 -13.5q-77 -91 -231 -91q-125 0 -207 70t-82 192t81.5 192t206.5 70q226 0 240 -218q1 -8 -7 -10z M381 310q2 24 -5 49q-10 40 -36.5 66.5t-63.5 17.5l-6 -2q-33 -13 -47 -66q-14 -51 -4 -116z" glyph-name="emacron" horiz-adv-x="592" unicode="ē"/><glyph d="M252 583v-134h263q4 0 7 -3t3 -8v-133q0 -5 -3.5 -8t-7.5 -3l-262 37v-216l356 45q5 1 8.5 -2t3.5 -8v-140q0 -4 -3 -7t-8 -3h-567q-5 0 -8 4.5t-1 9.5l28 70v530l-28 70q-2 5 1 9.5t8 4.5h546q5 0 8 -3t3 -7v-136q0 -4 -3.5 -7t-8.5 -3zM280 868q18 21 45 21h1 q28 0 46 -21q14 -16 14 -38q0 -25 -17.5 -42t-42.5 -17h-1q-24 0 -41.5 17.5t-17.5 41.5q0 22 14 38z" glyph-name="Edotaccent" horiz-adv-x="652" unicode="Ė"/><glyph d="M296 570q-25 0 -42.5 17t-17.5 42q0 21 14 38q18 21 46 21h1q27 0 45 -21q14 -17 14 -38q0 -25 -17.5 -42.5t-41.5 -16.5h-1zM518 275l-111 -35l-168 -54v-2q16 -46 59 -76t95 -37q17 -2 34 -2q62 0 112 28q8 4 13.5 -2.5t-0.5 -13.5q-77 -91 -231 -91q-125 0 -207 70 t-82 192t81.5 192t206.5 70q226 0 240 -218q1 -8 -7 -10zM381 310q2 24 -5 49q-10 40 -36.5 66.5t-63.5 17.5l-6 -2q-33 -13 -47 -66q-14 -51 -4 -116z" glyph-name="edotaccent" horiz-adv-x="592" unicode="ė"/><glyph d="M587 542l-335 41v-134h263q4 0 7 -3t3 -8v-133q0 -5 -3.5 -8t-7.5 -3l-262 37v-216l356 45q5 1 8.5 -2t3.5 -8v-140q0 -4 -3 -7t-8 -3h-127v-32q0 -6 -7 -8l-7 -2q-4 -1 -10 -3q-15 -7 -26.5 -19.5t-15.5 -26.5v-1q-4 -14 -2 -25q4 -18 21 -23q14 -4 32 4q12 6 23 15v1 q16 14 21 33l2 7q1 6 9 6h88q10 0 10 -8v-9q0 -13 -4 -25q-13 -39 -56 -63q-43 -23 -97 -23t-97 23q-44 25 -56 63q-4 12 -4 25.5t4 25.5q12 38 56 63l4 2h-328q-5 0 -8 4.5t-1 9.5l28 70v530l-28 70q-2 5 1 9.5t8 4.5h546q5 0 8 -3t3 -7v-136q0 -4 -3.5 -7t-8.5 -3z" glyph-name="Eogonek" horiz-adv-x="652" unicode="Ę"/><glyph d="M518 275l-111 -35l-168 -54v-2q16 -46 59 -76t95 -37q17 -2 34 -2q62 0 112 28q8 4 13.5 -2.5t-0.5 -13.5q-77 -91 -231 -91h-6v-21q0 -7 -7 -9l-7 -1q-4 -1 -9 -4q-15 -6 -27 -18.5t-16 -27.5v-1q-4 -14 -2 -25q4 -17 21 -22q14 -4 33 4q11 5 22 15q16 14 21 34l2 7 q2 6 9 6h89q9 0 9 -8v-9q0 -13 -4 -25q-12 -39 -56 -63q-43 -24 -97 -24t-97 24t-56 63q-4 12 -4 25t4 26q13 38 56 62q7 4 15 7q-83 26 -132.5 90t-49.5 157q0 122 81.5 192t206.5 70q226 0 240 -218q1 -8 -7 -10zM381 310q2 24 -5 49q-10 40 -36.5 66.5t-63.5 17.5l-6 -2 q-33 -13 -47 -66q-14 -51 -4 -116z" glyph-name="eogonek" horiz-adv-x="592" unicode="ę"/><glyph d="M252 583v-134h263q4 0 7 -3t3 -8v-133q0 -5 -3.5 -8t-7.5 -3l-262 37v-216l356 45q5 1 8.5 -2t3.5 -8v-140q0 -4 -3 -7t-8 -3h-567q-5 0 -8 4.5t-1 9.5l28 70v530l-28 70q-2 5 1 9.5t8 4.5h546q5 0 8 -3t3 -7v-136q0 -4 -3.5 -7t-8.5 -3zM326 831l56 69q3 3 8 3h93 q6 0 9 -3.5t0 -7.5l-111 -136q-3 -4 -9 -4h-93q-5 0 -8 4l-111 136q-3 4 0 7.5t8 3.5h94q5 0 8 -3z" glyph-name="Ecaron" horiz-adv-x="652" unicode="Ě"/><glyph d="M518 275l-111 -35l-168 -54v-2q16 -46 59 -76t95 -37q17 -2 34 -2q62 0 112 28q8 4 13.5 -2.5t-0.5 -13.5q-77 -91 -231 -91q-125 0 -207 70t-82 192t81.5 192t206.5 70q226 0 240 -218q1 -8 -7 -10zM381 310q2 24 -5 49q-10 40 -36.5 66.5t-63.5 17.5l-6 -2 q-33 -13 -47 -66q-14 -51 -4 -116zM241 554l-111 137q-3 4 0 7.5t9 3.5h93q5 0 8 -3l56 -69l56 69q3 3 8 3h94q5 0 8 -3.5t0 -7.5l-111 -137q-3 -3 -8 -3h-93q-6 0 -9 3z" glyph-name="ecaron" horiz-adv-x="592" unicode="ě"/><glyph d="M647 31q-95 -48 -215 -48q-189 0 -300 115q-49 50 -74.5 116t-25.5 137q0 79 32 150q44 96 133 153q99 61 235 61q86 0 164.5 -27t136.5 -82q3 -3 3 -7.5t-3 -7.5l-149 -125q-4 -3 -8.5 -2t-7.5 5v1q-6 11 -12 21q-43 68 -104 96q-56 25 -110 9q-40 -13 -69 -47 q-19 -24 -31 -56q-22 -61 -11 -141v-2q10 -77 58.5 -131t124.5 -81q60 -21 111 -19q20 1 32 5q9 4 9 7l1 1v188l-29 74q-2 5 1.5 9.5t8.5 4.5h228q6 0 9 -4.5t1 -9.5l-28 -74v-327q0 -6 -5 -9t-10 0zM374 869h1v-1q12 -14 26 -22q23 -13 42 -6q22 8 28 38q1 9 1 19 q0 2 1.5 4t4.5 2h90q3 0 4.5 -2t1.5 -5q-1 -6 -3 -12q-13 -53 -59 -86q-45 -33 -103 -33t-103 33q-46 34 -59 86l-2 12q-1 3 1 5t5 2h99q4 0 6 -3q7 -17 18 -30v-1z" glyph-name="Gbreve" horiz-adv-x="818" unicode="Ğ"/><glyph d="M481 29q44 8 80 -2t57.5 -33.5t32.5 -55t7 -67.5t-21 -69q-4 -8 -18 -7h-4h-64q-4 0 -6 2q-1 1 -1.5 2t-0.5 2q0 3 1 5v1v1q19 25 0.5 42.5t-56.5 6.5q-60 -18 -140.5 -36.5t-122.5 -18.5q-135 -2 -180 92q-29 61 3.5 131t88.5 94q-42 29 -65.5 70.5t-27 84.5t14 86 t51.5 76.5t92 54.5t131 21q80 0 144 -26q34 79 96 115q10 6 14 -4l57 -123q3 -5 0.5 -9.5t-8.5 -4.5q-47 -5 -81 -23q57 -53 66 -126.5t-36 -136.5q-55 -78 -171 -102q-31 -7 -92.5 -8t-95.5 -9q-18 -4 -28.5 -15t-11.5 -23.5t4.5 -24t20.5 -17.5t35 -2q26 5 111.5 27 t123.5 29zM239 372q-11 -42 3 -93q16 -60 55 -98t78 -30t53 60q10 43 -3 94q-16 60 -56 98q-38 36 -75 30q-42 -6 -55 -61zM183 683q-1 6 -2 11q-1 3 1 5.5t5 2.5h99q4 0 6 -4q7 -16 18 -29v-1l1 -1q12 -14 26 -22q23 -13 42 -6q22 8 28 38q1 9 1 18q0 3 1.5 5t4.5 2h90 q3 0 4.5 -2.5t1.5 -5.5q-1 -5 -2 -11q-14 -53 -59 -86q-46 -33 -104 -33t-103 33q-46 33 -59 86z" glyph-name="gbreve" horiz-adv-x="691" unicode="ğ"/><glyph d="M269 614v-530l28 -70q2 -5 -1 -9.5t-8 -4.5h-228q-6 0 -9 4.5t-1 9.5l28 70v530l-28 70q-2 5 1 9.5t9 4.5h228q5 0 8 -4.5t1 -9.5zM38 792q-6 0 -6 7v62q0 7 6 7h271q6 0 6 -7v-62q0 -7 -6 -7h-271z" glyph-name="Imacron" horiz-adv-x="347" unicode="Ī"/><glyph d="M309 667q6 0 6 -8v-61q0 -8 -6 -8h-271q-6 0 -6 8v61q0 8 6 8h271zM272 84l28 -70q2 -5 -1 -9.5t-8 -4.5h-228q-6 0 -9 4.5t-1 9.5l29 70v287l-34 56q-3 4 -1 8.5t6 6.5l36 11l170 47q5 1 9 -2t4 -8v-406z" glyph-name="imacron" horiz-adv-x="347" unicode="ī"/><glyph d="M252 614v-530l28 -70q2 -5 -1 -9.5t-9 -4.5h-228q-5 0 -8 4.5t-1 9.5l28 70v530l-28 70q-2 5 1 9.5t8 4.5h228q6 0 9 -4.5t1 -9.5zM110 868q18 21 46 21h1q28 0 45 -21q14 -16 14 -38q0 -25 -17.5 -42t-41.5 -17h-1q-25 0 -42 17.5t-17 41.5q0 22 13 38z" glyph-name="Idotaccent" horiz-adv-x="313" unicode="İ"/><glyph d="M286 14q2 -5 -1 -9.5t-8 -4.5h-228q-6 0 -9 4.5t-1 9.5l28 70v287l-34 56q-2 4 -0.5 8.5t6.5 6.5l35 11h1l170 47q5 1 9 -2t4 -8v-406z" glyph-name="dotlessi" horiz-adv-x="319" unicode="ı"/><glyph d="M647.5 181.5q3.5 -3.5 3.5 -8.5v-162q0 -5 -3 -8t-7 -3h-522q-5 0 -8.5 4.5t-1.5 9.5l29 71v78l-49 -28q-8 -6 -14 3l-42 70q-5 9 4 14l101 60v333l-29 70q-2 5 1.5 9.5t8.5 4.5h228q6 0 9 -4.5t1 -9.5l-28 -70v-219l214 128q9 5 14 -3l42 -70q5 -9 -4 -15l-266 -159 v-161l310 68q5 1 8.5 -2.5z" glyph-name="Lslash" horiz-adv-x="683" unicode="Ł"/><glyph d="M494 335q5 -9 -3 -14l-129 -76v-161l28 -70q2 -5 -1 -9.5t-8 -4.5h-228q-5 0 -8 4.5t-1 9.5l28 70v47l-34 -21l-49 -28q-8 -6 -14 3l-42 70q-5 9 4 14l101 60l34 21v320l-34 56q-3 4 -1 8.5t6 6.5l36 11l171 46q4 2 8 -1t4 -9v-324l76 45q9 5 14 -4z" glyph-name="lslash" horiz-adv-x="528" unicode="ł"/><glyph d="M586 207v379l-39 98q-2 5 1 9.5t8 4.5h174q5 0 8 -4.5t1 -9.5l-39 -98v-576q0 -4 -3 -7t-8 -3h-206q-5 0 -8 5l-289 486v-379l39 -98q2 -5 -1 -9.5t-8 -4.5h-174q-5 0 -8 4.5t-1 9.5l39 98v502l-28 70q-2 5 1 9.5t9 4.5h234q6 0 9 -5zM464 903q4 0 5 -3q2 -4 0 -8 l-75 -134q-3 -6 -8 -6h-78q-4 0 -5.5 3t-0.5 8l42 133q3 7 9 7h111z" glyph-name="Nacute" horiz-adv-x="772" unicode="Ń"/><glyph d="M240 551q-4 0 -5.5 3t-0.5 7l42 134q3 7 9 7h111q4 0 5 -3q2 -5 0 -8l-75 -134q-3 -6 -8 -6h-78zM603 14q2 -5 -1 -9.5t-8 -4.5h-228q-6 0 -9 4.5t-1 9.5l28 70v263q0 30 -14 38q-19 10 -65 -16q-25 -14 -47 -32v-253l28 -70q2 -5 -1 -9.5t-8 -4.5h-228q-6 0 -9 4.5 t-1 9.5l26 65v295l-32 53q-2 4 0 9t6 6l206 58q5 1 9 -2t4 -8v-53q46 36 73 51q44 24 104 24q65 -1 102.5 -39.5t37.5 -103.5v-285z" glyph-name="nacute" horiz-adv-x="636" unicode="ń"/><glyph d="M586 207v379l-39 98q-2 5 1 9.5t8 4.5h174q5 0 8 -4.5t1 -9.5l-39 -98v-576q0 -4 -3 -7t-8 -3h-206q-5 0 -8 5l-289 486v-379l39 -98q2 -5 -1 -9.5t-8 -4.5h-174q-5 0 -8 4.5t-1 9.5l39 98v502l-28 70q-2 5 1 9.5t9 4.5h234q6 0 9 -5zM386 831l56 69q3 3 8 3h93 q6 0 9 -3.5t0 -7.5l-111 -136q-3 -4 -9 -4h-93q-5 0 -8 4l-111 136q-3 4 0 7.5t8 3.5h94q5 0 8 -3z" glyph-name="Ncaron" horiz-adv-x="772" unicode="Ň"/><glyph d="M263 554l-111 137q-3 4 0 7.5t8 3.5h93q6 0 9 -3l56 -69l56 69q3 3 8 3h93q6 0 9 -3.5t0 -7.5l-111 -137q-3 -3 -9 -3h-93q-5 0 -8 3zM603 14q2 -5 -1 -9.5t-8 -4.5h-228q-6 0 -9 4.5t-1 9.5l28 70v263q0 30 -14 38q-19 10 -65 -16q-25 -14 -47 -32v-253l28 -70 q2 -5 -1 -9.5t-8 -4.5h-228q-6 0 -9 4.5t-1 9.5l26 65v295l-32 53q-2 4 0 9t6 6l206 58q5 1 9 -2t4 -8v-53q46 36 73 51q44 24 104 24q65 -1 102.5 -39.5t37.5 -103.5v-285z" glyph-name="ncaron" horiz-adv-x="636" unicode="ň"/><glyph d="M417 -17q-93 0 -168 31.5t-121 83t-71 117t-25 134.5t25 134.5t71 117t121 83t168 31.5q95 0 172.5 -31.5t125 -83t73.5 -117t26 -134.5t-26 -134.5t-73.5 -117t-125 -83t-172.5 -31.5zM281 799v62q0 7 6 7h271q6 0 6 -7v-62q0 -7 -6 -7h-271q-6 0 -6 7zM333 140 q74 -76 153 -69q26 3 48 14q55 30 78 105q24 79 2 175q-26 116 -102 193q-74 76 -153 69q-25 -3 -48 -14q-55 -30 -78 -105q-24 -79 -2 -175q26 -116 102 -193z" glyph-name="Omacron" horiz-adv-x="845" unicode="Ō"/><glyph d="M186 590q-6 0 -6 8v61q0 8 6 8h271q6 0 6 -8v-61q0 -8 -6 -8h-271zM321 514q125 0 207.5 -69.5t82.5 -192.5t-82.5 -192.5t-207.5 -69.5t-207 70t-82 192t82.5 192t206.5 70zM421 130q16 63 -3 144t-62 131q-41 47 -79.5 38t-54.5 -69q-16 -64 3 -145t62 -131 q41 -47 79.5 -38t54.5 70z" glyph-name="omacron" horiz-adv-x="643" unicode="ō"/><glyph d="M417 -17q-83 0 -152 25t-114 67.5t-76.5 97t-38 115.5t0 121.5t38 115.5t76.5 97.5t114 67.5t152 25q85 0 156.5 -25t117.5 -67.5t78 -97.5t39 -115.5t0 -121.5t-39 -115.5t-78 -97t-117.5 -67.5t-156.5 -25zM292 903h110q4 0 6 -3q2 -4 0 -8l-75 -134q-4 -6 -9 -6h-77 q-4 0 -6 3t0 8l42 133q2 7 9 7zM488 903h110q4 0 6 -3q2 -4 0 -8l-75 -134q-4 -6 -9 -6h-77q-4 0 -6 3t0 8l42 133q2 7 9 7zM333 140q74 -76 153 -69q26 3 48 14q55 30 78 105q24 79 2 175q-26 116 -102 193q-74 76 -153 69q-25 -3 -48 -14q-55 -30 -78 -105 q-24 -79 -2 -175q26 -116 102 -193z" glyph-name="Ohungarumlaut" horiz-adv-x="845" unicode="Ő"/><glyph d="M321 514q125 0 207.5 -69.5t82.5 -192.5t-82.5 -192.5t-207.5 -69.5t-207 70t-82 192t82.5 192t206.5 70zM421 130q16 63 -3 144t-62 131q-41 47 -79.5 38t-54.5 -69q-16 -64 3 -145t62 -131q41 -47 79.5 -38t54.5 70zM342 551q-4 0 -6 3t0 7l42 134q2 7 9 7h110 q4 0 6 -3q2 -5 0 -8l-75 -134q-4 -6 -9 -6h-77zM146 551q-4 0 -6 3t0 7l42 134q2 7 9 7h110q4 0 6 -3q2 -5 0 -8l-75 -134q-4 -6 -9 -6h-77z" glyph-name="ohungarumlaut" horiz-adv-x="643" unicode="ő"/><glyph d="M417 -17q-83 0 -152 25t-114 67.5t-76.5 97t-38 115.5t0 121.5t38 115.5t76.5 97.5t114 67.5t152 25q100 0 180 -34l-1 3q-2 5 1 9.5t9 4.5h546q4 0 7 -3t3 -7v-136q0 -4 -3.5 -7t-7.5 -3l-336 41v-134h263q5 0 8 -3t3 -8v-133q0 -5 -3.5 -8t-8.5 -3l-262 37v-216l356 45 q5 1 8.5 -2t3.5 -8v-140q0 -4 -3 -7t-7 -3h-567q-6 0 -9 4.5t-1 9.5l1 3q-80 -34 -180 -34zM333 140q74 -76 153 -69q26 3 48 14q55 30 78 105q12 41 12 87q0 43 -10 88q-26 116 -102 193q-74 76 -153 69q-25 -3 -48 -14q-55 -30 -78 -105q-24 -79 -2 -175q26 -116 102 -193 z" glyph-name="OE" horiz-adv-x="1215" unicode="Œ"/><glyph d="M904 275l-110 -35l-169 -54q0 -1 1 -2q15 -46 58 -76t95 -37q17 -3 35 -3q61 0 112 29q7 4 12.5 -2.5t-0.5 -13.5q-77 -91 -231 -91q-115 0 -192 58q-79 -58 -194 -58q-125 0 -207 70t-82 192t82.5 192t206.5 70q115 0 193 -59q78 59 192 59q226 0 240 -218q1 -8 -7 -10z M421 130q15 59 -5 144t-60 131q-41 47 -79.5 38t-54.5 -69q-16 -64 3 -145t62 -131q41 -47 79.5 -38t54.5 70zM767 310q2 24 -5 49q-10 40 -36 66.5t-63 17.5q-4 -1 -7 -2q-33 -13 -47 -66q-6 -27 -5.5 -52t3.5 -44l4 -19z" glyph-name="oe" horiz-adv-x="978" unicode="œ"/><glyph d="M284 753q-4 0 -5.5 3t-0.5 7l42 134q2 7 9 7h111q4 0 5 -3q2 -5 0 -8l-75 -134q-4 -6 -8 -6h-78zM603 98l58 -81q4 -5 1 -11t-9 -6h-213q-6 0 -9 5l-120 182h-59v-102l28 -71q2 -5 -1 -9.5t-9 -4.5h-228q-5 0 -8 4.5t-1 9.5l28 71v530l-28 70q-2 5 1 9.5t8 4.5h341 q143 0 228 -76q78 -70 80 -172q3 -77 -41 -141q-43 -64 -121 -96zM337 303q43 0 77.5 15.5t52 40t26 54.5t0 60t-26 54.5t-52 40t-77.5 15.5h-85v-280h85z" glyph-name="Racute" horiz-adv-x="724" unicode="Ŕ"/><glyph d="M431 507q7 -2 7 -10v-151q0 -7 -6 -9.5t-11 2.5q-39 41 -98 30q-22 -4 -41 -16t-23 -30q-1 -4 -1 -8v-231l28 -70q2 -5 -1 -9.5t-8 -4.5h-228q-6 0 -9 4.5t-1 9.5l28 70v287l-34 56q-2 4 -0.5 8.5t6.5 6.5l35 11h1l170 47q5 1 9 -2t4 -8v-36q35 32 80 48q51 18 93 5z M157 551q-3 0 -5 3t-1 7l42 134q3 7 9 7h111q4 0 6 -3q2 -5 0 -8l-76 -134q-3 -6 -8 -6h-78z" glyph-name="racute" horiz-adv-x="470" unicode="ŕ"/><glyph d="M307 756l-111 137q-3 4 -0.5 7.5t8.5 3.5h93q6 0 9 -3l56 -69l56 69q3 3 8 3h93q6 0 9 -3.5t0 -7.5l-111 -137q-3 -3 -9 -3h-93q-5 0 -8 3zM603 98l58 -81q4 -5 1 -11t-9 -6h-213q-6 0 -9 5l-120 182h-59v-102l28 -71q2 -5 -1 -9.5t-9 -4.5h-228q-5 0 -8 4.5t-1 9.5 l28 71v530l-28 70q-2 5 1 9.5t8 4.5h341q143 0 228 -76q78 -70 80 -172q3 -77 -41 -141q-43 -64 -121 -96zM337 303q43 0 77.5 15.5t52 40t26 54.5t0 60t-26 54.5t-52 40t-77.5 15.5h-85v-280h85z" glyph-name="Rcaron" horiz-adv-x="724" unicode="Ř"/><glyph d="M180 554l-111 137q-3 4 0 7.5t9 3.5h93q5 0 8 -3l56 -69l56 69q3 3 9 3h93q6 0 8.5 -3.5t-0.5 -7.5l-111 -137q-3 -3 -8 -3h-93q-6 0 -9 3zM431 507q7 -2 7 -10v-151q0 -7 -6 -9.5t-11 2.5q-39 41 -98 30q-22 -4 -41 -16t-23 -30q-1 -4 -1 -8v-231l28 -70q2 -5 -1 -9.5 t-8 -4.5h-228q-6 0 -9 4.5t-1 9.5l28 70v287l-34 56q-2 4 -0.5 8.5t6.5 6.5l35 11h1l170 47q5 1 9 -2t4 -8v-36q35 32 80 48q51 18 93 5z" glyph-name="rcaron" horiz-adv-x="470" unicode="ř"/><glyph d="M272 753q-4 0 -5.5 3t-0.5 7l42 134q3 7 9 7h111q4 0 6 -3q2 -5 -1 -8l-75 -134q-3 -6 -8 -6h-78zM668 214q5 -77 -60 -143q-86 -88 -278 -88q-145 0 -293 92q-4 2 -5 6.5t2 8.5l97 137q3 4 8 4.5t8 -3.5q41 -46 102 -85q67 -43 127 -58q64 -16 96 7q10 7 16 18 q7 12 2 31q-6 23 -28 45q-25 27 -69.5 53t-88 47t-86 45t-75 56t-45.5 71q-12 35 -7 72q10 74 77 124q83 62 214 62q69 0 128 -17t125 -52q4 -3 5 -7.5t-1 -7.5l-100 -142q-3 -5 -9 -4.5t-8 5.5q-34 59 -89.5 101t-116.5 41q-36 0 -51 -25q-12 -20 -3 -47q11 -31 47 -55 q26 -18 72 -42q14 -8 41.5 -22t41.5 -21q35 -19 58 -33t55 -36.5t53.5 -49t30.5 -54.5q6 -17 7 -34z" glyph-name="Sacute" horiz-adv-x="700" unicode="Ś"/><glyph d="M184 551q-4 0 -6 3t0 7l42 134q2 7 9 7h110q4 0 6 -3q2 -5 0 -8l-75 -134q-4 -6 -9 -6h-77zM365 318q58 -29 92 -65.5t34 -90.5q0 -48 -21.5 -83.5t-58 -54.5t-77.5 -27.5t-86 -8.5q-111 0 -211 62q-4 2 -5 6.5t2 7.5l79 111q2 4 7 4.5t8 -2.5q28 -28 39.5 -39t36 -31 t45.5 -31q17 -9 38 -12q13 -1 27 -1t25.5 7.5t11.5 21.5q0 20 -44 46q-17 10 -49 25q-48 23 -56 27q-30 16 -51 29q-44 27 -65 56q-14 20 -19 45q-10 53 22 105q17 28 42 47q54 40 156 40q100 0 184 -45q4 -3 5 -7.5t-2 -7.5l-71 -102q-3 -4 -8 -4.5t-8 2.5q-2 2 -5 6 q-25 24 -41 38.5t-43.5 31t-48.5 16.5q-34 -1 -34 -22.5t26 -38.5q17 -12 55 -29q58 -27 69 -32z" glyph-name="sacute" horiz-adv-x="523" unicode="ś"/><glyph d="M668 214q5 -77 -60 -143q-56 -58 -153 -77q37 -24 48 -58q4 -13 4 -26t-4 -25q-12 -39 -56 -63q-43 -24 -97 -24t-97 24t-56 63q-4 12 -4 25v9q0 8 10 8h88q8 0 10 -6l1 -7q5 -19 21 -34q1 0 1 -1q10 -9 22 -14q18 -8 32 -4q17 5 21 22q2 12 -2 26v1q-9 31 -42 45 q-6 3 -10 4l-7 2q-7 1 -7 8v14h-1q-145 0 -293 92q-4 2 -5 6.5t2 8.5l97 137q3 4 8 4.5t8 -3.5q41 -46 102 -85q67 -43 127 -58q64 -16 96 7q10 7 16 18q7 12 2 31q-6 23 -28 45q-25 27 -69.5 53t-88 47t-86 45t-75 56t-45.5 71q-12 35 -7 72q10 74 77 124q83 62 214 62 q69 0 128 -17t125 -52q4 -3 5 -7.5t-1 -7.5l-100 -142q-3 -5 -9 -4.5t-8 5.5q-34 59 -89.5 101t-116.5 41q-36 0 -51 -25q-12 -20 -3 -47q11 -31 47 -55q26 -18 72 -42q14 -8 41.5 -22t41.5 -21q35 -19 58 -33t55 -36.5t53.5 -49t30.5 -54.5q6 -17 7 -34z" glyph-name="Scedilla" horiz-adv-x="700" unicode="Ş"/><glyph d="M491 162q0 -65 -38 -104.5t-100 -56.5q3 -1 5 -3q44 -24 56 -62q4 -13 4 -26t-4 -25q-12 -39 -56 -63q-42 -24 -96.5 -24t-96.5 24q-44 24 -56 63q-4 12 -4 25v8q0 9 9 9h89q7 0 9 -7l2 -6q5 -20 20 -34h1l1 -1q10 -9 21 -14q18 -8 33 -4q16 5 20 22q3 11 -2 26v1 q-9 31 -42 45l-10 4l-7 1q-6 2 -6 9v19q-109 2 -206 62q-4 2 -5 6.5t2 7.5l79 111q2 4 7 4.5t8 -2.5q28 -28 39.5 -39t36 -31t45.5 -31q17 -9 38 -12q13 -1 27 -1t25.5 7.5t11.5 21.5q0 20 -44 46q-17 10 -49 25q-48 23 -56 27q-30 16 -51 29q-44 27 -65 56q-14 20 -19 45 q-10 53 22 105q17 28 42 47q54 40 156 40q100 0 184 -45q4 -3 5 -7.5t-2 -7.5l-71 -102q-3 -4 -8 -4.5t-8 2.5q-2 2 -5 6q-25 24 -41 38.5t-43.5 31t-48.5 16.5q-34 -1 -34 -22.5t26 -38.5q17 -12 55 -29q58 -27 69 -32q58 -29 92 -65.5t34 -90.5z" glyph-name="scedilla" horiz-adv-x="523" unicode="ş"/><glyph d="M668 214q5 -77 -60 -143q-86 -88 -278 -88q-145 0 -293 92q-4 2 -5 6.5t2 8.5l97 137q3 4 8 4.5t8 -3.5q41 -46 102 -85q67 -43 127 -58q64 -16 96 7q10 7 16 18q7 12 2 31q-6 23 -28 45q-25 27 -69.5 53t-88 47t-86 45t-75 56t-45.5 71q-12 35 -7 72q10 74 77 124 q83 62 214 62q69 0 128 -17t125 -52q4 -3 5 -7.5t-1 -7.5l-100 -142q-3 -5 -9 -4.5t-8 5.5q-34 59 -89.5 101t-116.5 41q-36 0 -51 -25q-12 -20 -3 -47q11 -31 47 -55q26 -18 72 -42q14 -8 41.5 -22t41.5 -21q35 -19 58 -33t55 -36.5t53.5 -49t30.5 -54.5q6 -17 7 -34z M295 756l-111 137q-3 4 0 7.5t9 3.5h93q5 0 8 -3l56 -69l56 69q3 3 9 3h93q5 0 8 -3.5t0 -7.5l-111 -137q-3 -3 -8 -3h-93q-6 0 -9 3z" glyph-name="Scaron" horiz-adv-x="700" unicode="Š"/><glyph d="M365 318q58 -29 92 -65.5t34 -90.5q0 -48 -21.5 -83.5t-58 -54.5t-77.5 -27.5t-86 -8.5q-111 0 -211 62q-4 2 -5 6.5t2 7.5l79 111q2 4 7 4.5t8 -2.5q28 -28 39.5 -39t36 -31t45.5 -31q17 -9 38 -12q13 -1 27 -1t25.5 7.5t11.5 21.5q0 20 -44 46q-17 10 -49 25 q-48 23 -56 27q-30 16 -51 29q-44 27 -64 56q-15 20 -20 45q-10 53 22 105q17 28 42 47q54 40 156 40q100 0 184 -45q4 -3 5 -7.5t-2 -7.5l-71 -102q-3 -4 -8 -4.5t-8 2.5q-2 2 -5 6q-25 24 -41 38.5t-43.5 31t-48.5 16.5q-34 -1 -34 -22.5t26 -38.5q17 -12 55 -29 q58 -27 69 -32zM206 554l-111 137q-3 4 0 7.5t9 3.5h93q6 0 9 -3l55 -69l56 69q3 3 9 3h93q6 0 9 -3.5t0 -7.5l-111 -137q-3 -3 -9 -3h-93q-6 0 -9 3z" glyph-name="scaron" horiz-adv-x="523" unicode="š"/><glyph d="M233 792q-6 0 -6 8v61q0 8 6 8h271q7 0 7 -8v-61q0 -8 -7 -8h-271zM704 694.5q3 -4.5 1 -9.5l-28 -70v-438q0 -42 -21 -76.5t-57 -57t-82 -38.5t-97 -19.5t-102 0t-97.5 19.5t-82 38.5t-56.5 57t-21 76.5v438l-28 70q-2 5 1 9.5t8 4.5h228q6 0 9 -4.5t1 -9.5l-28 -70 v-442q0 -32 24 -54.5t58.5 -27.5t69 0t58.5 27.5t24 54.5v442l-28 70q-2 5 1 9.5t8 4.5h228q6 0 9 -4.5z" glyph-name="Umacron" horiz-adv-x="738" unicode="Ū"/><glyph d="M605 14q2 -5 -1 -9.5t-8 -4.5h-202q-4 0 -7 3t-3 7v53q-45 -36 -73 -51q-42 -24 -101 -24q-66 0 -104.5 38.5t-38.5 104.5v240l-34 56q-2 4 -0.5 8.5t6.5 6.5l35 11h1l170 47q5 1 9 -2t4 -8v-337q0 -30 14 -38q20 -10 66 16q31 17 48 32v208l-34 56q-2 4 -0.5 8.5 t6.5 6.5l35 11h1l170 47q5 1 9 -2t4 -8v-406zM189 590q-6 0 -6 8v61q0 8 6 8h271q6 0 6 -8v-61q0 -8 -6 -8h-271z" glyph-name="umacron" horiz-adv-x="638" unicode="ū"/><glyph d="M141 683q-1 5 -2 11q-1 3 1 5.5t5 2.5h100q3 0 5 -4q7 -16 18 -30h1v-1q12 -14 26 -22q23 -13 42 -6q23 8 28 38q1 9 1 18q0 3 2 5t4 2h90q3 0 5 -2.5t1 -5.5q-1 -6 -2 -11q-13 -53 -59 -86q-45 -33 -103 -33t-104 33t-59 86zM605 14q2 -5 -1 -9.5t-8 -4.5h-202 q-4 0 -7 3t-3 7v53q-45 -36 -73 -51q-42 -24 -101 -24q-66 0 -104.5 38.5t-38.5 104.5v240l-34 56q-2 4 -0.5 8.5t6.5 6.5l35 11h1l170 46q5 2 9 -1t4 -8v-337q0 -30 14 -38q20 -10 66 16q31 17 48 32v208l-34 56q-2 4 -0.5 8.5t6.5 6.5l35 11h1l170 46q5 2 9 -1t4 -8v-406z " glyph-name="ubreve" horiz-adv-x="638" unicode="ŭ"/><glyph d="M311 683q-36 15 -55 47t-16 68t26 64q35 42 101 42q75 0 110 -51q21 -29 20.5 -64.5t-20.5 -64.5q-19 -28 -52 -41q-26 -10 -58 -10q-31 0 -56 10zM320 827q-6 -19 0 -43q7 -27 26 -45q20 -19 40 -17q6 1 11 3q15 6 21 25.5t0 42.5q-7 27 -26 45q-20 19 -41 17 q-5 0 -10 -2q-15 -7 -21 -26zM704 694.5q3 -4.5 1 -9.5l-28 -70v-438q0 -42 -21 -76.5t-57 -57t-82 -38.5t-97 -19.5t-102 0t-97.5 19.5t-82 38.5t-56.5 57t-21 76.5v438l-28 70q-2 5 1 9.5t8 4.5h228q6 0 9 -4.5t1 -9.5l-28 -70v-442q0 -32 24 -54.5t58.5 -27.5t69 0 t58.5 27.5t24 54.5v442l-28 70q-2 5 1 9.5t8 4.5h228q6 0 9 -4.5z" glyph-name="Uring" horiz-adv-x="738" unicode="Ů"/><glyph d="M605 14q2 -5 -1 -9.5t-8 -4.5h-202q-4 0 -7 3t-3 7v53q-45 -36 -73 -51q-42 -24 -101 -24q-66 0 -104.5 38.5t-38.5 104.5v240l-34 56q-2 4 -0.5 8.5t6.5 6.5l35 11h1l159 44q-38 29 -43 78t25 85q35 42 101 42q75 0 110 -51q20 -29 20 -64.5t-20 -64.5q-19 -28 -52 -41 q-26 -10 -58 -10q-31 0 -56 10q-1 1 -3 1v-329q0 -30 14 -38q20 -10 66 16q31 17 48 32v208l-34 56q-2 4 -0.5 8.5t6.5 6.5l35 11h1l170 47q5 1 9 -2t4 -8v-406zM270 625q-6 -19 0 -43q7 -27 26 -45q20 -19 40 -17q6 1 11 3q15 6 21 25.5t0 42.5q-7 27 -26 45q-20 19 -41 17 q-5 0 -10 -2q-15 -7 -21 -26z" glyph-name="uring" horiz-adv-x="638" unicode="ů"/><glyph d="M389 753q-4 0 -5.5 3t-0.5 7l42 134q2 7 9 7h111q4 0 5 -3q2 -5 0 -8l-75 -134q-3 -6 -8 -6h-78zM704 694.5q3 -4.5 1 -9.5l-28 -70v-438q0 -42 -21 -76.5t-57 -57t-82 -38.5t-97 -19.5t-102 0t-97.5 19.5t-82 38.5t-56.5 57t-21 76.5v438l-28 70q-2 5 1 9.5t8 4.5h228 q6 0 9 -4.5t1 -9.5l-28 -70v-442q0 -32 24 -54.5t58.5 -27.5t69 0t58.5 27.5t24 54.5v442l-28 70q-2 5 1 9.5t8 4.5h228q6 0 9 -4.5zM193 753q-4 0 -5.5 3t-0.5 7l42 134q3 7 9 7h111q4 0 5 -3q2 -5 0 -8l-75 -134q-3 -6 -8 -6h-78z" glyph-name="Uhungarumlaut" horiz-adv-x="738" unicode="Ű"/><glyph d="M344 548q-3 0 -5 3t-1 7l42 134q3 7 9 7h111q4 0 6 -4t0 -8l-76 -133q-3 -6 -8 -6h-78zM148 548q-3 0 -5 3t-1 7l42 134q3 7 9 7h111q4 0 6 -4t0 -8l-76 -133q-3 -6 -8 -6h-78zM605 11q2 -5 -1 -9.5t-8 -4.5h-202q-4 0 -7 3t-3 7v53q-45 -36 -73 -51q-42 -24 -101 -24 q-66 0 -104.5 38.5t-38.5 104.5v240l-34 56q-2 4 -0.5 8.5t6.5 6.5l35 11h1l170 46q5 2 9 -1t4 -8v-337q0 -30 14 -38q20 -10 66 16q31 17 48 32v208l-34 56q-2 4 -0.5 8.5t6.5 6.5l35 11h1l170 46q5 2 9 -1t4 -8v-406z" glyph-name="uhungarumlaut" horiz-adv-x="638" unicode="ű"/><glyph d="M704 694.5q3 -4.5 1 -9.5l-28 -70v-438q0 -78 -68 -127t-172 -62v-19q0 -7 -6 -8l-7 -2q-5 -1 -10 -4q-15 -6 -26.5 -18.5t-15.5 -26.5q0 -1 -1 -2q-4 -14 -1 -25q4 -17 20 -22q15 -4 33 4q12 5 22 15h1q15 14 21 34l1 7q2 6 9 6h89q10 0 10 -8v-9q0 -13 -4 -25 q-13 -39 -56 -63t-97.5 -24t-96.5 24q-44 24 -56 63q-4 12 -4 25t4 26q9 29 38 51q-104 13 -173.5 62t-69.5 128v438l-28 70q-2 5 1 9.5t8 4.5h228q6 0 9 -4.5t1 -9.5l-28 -70v-442q0 -32 24 -54.5t58.5 -27.5t69 0t58.5 27.5t24 54.5v442l-28 70q-2 5 1 9.5t8 4.5h228 q6 0 9 -4.5z" glyph-name="Uogonek" horiz-adv-x="738" unicode="Ų"/><glyph d="M596 -73q10 0 10 -9v-8q0 -13 -4 -26q-13 -38 -56 -62t-97 -24t-97 24q-44 24 -56 62q-4 13 -4 26t4 26q12 38 56 62l4 2l28 13v50q-45 -36 -73 -51q-12 -7 -26 -12h-1v0l-1 -1h-1h-1v0l-1 -1h-1h-1h-1v-1h-1h-1q-1 0 -2 -1h-1h-1h-1v-1h-1h-1h-1v0l-1 -1h-1h-1h-1v0 l-1 -1h-1h-1h-1v0h-1l-1 -1h-1h-1v0h-1h-1h-1l-1 -1v0h-1h-1h-1h-1v0h-1h-1l-1 -1h-1h-2h-1h-2v0h-1l-1 -1h-1h-1q-12 -1 -24 -1q-66 0 -104.5 38.5t-38.5 104.5v240l-34 56q-2 4 -0.5 8.5t6.5 6.5l35 11h1l170 47q5 1 9 -2t4 -8v-337q0 -30 14 -38q20 -10 66 16 q31 17 48 32v208l-34 56q-2 4 -0.5 8.5t6.5 6.5l35 11h1l170 47q5 1 9 -2t4 -8v-406l28 -70q2 -5 -1 -9.5t-8 -4.5h-128v-31q0 -7 -7 -9l-7 -1q-4 -2 -10 -4q-15 -6 -26.5 -18.5t-15.5 -27.5v-1q-4 -14 -2 -25q4 -17 21 -22q14 -4 32 4q12 5 23 15q16 14 21 34l2 7q1 6 9 6 h88z" glyph-name="uogonek" horiz-adv-x="638" unicode="ų"/><glyph d="M315 772q-24 0 -41.5 17t-17.5 42q0 21 14 38q17 21 45 21h1q28 0 46 -21q14 -17 14 -38q0 -25 -17.5 -42.5t-42.5 -16.5h-1zM464 772q-25 0 -42.5 17t-17.5 42q0 21 14 38q18 21 46 21h1q27 0 45 -21q14 -17 14 -38q0 -25 -17.5 -42.5t-41.5 -16.5h-1zM746 683 l-260 -388v-210l28 -71q2 -5 -1 -9.5t-8 -4.5h-228q-6 0 -9 4.5t-1 9.5l28 71v215l-261 383q-4 5 -1 10.5t9 5.5h211q6 0 9 -4l176 -267l92 264q2 7 10 7h198q6 0 9 -5.5t-1 -10.5z" glyph-name="Ydieresis" horiz-adv-x="780" unicode="Ÿ"/><glyph d="M232 753q-3 0 -5 3t-1 7l43 134q2 7 8 7h111q4 0 6 -3q2 -5 0 -8l-75 -134q-4 -6 -9 -6h-78zM589 567q0 -4 -2 -6l-331 -443l321 38q5 1 8.5 -2t3.5 -8v-135q0 -5 -3 -8t-8 -3h-536q-4 0 -7 3t-3 8v122q0 3 2 6l330 443l-320 -39q-5 -1 -8.5 2.5t-3.5 7.5v136q0 4 3 7 t7 3h536q5 0 8 -3t3 -7v-122z" glyph-name="Zacute" horiz-adv-x="621" unicode="Ź"/><glyph d="M229 551q-4 0 -5.5 3t-0.5 7l42 134q3 7 9 7h111q4 0 5 -3q2 -5 0 -8l-75 -134q-3 -6 -8 -6h-78zM578 152q4 -3 4 -8v-134q0 -4 -3 -7t-7 -3h-530q-6 0 -9 5.5t1 10.5q153 217 270 392l-226 -62q-5 -1 -9 2t-4 8v134q0 4 3 7t8 3h496q6 0 9 -5.5t-1 -10.5l-269 -393 l258 63q5 1 9 -2z" glyph-name="zacute" horiz-adv-x="614" unicode="ź"/><glyph d="M310 772q-25 0 -42.5 17t-17.5 42q0 21 14 38q18 21 46 21h1q28 0 45 -21q14 -17 14 -38q0 -25 -17.5 -42.5t-41.5 -16.5h-1zM589 567q0 -4 -2 -6l-331 -443l321 38q5 1 8.5 -2t3.5 -8v-135q0 -5 -3 -8t-8 -3h-536q-4 0 -7 3t-3 8v122q0 3 2 6l330 443l-320 -39 q-5 -1 -8.5 2.5t-3.5 7.5v136q0 4 3 7t7 3h536q5 0 8 -3t3 -7v-122z" glyph-name="Zdotaccent" horiz-adv-x="621" unicode="Ż"/><glyph d="M306 570q-24 0 -41.5 17t-17.5 42q0 21 14 38q18 21 45 21h1h1q27 0 45 -21q14 -17 14 -38q0 -25 -17.5 -42.5t-42.5 -16.5h-1zM578 152q4 -3 4 -8v-134q0 -4 -3 -7t-7 -3h-530q-6 0 -9 5.5t1 10.5q153 217 270 392l-226 -62q-5 -1 -9 2t-4 8v134q0 4 3 7t8 3h496 q6 0 9 -5.5t-1 -10.5l-269 -393l258 63q5 1 9 -2z" glyph-name="zdotaccent" horiz-adv-x="614" unicode="ż"/><glyph d="M255 756l-111 137q-3 4 0 7.5t9 3.5h93q6 0 8 -3l56 -69l56 69q3 3 9 3h93q6 0 8.5 -3.5t-0.5 -7.5l-111 -137q-3 -3 -8 -3h-93q-6 0 -9 3zM589 567q0 -4 -2 -6l-331 -443l321 38q5 1 8.5 -2t3.5 -8v-135q0 -5 -3 -8t-8 -3h-536q-4 0 -7 3t-3 8v122q0 3 2 6l330 443 l-320 -39q-5 -1 -8.5 2.5t-3.5 7.5v136q0 4 3 7t7 3h536q5 0 8 -3t3 -7v-122z" glyph-name="Zcaron" horiz-adv-x="621" unicode="Ž"/><glyph d="M578 152q4 -3 4 -8v-134q0 -4 -3 -7t-7 -3h-530q-6 0 -9 5.5t1 10.5q153 217 270 392l-226 -62q-5 -1 -9 2t-4 8v134q0 4 3 7t8 3h496q6 0 9 -5.5t-1 -10.5l-269 -393l258 63q5 1 9 -2zM252 554l-111 137q-3 4 0 7.5t8 3.5h94q5 0 8 -3l56 -69l56 69q3 3 8 3h93 q6 0 9 -3.5t0 -7.5l-111 -137q-3 -3 -8 -3h-94q-5 0 -8 3z" glyph-name="zcaron" horiz-adv-x="614" unicode="ž"/><glyph d="M510 900.5q3 -3.5 2 -8.5l-13 -85q-1 -9 -10 -9h-82l-11 -71l-10 -63h78q5 0 8 -3.5t2 -8.5l-13 -85q-1 -8 -10 -8h-82l-33 -209l-68 -429q-8 -50 -47.5 -86.5t-89.5 -36.5h-89q-4 0 -7.5 3.5t-2.5 8.5l14 85q1 9 10 9h49l11 71l60 378l33 206h-70q-4 0 -7 3.5t-3 7.5 l14 85q1 9 10 9h72l11 67l8 51q8 50 47.5 86t89.5 36h121q5 0 8 -3.5z" glyph-name="florin" horiz-adv-x="545" unicode="ƒ"/><glyph d="M144 762q3 3 9 3h93q6 0 9 -3l111 -137q3 -3 0 -7t-9 -4h-93q-6 0 -9 4l-55 68l-56 -68q-3 -4 -9 -4h-93q-6 0 -9 4t0 7z" glyph-name="circumflex" horiz-adv-x="399" unicode="ˆ"/><glyph d="M33 754q-3 4 0 7.5t9 3.5h93q6 0 9 -3l56 -69l55 69q3 3 9 3h93q6 0 9 -3.5t0 -7.5l-111 -136q-3 -4 -9 -4h-93q-6 0 -9 4z" glyph-name="caron" horiz-adv-x="399" unicode="ˇ"/><glyph d="M300 675q-45 -33 -103 -33t-103 33q-46 34 -60 86l-2 12q0 3 1.5 5t4.5 2h100q4 0 5 -3q7 -17 18 -30l1 -1v-1q12 -14 26 -22q23 -13 42 -6q23 8 28 38q2 9 1 19q0 2 2 4t4 2h90q3 0 5 -2t1 -5l-2 -12q-13 -53 -59 -86z" glyph-name="breve" horiz-adv-x="393" unicode="˘"/><glyph d="M46 716q18 21 45 21h1q28 0 46 -21q14 -16 14 -38q0 -24 -17.5 -41.5t-42.5 -17.5h-1q-24 0 -41.5 17.5t-17.5 41.5q0 22 14 38z" glyph-name="dotaccent" horiz-adv-x="184" unicode="˙"/><glyph d="M366 -52q5 0 8 -3t3 -7v-11q0 -16 -5 -31q-13 -47 -61 -76q-47 -29 -106.5 -29t-106.5 29q-48 30 -62 76q-4 15 -4 31t4 32q14 46 62 76q47 28 106 28h11q4 0 7 -3t3 -7v-55q0 -7 -7 -9l-8 -3q-5 -1 -10 -4q-17 -8 -30 -23t-17 -33l-1 -1q-4 -17 -1 -30q4 -22 22 -27 q16 -5 36 4q13 7 25 19q17 17 23 41l2 8q2 8 10 8h97z" glyph-name="ogonek" horiz-adv-x="409" unicode="˛"/><glyph d="M289 672q0 -4 -3 -6q-7 -6 -13 -9q-20 -12 -45 -14q-18 -1 -34 4q-9 2 -22 7q-12 6 -29 14q-33 17 -54 15q-17 -1 -31 -11q-6 -4 -15 -12q-3 -3 -7 -1t-4 7v76q0 5 3 7q25 20 58 22q19 1 38 -4q10 -3 24 -9q14 -5 31 -14q20 -9 29 -11q9 -3 18 -2q17 1 35 15q5 4 10 9 q3 3 7 1t4 -7v-77z" glyph-name="tilde" horiz-adv-x="321" unicode="˜"/><glyph d="M619 14q2 -5 -1.5 -9.5t-8.5 -4.5h-567q-5 0 -8 4.5t-1 9.5l233 681q2 7 10 7h100q7 0 10 -7zM190 116h272l-136 397z" glyph-name="Delta" horiz-adv-x="652" unicode="Δ"/><glyph d="M582 702q4 0 7.5 -3t3.5 -7v-682q0 -4 -3.5 -7t-7.5 -3h-95q-4 0 -7.5 3t-3.5 7v576h-328v-576q0 -4 -3 -7t-7 -3h-96q-4 0 -7 3t-3 7v682q0 4 3 7t7 3h540z" glyph-name="Pi" horiz-adv-x="625" unicode="Π"/><glyph d="M636 548.5q-3 -3.5 -8 -2.5l-357 39l134 -229q4 -5 0 -10l-134 -229l357 39q5 1 8 -2t3 -8v-136q0 -4 -3 -7t-7 -3h-587q-5 0 -8 5t-1 10l160 336l-160 336q-2 6 1 10.5t8 4.5h587q4 0 7 -3t3 -7v-136q0 -4 -3 -7.5z" glyph-name="Sigma" horiz-adv-x="671" unicode="Σ"/><glyph d="M810 154q3 -3 3 -8v-136q0 -4 -3 -7t-7 -3h-338q-5 0 -8 3t-3 7v100q0 5 3.5 8t7.5 3q8 -1 15 0l21 2q24 4 44 17q50 31 69 98q21 70 0 154q-26 107 -101 178q-75 70 -154 64q-32 -3 -59 -19q-49 -31 -69 -98q-20 -70 0 -154q16 -67 57 -126.5t98 -91.5q5 -3 5 -9v-126 q0 -4 -3 -7t-7 -3h-339q-4 0 -7 3t-3 7v136q0 5 3.5 8t7.5 2l82 -9q-93 96 -93 232q0 66 25 126.5t72 106.5q107 106 288 106q186 0 297 -106q47 -46 73 -106.5t26 -127.5q1 -65 -24 -125t-72 -106l85 9q5 1 8 -2z" glyph-name="Omega" horiz-adv-x="845" unicode="Ω"/><glyph d="M598 495.5q3 -4.5 1 -9.5l-28 -70v-285q0 -66 -38.5 -105t-104.5 -38q-59 0 -101 23q-28 16 -73 51v-180l28 -70q2 -5 -1 -9.5t-9 -4.5h-230q-5 0 -8 4.5t-1 9.5l28 70v539l-26 65q-2 5 1 9.5t8 4.5h228q6 0 9 -4.5t1 -9.5l-28 -70v-253q22 -18 46 -32q46 -26 66 -16 q14 8 14 38v263l-28 70q-2 5 1 9.5t8 4.5h228q6 0 9 -4.5z" glyph-name="mu" horiz-adv-x="632" unicode="μ"/><glyph d="M679 500q4 0 7 -3t3 -7v-93q0 -5 -3 -8t-7 -3h-112v-376q0 -4 -3 -7t-7 -3h-93q-5 0 -8 3t-3 7v376h-185v-376q0 -4 -3 -7t-7 -3h-94q-4 0 -7 3t-3 7v376h-112q-4 0 -7 3t-3 8v93q0 4 3 7t7 3h637z" glyph-name="pi" horiz-adv-x="721" unicode="π"/><glyph d="M407 388q4 0 7.5 -3t3.5 -7v-82q0 -4 -3.5 -7t-7.5 -3h-364q-4 0 -7.5 3t-3.5 7v82q0 4 3.5 7t7.5 3h364z" glyph-name="endash" horiz-adv-x="450" unicode="–"/><glyph d="M464 373q5 0 9 -3t4 -7v-82q0 -4 -4 -7t-9 -3h-419q-5 0 -9 3t-4 7v82q0 4 4 7t9 3h419z" glyph-name="emdash" horiz-adv-x="509" unicode="—"/><glyph d="M167 718q32 -10 51.5 -36.5t19.5 -60.5q0 -37 -24 -65q-31 -36 -78 -36h-1h-1q-48 0 -78 36q-24 28 -24 65v3q1 59 42.5 101t100.5 43q7 1 10 -5t-1 -11q-11 -15 -17 -34z" glyph-name="quoteleft" horiz-adv-x="270" unicode="‘"/><glyph d="M214 732q24 -28 24 -65v-3q-1 -59 -43 -101t-101 -43q-6 -1 -9 5t1 11q11 16 16 34q-31 10 -50.5 36.5t-19.5 60.5q0 37 24 65q30 36 78 36h1h1q47 0 78 -36z" glyph-name="quoteright" horiz-adv-x="270" unicode="’"/><glyph d="M75 144q2 7 9 7h110q4 0 6 -3q2 -4 0 -8l-75 -134q-4 -6 -9 -6h-78q-3 0 -5 3t0 8z" glyph-name="quotesinglbase" horiz-adv-x="233" unicode="‚"/><glyph d="M33 769q-2 4 0 8q2 3 6 3h110q7 0 9 -7l42 -133q2 -5 0 -8t-6 -3h-77q-5 0 -9 6z" glyph-name="quotereversed" horiz-adv-x="233" unicode="‛"/><glyph d="M167 718q32 -10 51.5 -36.5t19.5 -60.5q0 -37 -24 -65q-31 -36 -78 -36h-1h-1q-48 0 -78 36q-24 28 -24 65v3q1 59 42.5 101t100.5 43q7 1 10 -5t-1 -11q-11 -15 -17 -34zM412 718q31 -10 51 -36.5t20 -60.5q0 -37 -24 -65q-31 -36 -78 -36h-1h-1q-48 0 -79 36 q-23 28 -23 65v3q1 59 42.5 101t100.5 43q6 1 9 -5t0 -11q-11 -15 -17 -34z" glyph-name="quotedblleft" horiz-adv-x="515" unicode="“"/><glyph d="M136 768q47 0 78 -36q24 -28 24 -65v-3q-1 -59 -43 -101t-101 -43q-6 -1 -9 5t1 11q11 16 16 34q-31 10 -50.5 36.5t-19.5 60.5q0 37 24 65q30 36 78 36h1h1zM459 732q24 -28 24 -65q0 -1 -1 -3q-1 -59 -42.5 -101t-100.5 -43q-6 -1 -9 5t1 11q11 16 16 34 q-31 10 -50.5 36.5t-19.5 60.5q0 37 23 65q31 36 79 36h1h1q47 0 78 -36z" glyph-name="quotedblright" horiz-adv-x="515" unicode="”"/><glyph d="M446 150q24 -28 24 -65v-3q-1 -59 -42.5 -100.5t-100.5 -43.5q-6 0 -9 5.5t0 10.5q11 16 17 34q-31 10 -51 37t-20 60q0 37 24 65q31 37 78 37h1h1q48 0 78 -37zM136 187q48 0 78 -37q24 -28 24 -65v-3q-1 -59 -43 -100.5t-101 -43.5q-6 0 -9 5.5t1 10.5q11 16 16 34 q-31 10 -50.5 37t-19.5 60q0 37 24 65q30 37 78 37h1h1z" glyph-name="quotedblbase" horiz-adv-x="502" unicode="„"/><glyph d="M504 500q4 0 7 -3t3 -7v-82q0 -4 -3 -7t-7 -3h-135v-516l28 -70q2 -5 -1 -9.5t-9 -4.5h-228q-5 0 -8 4.5t-1 9.5l28 70v516h-136q-4 0 -7 3t-3 7v82q0 4 3 7t7 3h136v118l-28 70q-3 5 0.5 9.5t8.5 4.5h228q6 0 9 -4.5t1 -9.5l-28 -70v-118h135z" glyph-name="dagger" horiz-adv-x="546" unicode="†"/><glyph d="M504 335h-135v-170h135q4 0 7 -3.5t3 -7.5v-81q0 -5 -3 -8t-7 -3h-135v-180l28 -70q2 -5 -1 -9.5t-9 -4.5h-228q-5 0 -8.5 4.5t-0.5 9.5l28 70v180h-136q-4 0 -7 3t-3 8v81q0 4 3 7.5t7 3.5h136v170h-136q-4 0 -7 3t-3 8v81q0 4 3 7.5t7 3.5h136v180l-28 70q-3 5 0.5 9.5 t8.5 4.5h228q6 0 9 -4.5t1 -9.5l-28 -70v-180h135q4 0 7 -3.5t3 -7.5v-81q0 -5 -3 -8t-7 -3z" glyph-name="daggerdbl" horiz-adv-x="546" unicode="‡"/><glyph d="M283 410q0 -51 -36.5 -87.5t-87.5 -36.5h-1h-2q-51 0 -87.5 36.5t-36.5 87.5q0 46 29 80q37 45 95 45h2h1q58 0 95 -45q29 -34 29 -80z" glyph-name="bullet" horiz-adv-x="315" unicode="•"/><glyph d="M721 150q26 -28 26 -66q0 -41 -30.5 -70t-71.5 -29h-1h-1q-42 0 -72 28.5t-30 70.5q0 38 26 66q30 33 76 33h1h1q45 0 76 -33zM136 183q46 0 76 -33q26 -28 26 -66q0 -41 -30 -70t-72 -29h-1h-1q-42 0 -72 28.5t-30 70.5q0 38 26 66q30 33 76 33h1h1zM390 183 q46 0 76 -33q26 -28 26 -66q0 -42 -30 -70.5t-72 -28.5h-2q-41 0 -71.5 28.5t-30.5 70.5q0 38 26 66q31 33 76 33h1h1z" glyph-name="ellipsis" horiz-adv-x="779" unicode="…"/><glyph d="M1087 350q38 0 70.5 -12.5t53.5 -34t35.5 -49t17.5 -58t0 -61t-17.5 -58.5t-35.5 -49t-53.5 -34t-70.5 -13t-69.5 13t-52 34t-34.5 49t-17 58.5t0 61t17 58t34.5 49t52 34t69.5 12.5zM1145 107q8 28 0 63q-10 41 -34 67q-23 25 -45 23q-5 0 -10 -3q-16 -7 -23 -33 q-8 -28 0 -62q10 -41 34 -68q23 -25 45 -23q5 1 10 3q16 8 23 33zM693 350q38 0 70.5 -12.5t53.5 -34t35.5 -49t17.5 -58t0 -61t-17.5 -58.5t-35.5 -49t-53.5 -34t-70.5 -13t-69.5 13t-52 34t-34.5 49t-17 58.5t0 61t17 58t34.5 49t52 34t69.5 12.5zM751 107q8 28 0 63 q-10 41 -34 67q-23 25 -45 23q-5 0 -10 -3q-16 -7 -23 -33q-8 -28 0 -62q10 -41 34 -68q23 -25 45 -23q5 1 10 3q16 8 23 33zM207 714q43 0 78 -15.5t56.5 -41.5t33.5 -59t12 -67.5t-12 -68t-33.5 -59.5t-56.5 -41.5t-78 -15.5q-48 0 -85.5 20t-57 52.5t-29 72t0 79t29 72 t57 52.5t85.5 20zM188 458q22 -24 44 -22q6 0 10 2q17 8 24 34q7 27 -1 62q-9 41 -34 68q-23 25 -45 22q-5 0 -10 -2q-16 -8 -23 -33q-7 -28 1 -63q9 -41 34 -68zM716 694q3 -5 0 -11l-393 -681q-3 -5 -9 -5h-104q-6 0 -9 5t0 10l393 682q3 5 9 5h104q6 0 9 -5z" glyph-name="perthousand" horiz-adv-x="1298" unicode="‰"/><glyph d="M161 351l166 -336q3 -5 0 -10t-9 -5h-174q-8 0 -10 7l-102 341v6l102 340q2 8 10 8h174q6 0 9 -5t0 -10z" glyph-name="guilsinglleft" horiz-adv-x="360" unicode="‹"/><glyph d="M328 354q1 -3 0 -6l-102 -341q-2 -7 -10 -7h-174q-5 0 -8 5t-1 10l166 336l-166 336q-2 5 1 10t8 5h174q8 0 10 -8z" glyph-name="guilsinglright" horiz-adv-x="360" unicode="›"/><glyph d="M266 695q2 7 10 7h100q5 0 8 -4.5t2 -9.5l-233 -681q-3 -7 -10 -7h-101q-5 0 -8 4.5t-1 9.5z" glyph-name="fraction" horiz-adv-x="418" unicode="⁄"/><glyph d="M827.5 130.5q5.5 -6.5 -0.5 -13.5q-57 -67 -142 -99.5t-180 -32.5q-141 0 -242 66q-88 58 -129 155h-92q-4 0 -7 3.5t-3 7.5v81q0 5 3 8t7 3h65q-5 44 0 89h-65q-4 0 -7 3t-3 7v82q0 4 3 7t7 3h93q43 96 130 153q100 65 240 65q86 0 164.5 -27t135.5 -83q4 -3 3.5 -7.5 t-3.5 -7.5l-149 -125q-3 -3 -8 -2t-7 5q-43 80 -109 114q-60 31 -117 13q-69 -21 -99 -98h206q4 0 7 -3t3 -7v-82q0 -4 -3 -7t-7 -3h-222q0 -22 3 -46q3 -22 9 -43h210q4 0 7 -3t3 -8v-81q0 -4 -3 -7.5t-7 -3.5h-154q8 -9 17 -18q81 -79 206 -94.5t223 39.5q8 4 13.5 -2.5z " glyph-name="Euro" horiz-adv-x="862" unicode="€"/><glyph d="M395 919q4 0 7 -3t3 -7v-95q0 -6 -4 -9t-9 -1l-113 36v-284l16 -40q2 -5 -1 -9.5t-9 -4.5h-133q-6 0 -9 4.5t-1 9.5l17 40v284l-114 -36q-5 -2 -9 1t-4 9v95q0 4 3 7t7 3h353zM931 556l16 -40q2 -5 -1 -9.5t-8 -4.5h-134q-5 0 -8 4.5t-1 9.5l16 40v224l-131 -279 q-3 -6 -10 -6t-9 6l-113 264v-192l22 -57q2 -5 -1 -9.5t-8 -4.5h-102q-5 0 -8 4.5t-1 9.5l23 57v292l-16 40q-3 5 0.5 9.5t8.5 4.5h137q7 0 10 -6l84 -199l95 199q3 6 9 6h137q5 0 8 -4.5t1 -9.5l-16 -40v-309z" glyph-name="trademark" horiz-adv-x="980" unicode="™"/><glyph d="M738 421q12 -77 -9 -153.5t-70 -138.5q-55 -69 -134.5 -105.5t-171.5 -38.5h-2q-110 3 -195 55q-86 52 -111 134q-24 78 -4 142t72.5 110t132 72t174.5 28q48 1 102 -15q-13 21 -32 36q-67 54 -189 40q-71 -9 -130 -38q-6 -2 -11 1.5t-4 9.5l18 137q1 8 8 9q63 12 126 12 q190 0 305 -89q104 -80 125 -208zM526 258q14 45 7 84q-9 55 -47 73q-48 23 -114 -12q-43 -23 -77.5 -64t-47.5 -87q-14 -44 -7 -83q10 -55 48 -74q47 -23 114 13q43 23 77 63.5t47 86.5z" glyph-name="partialdiff" horiz-adv-x="774" unicode="∂"/><glyph d="M407 273q4 0 7.5 -3t3.5 -7v-82q0 -4 -3.5 -7t-7.5 -3h-364q-4 0 -7.5 3t-3.5 7v82q0 4 3.5 7t7.5 3h364z" glyph-name="minus" horiz-adv-x="450" unicode="−"/><glyph d="M508 695.5q3 -4.5 1 -9.5l-240 -679q-3 -7 -10 -7h-100q-8 0 -10 7l-116 339q-2 5 1 9.5t8 4.5h101q7 0 9 -7l57 -165l180 505q3 7 10 7h100q6 0 9 -4.5z" glyph-name="radical" horiz-adv-x="542" unicode="√"/><glyph d="M471 324q6 -20 6 -41t-6 -41q-9 -33 -31 -56q-38 -42 -96 -42q-6 0 -11 1q-54 4 -89 46q-36 -34 -87 -34q-7 0 -12 1q-49 4 -82 40q-19 22 -26 50q-5 17 -5 35t4 34q8 28 27 50q32 37 82 41q5 1 12 1q51 0 87 -35q35 42 89 47h11q58 0 96 -41q22 -24 31 -56zM212 285 q0 9 1 16q-4 17 -24 22q-13 3 -27 1h-2q-34 -5 -52 -32q-11 -16 -6 -29q4 -14 20 -19q2 -1 4 -1q8 -2 17 -2q19 0 37 10q3 1 7 4q1 0 1 1q11 7 18 17q4 6 6 12zM398 271q13 20 6 37q-6 16 -26 22q-12 3 -28 1h-2q-37 -6 -57 -36q-13 -20 -6 -38q6 -16 26 -21q9 -3 18 -2 q21 0 40 11q4 2 8 5l2 2q12 8 19 19z" glyph-name="infinity" horiz-adv-x="509" unicode="∞"/><glyph d="M417 904q32 0 55 -23.5t23 -56t-23 -56t-55 -23.5q-28 0 -49 17l-28 23l-4 -36q-2 -18 -2 -31v-645q0 -58 -12 -106t-37.5 -86.5t-69.5 -60.5t-104 -22q-33 0 -56 23.5t-23 56t23 56t56 23.5q27 0 48 -18l29 -23l4 37q2 17 2 31v645q0 58 11.5 105.5t37 86.5t70 61 t104.5 22z" glyph-name="integral" horiz-adv-x="527" unicode="∫"/><glyph d="M413 328.5q6 -2.5 6 -9.5v-102q0 -6 -5 -9q-10 -7 -19 -12q-30 -15 -68 -17q-27 -2 -52 4q-12 3 -32 10q-19 7 -45 19q-48 22 -80 20q-25 -1 -47 -14q-9 -6 -22 -17q-5 -4 -11 -1.5t-6 9.5v102q0 5 4 8q39 27 88 30q28 1 58 -6q14 -4 35 -11q20 -8 47 -19q29 -12 43 -15 q13 -4 27 -3q25 2 53 20q8 6 15 12q5 4 11 1.5zM413 502.5q6 -2.5 6 -9.5v-102q0 -5 -5 -8q-10 -8 -19 -12q-30 -16 -68 -18q-27 -1 -52 4q-12 3 -32 11q-18 7 -45 18q-48 22 -80 21q-25 -2 -47 -15q-9 -6 -22 -16q-5 -5 -11 -2t-6 9v102q0 5 4 9q39 26 88 29q28 1 58 -6 q14 -3 35 -11q20 -7 47 -19q29 -12 43 -15q13 -3 27 -2q25 1 53 20q8 5 15 11q5 4 11 1.5z" glyph-name="approxequal" horiz-adv-x="451" unicode="≈"/><glyph d="M373 290h-108l-24 -72h132q5 0 8 -3t3 -7v-82q0 -4 -3 -7t-8 -3h-167l-37 -109q-3 -7 -10 -7h-69q-5 0 -8 4.5t-2 9.5l35 102h-73q-4 0 -7 3t-3 7v82q0 4 3 7t7 3h108l25 72h-133q-4 0 -7 3t-3 7v82q0 4 3 7t7 3h168l34 101q3 7 10 7h69q5 0 8 -4.5t2 -9.5l-33 -94h73 q5 0 8 -3t3 -7v-82q0 -4 -3 -7t-8 -3z" glyph-name="notequal" horiz-adv-x="416" unicode="≠"/><glyph d="M41 317q-5 3 -5 9v96q0 6 5 9l323 195q5 4 10.5 1t5.5 -9v-96q0 -6 -5 -9l-230 -139l230 -140q5 -3 5 -8v-96q0 -6 -5.5 -9t-10.5 0zM373 102q5 0 8 -3t3 -7v-82q0 -4 -3 -7t-8 -3h-331q-4 0 -7 3t-3 7v82q0 4 3 7t7 3h331z" glyph-name="lessequal" horiz-adv-x="416" unicode="≤"/><glyph d="M41.5 121q-5.5 3 -5.5 9v96q0 5 5 8l230 140l-230 139q-5 3 -5 9v96q0 6 5.5 9t10.5 -1l323 -195q5 -3 5 -9v-96q0 -6 -5 -9l-323 -196q-5 -3 -10.5 0zM373 102q5 0 8 -3t3 -7v-82q0 -4 -3 -7t-8 -3h-331q-4 0 -7 3t-3 7v82q0 4 3 7t7 3h331z" glyph-name="greaterequal" horiz-adv-x="416" unicode="≥"/><glyph d="M386 354q1 -3 0 -7l-117 -340q-2 -7 -10 -7h-100q-7 0 -10 7l-116 340q-2 4 0 7l116 341q3 7 10 7h100q8 0 10 -7zM209 189l55 162l-55 162l-55 -162z" glyph-name="lozenge" horiz-adv-x="418" unicode="◊"/><glyph d="M259 302l-32 -82l17 -46l59 -160q2 -5 -1 -9.5t-9 -4.5h-251q-5 0 -8 4.5t-1 9.5l234 600l-20 72q-1 5 2 9t8 4h234q7 0 9 -7l265 -678q2 -5 -1 -9.5t-8 -4.5h-183q-7 0 -10 7l-71 182l-44 113l-95 241z" glyph-name="uniF000" unicode=""/><glyph d="M305 189l64 -175q2 -5 -1 -9.5t-9 -4.5h-250q-6 0 -9 4.5t-1 9.5l95 242q-65 2 -135 -6q-11 -2 -19 5.5t-8 18.5l6 151q0 12 9 19t20 6q96 -11 188 -38l79 202l-21 72q-1 5 2 9t8 4h234q7 0 9 -7l266 -678q2 -5 -1 -9.5t-9 -4.5h-103h-80q-7 0 -9 7q-36 90 -123 150 t-193 84zM355 377q93 -38 166 -92l-7 17l-94 241z" glyph-name="uniF001" horiz-adv-x="841" unicode=""/><glyph d="M-156 -3q3 11 13 15.5t21 0.5q78 -34 168.5 -52t189.5 -10.5t168 49.5q40 24 65.5 56t33.5 64t1.5 63.5t-27.5 55.5t-57.5 39t-83.5 15h-113v-209l28 -70q2 -5 -1 -9.5t-8 -4.5h-228q-6 0 -9 4.5t-1 9.5l28 70v531l-28 70q-2 5 1 9.5t9 4.5h439q57 0 105 -32t70 -84 q25 -61 7 -124.5t-72 -102.5q71 -40 107 -91.5t37.5 -102.5t-20.5 -102.5t-64 -94.5t-97 -76.5t-115 -50.5q-107 -30 -296 -33.5t-296 16.5q-11 2 -17 11.5t-2 20.5zM362 406q37 0 63 26.5t26 63.5t-26 63t-63 26h-139v-179h139z" glyph-name="uniF002" horiz-adv-x="707" unicode=""/><glyph d="M340 116q79 0 132 98q57 104 48 239q-11 159 -112 242q-155 129 -458 12q-24 -9 -50 -21q-10 -4 -20 0.5t-14 15.5l-44 144q-3 11 2.5 20.5t16.5 11.5q107 21 296 17t297 -34q82 -23 143.5 -76t93.5 -120.5t44 -147t2 -156t-38.5 -147t-72.5 -119.5q-84 -95 -219 -95 h-356q-6 0 -9 4.5t-1 9.5l28 70v531l-28 70q-2 5 1 9.5t9 4.5h228q6 0 9 -4.5t1 -9.5l-29 -70v-269v-230h100z" glyph-name="uniF003" horiz-adv-x="754" unicode=""/><glyph d="M587 543l-335 41v-142q142 39 258 -13q4 -2 5 -6t-1 -8l-90 -153q-2 -4 -6.5 -4.5t-8.5 2.5q-9 8 -17 15q-58 46 -119 51q-11 1 -21 0v-211l356 46q5 0 8.5 -3t3.5 -7v-141q0 -4 -3 -7t-8 -3h-567q-5 0 -8 4.5t-1 9.5l28 70v531l-28 70q-2 5 1 9.5t8 4.5h546q5 0 8 -3 t3 -7v-136q0 -5 -3.5 -8t-8.5 -2z" glyph-name="uniF004" horiz-adv-x="652" unicode=""/><glyph d="M580 543l-328 41v-142q142 39 258 -13q4 -2 5 -6t-1 -8l-90 -153q-2 -4 -6.5 -4.5t-8.5 2.5q-9 8 -17 15q-58 46 -119 51q-11 1 -21 0v-242l28 -70q2 -5 -1 -9.5t-9 -4.5h-228q-5 0 -8 4.5t-1 9.5l28 70v531l-28 70q-2 5 1 9.5t8 4.5h539q4 0 7 -3t3 -7v-136 q0 -5 -3.5 -8t-7.5 -2z" glyph-name="uniF005" horiz-adv-x="623" unicode=""/><glyph d="M166 271q0 -69 -8 -140q-25 -213 -105 -314q-6 -7 -15.5 -8.5t-17.5 3.5l-143 87q-11 6 -12 18.5t9 20.5q58 51 92.5 92.5t54 91t26 100.5t6.5 131v262l-28 70q-3 5 0.5 9.5t8.5 4.5h235q7 0 9 -6l151 -355l169 355q3 6 9 6h234q6 0 9 -4.5t1 -9.5l-28 -70v-531l28 -70 q2 -5 -1 -9.5t-9 -4.5h-228q-5 0 -8 4.5t-1 9.5l28 70v417l-239 -507q-3 -7 -10 -6.5t-9 6.5l-208 484v-207z" glyph-name="uniF006" horiz-adv-x="884" unicode=""/><glyph d="M289 694l289 -486v379l-40 98q-2 5 1 9.5t9 4.5h173q6 0 9 -4.5t1 -9.5l-40 -98v-577q0 -4 -3 -7t-7 -3h-206q-6 0 -9 5l-289 486v-220q0 -69 -8 -140q-25 -213 -105 -314q-6 -7 -15 -8.5t-17 3.5l-144 87q-10 6 -11.5 18.5t8.5 20.5q58 51 92.5 92.5t54 91t26 100.5 t6.5 130v263l-28 70q-2 5 1 9.5t8 4.5h235q6 0 9 -5z" glyph-name="uniF007" horiz-adv-x="764" unicode=""/><glyph d="M-156 702l-44 144q-4 11 2 20.5t17 11.5q107 21 311.5 17t311.5 -34q77 -21 135.5 -62.5t91.5 -92.5t47.5 -110t8.5 -116.5t-31 -110.5t-65 -93.5t-100 -64.5t-131 -24h-131v-103l28 -70q2 -5 -1 -9.5t-8 -4.5h-229q-5 0 -8 4.5t-1 9.5l28 70v531l-28 70q-2 5 1 9.5 t8 4.5h229q5 0 8 -4.5t1 -9.5l-28 -70v-312h85q49 0 86.5 23t58 59.5t27.5 82.5t-0.5 89.5t-30 82t-57.5 59.5q-45 27 -112.5 40t-134 12.5t-129.5 -11.5q-98 -17 -182 -54q-11 -4 -21 0.5t-13 15.5z" glyph-name="uniF008" horiz-adv-x="759" unicode=""/><glyph d="M728 685l-28 -70v-531l28 -70q2 -5 -1 -9.5t-9 -4.5h-228q-5 0 -8 4.5t-1 9.5l28 70v257l-55 -79q-3 -4 -8 -4.5t-9 2.5h-1q-10 8 -20 15q-69 46 -141 51q-12 1 -23 0v-242l28 -70q2 -5 -1 -9.5t-9 -4.5h-228q-5 0 -8 4.5t-1 9.5l28 70v531l-28 70q-2 5 1 9.5t8 4.5h228 q6 0 9 -4.5t1 -9.5l-28 -70v-173q137 32 257 1v172l-28 70q-2 5 1 9.5t8 4.5h228q6 0 9 -4.5t1 -9.5z" glyph-name="uniF009" horiz-adv-x="761" unicode=""/><glyph d="M-189 846q-3 11 2.5 20.5t16.5 11.5q107 21 311.5 17t311.5 -34q93 -26 158 -80t94.5 -119.5t31.5 -138.5t-23.5 -137t-78.5 -114.5t-126 -71.5q-7 -4 -12 -5q22 -59 47.5 -99.5t63 -71.5t89.5 -45t122 -13q5 0 9 -4.5t3 -10.5l-30 -140q-1 -5 -6 -8q-3 -2 -9 -1 q-51 5 -88 11.5t-79 19t-72 30.5t-61.5 46.5t-55 66.5t-45 91t-37.5 120h-70v-103l28 -70q2 -5 -1 -9.5t-8 -4.5h-228q-6 0 -9 4.5t-1 9.5l28 70v531l-28 70q-2 5 1 9.5t9 4.5h228q5 0 8 -4.5t1 -9.5l-28 -70v-312h85q49 0 86.5 23t58 59.5t27.5 82.5t-0.5 89.5t-30 82 t-57.5 59.5q-45 27 -112.5 40t-134 12.5t-129.5 -11.5q-98 -17 -182 -54q-10 -4 -20.5 0.5t-13.5 15.5z" glyph-name="uniF00A" horiz-adv-x="763" unicode=""/><glyph d="M-193 878q107 21 311.5 17t311.5 -34q88 -25 152 -77.5t94.5 -116t36 -135t-14.5 -135t-65.5 -114.5t-110.5 -74q72 -44 103 -109q8 -17 32 -76q5 -14 9 -24q12 -27 23 -46q9 -16 26 -29q23 -19 51 -26q26 -7 42 0q5 2 10.5 -1t5.5 -9l3 -69q0 -10 -10 -12l-5 -1l-6 -1 q-53 -9 -115 1q-73 12 -134 46q-67 37 -102 99q-12 20 -23 48q-4 11 -12 31t-11 30q-25 61 -52 90q-21 23 -38 29t-45 7h-19v-103l28 -70q2 -5 -1 -9.5t-9 -4.5h-228q-5 0 -8 4.5t-1 9.5l28 70v531l-28 70q-2 5 1 9.5t8 4.5h228q6 0 9 -4.5t1 -9.5l-28 -70v-312h85 q49 0 86.5 23t58 59.5t27.5 82.5t-0.5 89.5t-30 82t-58.5 59.5q-44 27 -111.5 40t-134 12.5t-129.5 -11.5q-98 -17 -182 -54q-11 -4 -21 0.5t-13 15.5l-44 144q-4 11 2 20.5t17 11.5z" glyph-name="uniF00B" horiz-adv-x="760" unicode=""/><glyph d="M252 187v-103l28 -70q2 -5 -1 -9.5t-9 -4.5h-228q-5 0 -8 4.5t-1 9.5l28 70v531l-28 70q-2 5 1 9.5t8 4.5h341q69 0 126 -19t93.5 -50.5t59.5 -72.5t28 -85t-6.5 -88t-37.5 -81.5t-71.5 -66.5t-103.5 -41q21 -59 47 -99.5t63.5 -71.5t89.5 -45t121 -13q6 0 10 -4.5 t2 -10.5l-29 -140q-1 -5 -6 -8q-3 -2 -9 -1q-51 5 -88.5 11.5t-79 19t-72 30.5t-62 46.5t-55 66.5t-44.5 91t-37 120h-70zM252 583v-280h85q43 0 77.5 15.5t52 40t26 54.5t0 60t-26 54.5t-52 40t-77.5 15.5h-85z" glyph-name="uniF00C" horiz-adv-x="720" unicode=""/><glyph d="M252 187v-103l28 -70q2 -5 -1 -9.5t-9 -4.5h-228q-5 0 -8 4.5t-1 9.5l28 70v531l-28 70q-2 5 1 9.5t8 4.5h341q65 0 119.5 -17t91.5 -45.5t61 -66.5t32 -79t1.5 -83.5t-26.5 -80t-57 -69t-86 -49.5q72 -44 103 -109q8 -17 32 -76q18 -46 32 -70q9 -16 26 -29 q23 -19 51 -26q26 -7 42 0q5 2 10.5 -1t5.5 -9l3 -69q0 -10 -10 -12q-5 -1 -11 -2q-59 -10 -126.5 3t-122.5 44q-67 37 -102 99q-9 16 -16.5 32.5t-17 42.5t-12.5 34q-25 61 -52 90q-17 18 -33.5 26t-27 9t-41.5 1zM252 583v-280h85q43 0 77.5 15.5t52 40t26 54.5t0 60 t-26 54.5t-52 40t-77.5 15.5h-85z" glyph-name="uniF00D" horiz-adv-x="727" unicode=""/><glyph d="M417 -17q-83 0 -152 25t-114 67.5t-76.5 97.5t-38 116t0 121.5t38 115.5t76.5 97.5t114 67.5t152 25q93 0 169 -30t123.5 -79.5t75 -113.5t29 -130t-20 -132t-65.5 -118q12 -14 31.5 -35t31.5 -34.5t30 -32t30 -30t28.5 -26t28.5 -22.5t27.5 -16t28 -11t27 -3t28.5 4 q3 1 9.5 5.5t11.5 2.5q7 -2 7 -10l3 -87q1 -10 -9 -12q-126 -19 -255 36q-64 27 -113 67.5t-99 99.5q-72 -26 -157 -26zM236 315q67 20 145 12.5t130 -34.5q53 -27 108 -73q13 68 -5 145q-26 117 -102 194q-74 75 -153 68q-25 -2 -48 -14q-55 -29 -78 -105q-24 -79 -2 -174 q2 -10 5 -19zM486 72q16 1 31 7q-13 17 -22 27q-24 29 -37.5 44t-37.5 34.5t-50 30.5q-36 16 -62 15q-22 0 -37 -4q26 -49 62 -86q74 -75 153 -68z" glyph-name="uniF00E" horiz-adv-x="838" unicode=""/><glyph d="M417 -17q-83 0 -152 25t-114 67.5t-76.5 97.5t-38 116t0 121.5t38 115.5t76.5 97.5t114 67.5t152 25q96 0 173.5 -31.5t124.5 -83t73 -118t25.5 -135t-26 -135t-74.5 -117.5q25 -30 48.5 -51t55.5 -41t73 -29.5t91 -8.5q6 0 9.5 -4.5t2.5 -10.5l-30 -140q-1 -5 -5 -8 q-3 -2 -10 -1q-55 6 -94.5 13t-83.5 21.5t-76.5 36t-63.5 55.5t-56 81q-72 -26 -157 -26zM534 86q-41 65 -101 105t-131 39q-18 0 -32 -3q26 -49 63 -87q74 -75 153 -68q26 2 48 14zM231 334q2 -9 4 -17q80 23 182 4q123 -23 201 -105q14 70 -4 149q-26 117 -102 194 q-74 75 -153 68q-25 -2 -48 -14q-55 -29 -78 -105q-24 -79 -2 -174z" glyph-name="uniF00F" horiz-adv-x="859" unicode=""/><glyph d="M779 -198q-63 7 -114.5 20.5t-89 31t-70 44t-54.5 53t-47.5 64.5t-45 71.5t-49 81t-57.5 86.5v-170l28 -70q2 -5 -1 -9.5t-9 -4.5h-228q-5 0 -8 4.5t-1 9.5l28 70v531l-28 70q-2 5 1 9.5t8 4.5h228q6 0 9 -4.5t1 -9.5l-28 -70v-197l179 276q3 5 8 5h194q7 0 9.5 -6 t-2.5 -11l-254 -283q27 -38 62 -95t60.5 -100t60.5 -90.5t68 -78t78.5 -50.5t96.5 -19q6 0 9.5 -4.5t2.5 -10.5l-30 -140q-1 -5 -6 -8q-3 -2 -9 -1z" glyph-name="uniF010" horiz-adv-x="679" unicode=""/><glyph d="M928 -194q-144 -22 -255 17.5t-205 146.5q-24 26 -48 56.5t-50.5 65.5t-42 56.5t-43 59.5t-32.5 46v-170q1 -2 5 -11.5l8 -19t8 -20t6 -18.5t0 -10q-3 -5 -9 -5h-228q-5 0 -8 4.5t-1 9.5l27 67l1 3v531l-28 70q-2 5 1 9.5t8 4.5h228q6 0 9 -4.5t1 -9.5l-28 -70v-197 l179 276q3 5 8 5h194q7 0 9.5 -6t-2.5 -11l-254 -283l33 -45t41.5 -56.5t51.5 -67.5t55 -68.5t61 -70.5t60.5 -63t61.5 -56.5t56.5 -40t53.5 -24.5t45 0q4 1 10 5.5t12 2.5q7 -2 7 -10l3 -87q0 -10 -9 -12z" glyph-name="uniF011" horiz-adv-x="681" unicode=""/><glyph d="M67 520v46q0 3 -1 5l-33 54q-2 4 -0.5 9t6.5 6l35 11h1l170 47q5 1 9 -2t4 -8v-121q0 -8 -7 -10h-2q-1 0 -2 -0.5t-2 -0.5l-165 -45q-5 -1 -9 2t-4 7zM258 84l28 -70q2 -5 -1 -9.5t-8 -4.5h-228q-6 0 -9 4.5t-1 9.5l28 70v286l-34 56q-2 5 -0.5 9.5t6.5 5.5l35 12h1 l170 46q5 1 9 -2t4 -8v-405z" glyph-name="uniF012" horiz-adv-x="319" unicode=""/><glyph d="M77 370l-34 56q-3 5 -1 9.5t6 5.5l36 12l170 46q5 1 9 -2t4 -8v-540q0 -65 -46.5 -104t-113.5 -44q-35 -3 -67 4q-6 1 -7.5 7t3.5 11q40 34 41 88v2v55v402zM80.5 513q-3.5 3 -3.5 7v46q0 3 -2 5l-32 54q-3 4 -1 9t6 6l36 11l170 47q5 1 9 -2t4 -8v-121q0 -8 -7 -10h-2 q-1 0 -2 -0.5t-2 -0.5l-165 -45q-5 -1 -8.5 2z" glyph-name="uniF013" horiz-adv-x="299" unicode=""/><glyph d="M50 -63q11 16 11 102v575l-28 70q-2 5 1 9.5t8 4.5h228q6 0 9 -4.5t1 -9.5l-28 -70v-576q51 -10 129.5 -37t143.5 -46.5t143.5 -33.5t164 -3t171.5 50l10 5t6 3.5t13 6.5q6 3 11 -5l83 -127q5 -8 -3 -14q-46 -40 -99 -63t-105.5 -28t-109.5 0.5t-110.5 21t-109 33.5 t-105.5 38.5t-99.5 36.5t-91.5 26t-80.5 8.5t-67.5 -16.5q-9 -4 -23 -17q-5 -5 -11 0l-60 46q-3 3 -3 7q-1 3 1 7z" glyph-name="uniF014" horiz-adv-x="327" unicode=""/><glyph d="M50 -98q11 16 11 101v617q0 1 -1 2l-27 69q-2 5 1 9.5t8 4.5h228q6 0 9 -4.5t1 -9.5l-28 -69v-2v-612q0 -5 5 -6q43 -9 118.5 -30t131.5 -33.5t129 -22.5t148.5 -2t151.5 34q5 2 8 -3l89 -154q2 -2 1 -5t-4 -4q-55 -26 -119 -34.5t-124 -1.5t-125 21.5t-122.5 34 t-116 36.5t-107 28.5t-93.5 10.5t-77 -18q-9 -5 -23 -17q-5 -5 -11 -1l-60 47q-3 3 -3 7q-1 3 1 7z" glyph-name="uniF015" horiz-adv-x="311" unicode=""/><glyph d="M499 491v-272q0 -8 -8 -10l-94 -18q-5 -1 -8.5 2t-3.5 8v414l-28 70q-2 5 1 9.5t9 4.5h234q6 0 9 -5l289 -486v378l-39 99q-2 5 1 9.5t8 4.5h174q5 0 8 -4.5t1 -9.5l-39 -99v-576q0 -4 -3 -7t-8 -3h-205q-6 0 -9 5zM529 0h-1h-486q-5 0 -8 4.5t-1 9.5l28 70v531l-28 70 q-2 5 1 9.5t8 4.5h228q6 0 9 -4.5t1 -9.5l-28 -70v-499l349 67q4 1 8 -2t4 -8v-163q0 -4 -3 -7t-7 -3h-74z" glyph-name="uniF016" horiz-adv-x="1085" unicode=""/><glyph d="M761 339l170 355q3 5 9 5h234q5 0 8 -4.5t1 -9.5l-28 -70v-530l28 -70q2 -5 -1 -9.5t-8 -4.5h-228q-6 0 -9 4.5t-1 9.5l28 70v416l-239 -507q-3 -6 -9.5 -6t-9.5 6l-207 485v-260q0 -8 -8 -9l-94 -18q-5 -1 -8.5 1.5t-3.5 7.5v414l-28 70q-2 5 1 9.5t9 4.5h234q7 0 10 -6 zM252 117l349 67q4 1 8 -2t4 -8v-163q0 -4 -3 -7t-7 -3h-561q-5 0 -8 4.5t-1 9.5l28 70v530l-28 70q-2 5 1 9.5t8 4.5h228q6 0 9 -4.5t1 -9.5l-28 -70v-498z" glyph-name="uniF017" horiz-adv-x="1216" unicode=""/><glyph d="M252 116l618 67q4 1 8 -2t4 -8v-163q0 -4 -3 -7t-7 -3h-830q-5 0 -8 4.5t-1 9.5l28 70v531l-28 70q-2 5 1 9.5t8 4.5h228q6 0 9 -4.5t1 -9.5l-28 -70v-499zM576 341l294 67q4 1 8 -2t4 -8v-163q0 -4 -3 -7t-7 -3h-505q-6 0 -9 4.5t-1 9.5l28 70v306l-28 70q-2 5 1 9.5 t9 4.5h228q5 0 8 -4.5t1 -9.5l-28 -70v-274z" glyph-name="uniF018" horiz-adv-x="914" unicode=""/><glyph d="M252 116l349 67q4 1 8 -2t4 -8v-163q0 -4 -3 -7t-7 -3h-561q-5 0 -8 4.5t-1 9.5l28 70v531l-28 70q-2 5 1 9.5t8 4.5h228q6 0 9 -4.5t1 -9.5l-28 -70v-499zM409 393l86 221l-20 72q-2 5 1.5 9t8.5 4h233q8 0 10 -7l265 -678q2 -5 -1 -9.5t-8 -4.5h-183q-7 0 -10 7 l-71 182l-44 113l-95 241l-58 -150l-47 -118l-26 -68q-3 -6 -10 -8l-93 -17q-7 -2 -12 4t-2 13z" glyph-name="uniF01A" horiz-adv-x="1026" unicode=""/><glyph d="M738 610q-2 11 -2 23q0 42 29.5 72t72.5 30h2q27 0 50 -13.5t37 -36.5q14 -24 14 -52t-10 -48q-9 -17 -21.5 -28.5t-24.5 -17.5t-30.5 -7.5t-31.5 -1.5t-34.5 4.5t-32 7.5t-32.5 10t-29 9q-26 6 -50 6.5t-51.5 -17.5t-54.5 -56q-3 -4 -9 -4t-8 5q-34 59 -89.5 101 t-116.5 42q-36 0 -51 -25q-12 -21 -3 -48q11 -31 47 -55q26 -17 72 -42q14 -7 41.5 -21.5t41.5 -21.5q35 -18 58 -32t55 -37t53.5 -49t30.5 -55q6 -16 7 -33q5 -77 -60 -143q-86 -88 -278 -88q-145 0 -293 92q-4 2 -5 6.5t2 7.5l97 138q3 4 8 4t8 -4q41 -45 102 -84 q67 -44 127 -59q64 -16 96 7q10 7 16 19q7 11 2 30q-6 24 -28 46q-25 27 -69.5 53t-88 47t-86 44.5t-75 56t-45.5 71.5q-12 35 -7 71q10 75 77 125q83 62 214 62q60 0 111.5 -13.5t82.5 -30.5t75.5 -37t86.5 -30zM939 84l28 -70q2 -5 -1 -9.5t-8 -4.5h-228q-6 0 -9 4.5 t-1 9.5l29 70v287l-34 56q-3 4 -1 8.5t6 6.5l36 11l170 46q5 2 9 -1t4 -8v-406z" glyph-name="uniF01C" horiz-adv-x="978" unicode=""/><glyph d="M609 181q4 -3 4 -8v-163q0 -4 -3 -7t-7 -3h-561q-5 0 -8 4.5t-1 9.5l28 70v531l-28 70q-2 5 1 9.5t8 4.5h228q6 0 9 -4.5t1 -9.5l-28 -70v-499l349 67q4 1 8 -2zM384 617l-27 68q-2 5 1 9.5t9 4.5h228q5 0 8 -4.5t1 -9.5l-27 -68q-1 -2 -1 -6v-372q0 -13 -13 -16 q-28 -5 -83 -16t-83 -16q-5 -1 -8.5 2t-3.5 8v410q0 4 -1 6z" glyph-name="uniF01D" horiz-adv-x="645" unicode=""/></font>
</defs>
</svg>
